<svg width="11" height="10" viewBox="0 0 11 10" fill="none" xmlns="http://www.w3.org/2000/svg">
<path d="M5.0625 9.82812C4.94792 9.71354 4.88792 9.56771 4.8825 9.39062C4.8775 9.21354 4.93229 9.06771 5.04687 8.95312L8.10937 5.89062H1.125C0.947917 5.89062 0.799375 5.83062 0.679375 5.71062C0.559792 5.59104 0.5 5.44271 0.5 5.26562C0.5 5.08854 0.559792 4.94 0.679375 4.82C0.799375 4.70042 0.947917 4.64062 1.125 4.64062H8.10937L5.04687 1.57812C4.93229 1.46354 4.8775 1.31771 4.8825 1.14062C4.88792 0.963542 4.94792 0.817708 5.0625 0.703125C5.17708 0.588541 5.32292 0.53125 5.5 0.53125C5.67708 0.53125 5.82292 0.588541 5.9375 0.703125L10.0625 4.82812C10.125 4.88021 10.1694 4.94521 10.1956 5.02313C10.2215 5.10146 10.2344 5.18229 10.2344 5.26562C10.2344 5.34896 10.2215 5.42708 10.1956 5.5C10.1694 5.57292 10.125 5.64062 10.0625 5.70312L5.9375 9.82812C5.82292 9.94271 5.67708 10 5.5 10C5.32292 10 5.17708 9.94271 5.0625 9.82812Z" fill="#7524B3"/>
</svg>
