<svg width="17" height="16" viewBox="0 0 17 16" fill="none" xmlns="http://www.w3.org/2000/svg">
<path d="M9.22921 0.28646C9.42018 0.477432 9.52018 0.720487 9.52921 1.01562C9.53754 1.31076 9.44622 1.55382 9.25525 1.74479L4.15108 6.84896L15.7917 6.84896C16.0868 6.84896 16.3344 6.94896 16.5344 7.14896C16.7337 7.34826 16.8334 7.59549 16.8334 7.89063C16.8334 8.18576 16.7337 8.43333 16.5344 8.63333C16.3344 8.83264 16.0868 8.93229 15.7917 8.93229L4.15108 8.93229L9.25525 14.0365C9.44622 14.2274 9.53754 14.4705 9.52921 14.7656C9.52018 15.0608 9.42018 15.3038 9.22921 15.4948C9.03824 15.6858 8.79518 15.7812 8.50004 15.7812C8.2049 15.7812 7.96185 15.6858 7.77087 15.4948L0.895875 8.61979C0.791708 8.53299 0.717749 8.42465 0.674 8.29479C0.630943 8.16424 0.609415 8.02951 0.609415 7.89063C0.609415 7.75174 0.630943 7.62153 0.674 7.5C0.717749 7.37847 0.791708 7.26563 0.895875 7.16146L7.77087 0.28646C7.96185 0.0954876 8.2049 0 8.50004 0C8.79518 0 9.03824 0.0954876 9.22921 0.28646Z" fill="white"/>
</svg>
