<svg width="19" height="22" viewBox="0 0 19 22" fill="none" xmlns="http://www.w3.org/2000/svg">
<path d="M18.875 17.7917V18.8334H0.125V17.7917L2.20833 15.7084V9.45837C2.20833 6.22921 4.32292 3.38546 7.41667 2.46879V2.16671C7.41667 1.61417 7.63616 1.08427 8.02686 0.693568C8.41756 0.302867 8.94746 0.083374 9.5 0.083374C10.0525 0.083374 10.5824 0.302867 10.9731 0.693568C11.3638 1.08427 11.5833 1.61417 11.5833 2.16671V2.46879C14.6771 3.38546 16.7917 6.22921 16.7917 9.45837V15.7084L18.875 17.7917ZM11.5833 19.875C11.5833 20.4276 11.3638 20.9575 10.9731 21.3482C10.5824 21.7389 10.0525 21.9584 9.5 21.9584C8.94746 21.9584 8.41756 21.7389 8.02686 21.3482C7.63616 20.9575 7.41667 20.4276 7.41667 19.875" fill="white"/>
</svg>
