<svg width="30" height="30" viewBox="0 0 30 30" fill="none" xmlns="http://www.w3.org/2000/svg">
<path d="M24.375 2.34375H8.4375C7.31862 2.34375 6.24556 2.78822 5.45439 3.57939C4.66322 4.37056 4.21875 5.44362 4.21875 6.5625V26.25C4.21875 26.623 4.36691 26.9806 4.63063 27.2444C4.89435 27.5081 5.25204 27.6562 5.625 27.6562H22.5C22.873 27.6562 23.2306 27.5081 23.4944 27.2444C23.7581 26.9806 23.9062 26.623 23.9062 26.25C23.9062 25.877 23.7581 25.5194 23.4944 25.2556C23.2306 24.9919 22.873 24.8438 22.5 24.8438H7.03125V24.375C7.03125 24.002 7.17941 23.6444 7.44313 23.3806C7.70685 23.1169 8.06454 22.9688 8.4375 22.9688H24.375C24.748 22.9688 25.1056 22.8206 25.3694 22.5569C25.6331 22.2931 25.7812 21.9355 25.7812 21.5625V3.75C25.7812 3.37704 25.6331 3.01935 25.3694 2.75563C25.1056 2.49191 24.748 2.34375 24.375 2.34375ZM22.9688 20.1562H8.4375C7.95784 20.154 7.48163 20.2373 7.03125 20.4023V6.5625C7.03125 6.18954 7.17941 5.83185 7.44313 5.56813C7.70685 5.30441 8.06454 5.15625 8.4375 5.15625H22.9688V20.1562Z" fill="white"/>
<line x1="11" y1="10" x2="19" y2="10" stroke="white" stroke-width="2" stroke-linecap="round"/>
</svg>
