<svg width="17" height="16" viewBox="0 0 17 16" fill="none" xmlns="http://www.w3.org/2000/svg">
<path d="M9.22909 0.28646C9.42006 0.477432 9.52006 0.720487 9.52909 1.01562C9.53742 1.31076 9.4461 1.55382 9.25513 1.74479L4.15096 6.84896L15.7916 6.84896C16.0867 6.84896 16.3343 6.94896 16.5343 7.14896C16.7336 7.34826 16.8333 7.59549 16.8333 7.89063C16.8333 8.18576 16.7336 8.43333 16.5343 8.63333C16.3343 8.83264 16.0867 8.93229 15.7916 8.93229L4.15096 8.93229L9.25513 14.0365C9.4461 14.2274 9.53742 14.4705 9.52909 14.7656C9.52006 15.0608 9.42006 15.3038 9.22909 15.4948C9.03811 15.6858 8.79506 15.7812 8.49992 15.7812C8.20478 15.7812 7.96172 15.6858 7.77075 15.4948L0.895753 8.61979C0.791586 8.53299 0.717627 8.42465 0.673878 8.29479C0.630821 8.16424 0.609293 8.02951 0.609293 7.89063C0.609293 7.75174 0.630821 7.62153 0.673878 7.5C0.717627 7.37847 0.791586 7.26563 0.895753 7.16146L7.77075 0.28646C7.96172 0.0954876 8.20478 0 8.49992 0C8.79506 0 9.03811 0.0954876 9.22909 0.28646Z" fill="white"/>
</svg>
