<svg width="7" height="13" viewBox="0 0 7 13" fill="none" xmlns="http://www.w3.org/2000/svg">
<path d="M0.46875 12.1875C0.3125 12.0312 0.234375 11.8462 0.234375 11.6325C0.234375 11.4192 0.3125 11.2344 0.46875 11.0781L5.04688 6.5L0.453125 1.90625C0.307292 1.76042 0.234375 1.57812 0.234375 1.35938C0.234375 1.14063 0.3125 0.953125 0.46875 0.796875C0.625 0.640625 0.81 0.5625 1.02375 0.5625C1.23708 0.5625 1.42188 0.640625 1.57812 0.796875L6.82813 6.0625C6.89063 6.125 6.935 6.19271 6.96125 6.26562C6.98708 6.33854 7 6.41667 7 6.5C7 6.58333 6.98708 6.66146 6.96125 6.73438C6.935 6.80729 6.89063 6.875 6.82813 6.9375L1.5625 12.2031C1.41667 12.349 1.23708 12.4219 1.02375 12.4219C0.81 12.4219 0.625 12.3438 0.46875 12.1875Z" fill="white"/>
</svg>
