<?xml version="1.0" encoding="UTF-8"?>
<svg id="Layer_1" data-name="Layer 1" xmlns="http://www.w3.org/2000/svg" viewBox="0 0 1785.61 1866.2">
  <path d="m1285.95,981.68s-5.53,10.2-60.78,13.81c-40.17,2.55-203.81,6.8-261.82,4.68-13.18-.64-14.45-5.74-15.09-6.38-2.34-3.82,118.37-25.08,118.37-25.08l204.02-21.25,15.3,34.22Z" fill="#4144ad" stroke-width="0"/>
  <path d="m506.65,1661.52h-.85c-12.96-5.74-48.45-19.98-57.59-17.43-12.96,3.4-54.83,4.04-121.35-18.49-35.12-12.47-66.39-33.85-90.74-62.05-6.93-8.14-11.94-17.72-14.66-28.06-8.93-35.7-20.4-98.82,4.46-121.98,20.83-19.34,24.02-32.3,27.63-47.6,1.8-8.02,4.36-15.85,7.65-23.38,11.48-24.87,23.8-36.13,53.77-63.12l5.31-4.67c22.53-20.4,39.53-13.6,65.67-3.19,18.17,7.91,37.11,13.89,56.53,17.85,30.82,5.95,38.04,12.33,46.33,19.76,8.29,7.44,20.19,18.28,76.51,30.18,69.49,14.66,97.54,40.17,116.03,57.17,8.5,7.65,14.66,13.39,21.46,14.45,17,2.34,17.85,32.3,18.49,61.2.42,13.6.85,26.57,2.98,34.64,6.8,26.14-4.68,81.82-13.18,99.25-8.5,17.42-16.15,36.55-16.36,36.55-.06.29-.19.56-.38.79s-.42.41-.69.53c-.27.13-.56.19-.85.18-.29-.01-.58-.09-.84-.22-.5-.24-.89-.65-1.09-1.17-.2-.52-.19-1.09.03-1.6,0-.21,7.65-19.76,16.36-36.97,8.71-17.22,19.34-71.41,12.75-96.27-2.12-8.5-2.55-21.68-2.98-35.71-.64-25.92-1.49-55.25-14.66-57.16-8.29-1.07-14.88-7.02-23.8-15.3-18.28-16.79-45.69-41.87-114.33-56.32-57.17-12.11-68.43-22.1-78.42-31.03-9.99-8.92-14.45-13.17-43.99-18.91-19.77-3.92-39.07-9.9-57.59-17.85-26.14-10.63-40.59-16.37-61.21,2.12l-5.31,4.89c-29.33,26.56-41.65,37.61-52.7,61.84-3.18,7.24-5.6,14.79-7.22,22.53-3.83,15.09-7.23,29.54-29.12,49.73-21.89,20.19-9.99,89.89-2.98,117.73,2.36,9.68,7.03,18.65,13.6,26.14,23.86,27.69,54.56,48.65,89.04,60.78,65.45,22.31,106.26,21.68,118.58,18.28,12.33-3.4,55.68,15.51,60.57,17.85.5.23.89.65,1.09,1.16.2.52.19,1.09-.03,1.6-.16.37-.43.69-.77.92-.34.22-.74.35-1.14.36Z" fill="#83c3e5" stroke-width="0"/>
  <path d="m751.68,1717.62l-92.87-4.46-26.14-72.68,1.91-.64c.85-.43,24.44-9.99,33.58-8.93,9.14,1.07,61.63,25.29,79.06,37.19,17.43,11.9,5.74,46.76,5.1,48.24l-.64,1.28Zm-89.9-8.5l87.13,4.25c2.12-6.38,9.78-32.09-4.04-41.65-17.85-12.33-69.7-35.71-77.36-36.56-7.65-.85-21.89,4.89-29.54,7.87l23.8,66.09Z" fill="#83c3e5" stroke-width="0"/>
  <path d="m699.83,1677.67c-7.44,0-14.24-.22-17.43-1.49-7.44-2.55-29.54-2.13-33.58-.85-.21.34-.51.62-.88.8-.36.18-.77.25-1.17.2-.4-.04-.78-.2-1.1-.45-.32-.26-.55-.59-.68-.98-.2-.43-.24-.92-.12-1.38.12-.46.38-.87.76-1.17,3.4-3.4,30.6-2.97,38.04-.21,7.44,2.76,36.98.85,48.03,0,.28-.06.58-.06.86,0,.28.07.55.2.77.39.23.18.41.41.53.68.12.26.18.55.17.84-.03.55-.23,1.07-.57,1.49-.34.42-.81.72-1.34.85-2.76.21-18.7,1.28-32.3,1.28Z" fill="#83c3e5" stroke-width="0"/>
  <path d="m568.71,1732.07c-17.43,0-31.03-7.01-43.35-13.18-5.67-3.07-11.57-5.69-17.64-7.86-2.92-.96-5.36-3.02-6.8-5.74-7.65-15.09,5.52-54.61,17-89.25,2.55-7.65,4.89-14.88,6.8-21.25,8.71-28.48,16.79-29.97,28.9-28.91,3.52.54,7.1.54,10.63,0,16.36-3.18,43.14,6.17,50.37,28.91,7.22,22.73,22.31,45.47,22.53,45.69.27.49.35,1.06.23,1.6-.12.55-.42,1.03-.87,1.37-.24.16-.5.27-.78.32-.28.05-.57.05-.84-.01-.28-.06-.54-.17-.77-.34-.23-.16-.43-.37-.58-.61-.64-1.06-16.58-25.92-22.95-46.75-6.38-20.83-30.82-28.9-45.48-26.14-3.92.81-7.96.88-11.9.21-9.56-.85-15.94-1.27-24.44,25.72-1.91,6.59-4.25,13.81-6.8,21.46-10.84,32.3-24.01,72.47-17.21,85.86.42.88,1.01,1.68,1.74,2.34.73.65,1.58,1.16,2.51,1.48,6.32,2.16,12.43,4.86,18.28,8.08,14.66,7.44,31.24,15.94,54.4,11.48l24.01-4.47c23.59-4.25,43.99-8.07,53.55-12.75.25-.15.53-.24.81-.28.29-.04.58-.02.86.06.28.08.54.22.76.4.22.19.41.41.54.67.23.54.24,1.14.05,1.7-.2.55-.59,1-1.11,1.28-9.99,4.88-30.82,8.71-54.62,12.96l-24.01,4.46c-4.54,1-9.17,1.5-13.81,1.49Z" fill="#83c3e5" stroke-width="0"/>
  <path d="m604.83,1712.31c-.55-.05-1.06-.29-1.45-.68-.39-.39-.63-.9-.68-1.45,0-1.91-.42-17.85-14.88-42.5-9.35-15.94-3.61-28.48.85-37.62,2.34-5.1,4.25-9.56,3.4-12.96-3.23-9.92-7.65-19.41-13.18-28.27-.2-.2-.35-.46-.44-.73-.09-.28-.11-.57-.07-.86.04-.28.15-.56.31-.8s.38-.44.63-.58c.42-.36.98-.54,1.53-.5.56.04,1.08.29,1.44.71,1.49,2.34,10.41,17.64,13.81,29.75,1.49,5.1-1.06,10.42-3.61,15.94-4.46,9.35-9.35,19.77-1.06,33.79,15.09,25.51,15.51,42.72,15.51,44.63,0,.57-.22,1.11-.62,1.5-.4.4-.94.63-1.5.63Z" fill="#83c3e5" stroke-width="0"/>
  <path d="m705.78,1589.68h-.85c-1.27-.63-7.22-.63-12.96-.85-18.28-.63-45.9-1.48-58.02-10.2-16.58-12.32-96.06-44.2-111.36-43.14-15.3,1.07-49.73-1.06-90.32-28.47-32.09-21.68-44.63-23.59-69.92-27.63l-20.4-3.61c-34.21-6.38-94.36-23.38-111.78-64.61-.1-.26-.15-.55-.14-.83,0-.28.08-.56.19-.82.12-.26.29-.49.5-.68.21-.19.46-.34.72-.43.51-.22,1.08-.23,1.6-.03.51.2.93.59,1.17,1.09,17.21,40.8,81.61,57.17,108.38,62.27l20.61,3.4c24.86,4.04,38.68,6.16,71.4,28.26,39.53,26.78,71.83,28.91,87.77,27.84h.85c19.34,0,97.97,32.52,113.27,43.78,11.05,8.08,38.89,8.93,55.47,9.56,9.14.22,13.18.43,14.88,1.28.25.11.47.27.66.48.18.2.32.44.4.71.08.26.1.54.07.81-.04.27-.13.53-.27.76-.19.34-.47.61-.81.8-.34.19-.72.28-1.1.26Z" fill="#83c3e5" stroke-width="0"/>
  <path d="m317.51,1417.55c-2.2,0-4.31-.88-5.86-2.43-1.55-1.55-2.43-3.66-2.43-5.86-.19-1.22-.12-2.46.21-3.64.33-1.18.92-2.28,1.72-3.22.8-.93,1.79-1.68,2.91-2.2,1.12-.51,2.33-.78,3.56-.78s2.44.27,3.56.78c1.12.52,2.11,1.27,2.91,2.2.8.94,1.38,2.04,1.72,3.22.33,1.18.4,2.42.21,3.64,0,1.11-.22,2.2-.65,3.22s-1.06,1.94-1.85,2.72c-.79.77-1.73,1.37-2.76,1.78-1.03.4-2.13.6-3.24.57Zm0-12.54c-1.09.05-2.12.52-2.87,1.32-.75.79-1.17,1.84-1.17,2.93.05,1.05.49,2.05,1.24,2.8.75.74,1.74,1.19,2.8,1.24.62.14,1.27.14,1.89,0,.62-.15,1.2-.43,1.7-.82.5-.4.9-.91,1.18-1.48.28-.58.42-1.21.42-1.85s-.14-1.27-.42-1.84c-.28-.58-.68-1.08-1.18-1.48s-1.08-.68-1.7-.82c-.62-.14-1.27-.14-1.89,0Z" fill="#83c3e5" stroke-width="0"/>
  <path d="m332.17,1441.56c-1.77-.05-3.44-.79-4.67-2.06-1.23-1.27-1.92-2.97-1.92-4.74-.18-.98-.13-1.98.12-2.94.26-.97.72-1.86,1.36-2.62.64-.76,1.44-1.38,2.34-1.8.9-.42,1.88-.64,2.88-.64s1.98.22,2.88.64c.9.42,1.7,1.04,2.34,1.8.64.76,1.1,1.65,1.36,2.62.26.96.3,1.96.12,2.94,0,.89-.18,1.78-.52,2.6-.34.83-.84,1.58-1.47,2.21-.63.63-1.38,1.13-2.21,1.47-.83.35-1.71.52-2.6.52Zm0-9.35c-.32,0-.65.07-.95.2-.3.13-.57.32-.79.56s-.39.52-.49.83c-.1.31-.14.64-.11.96,0,.64.24,1.26.67,1.73.43.48,1.03.77,1.67.82.34,0,.67-.06.98-.19.31-.13.59-.32.83-.56.24-.23.42-.51.55-.82.13-.31.19-.64.19-.98,0-.68-.27-1.32-.75-1.8-.48-.48-1.13-.75-1.8-.75Z" fill="#83c3e5" stroke-width="0"/>
  <path d="m530.24,1661.52c-1.97,0-3.86-.79-5.26-2.18-1.4-1.4-2.18-3.29-2.18-5.26s.78-3.87,2.18-5.26c1.39-1.4,3.29-2.18,5.26-2.18s3.86.78,5.26,2.18c1.39,1.39,2.18,3.28,2.18,5.26s-.78,3.86-2.18,5.26c-1.4,1.39-3.29,2.18-5.26,2.18Zm0-10.63c-.84,0-1.66.34-2.25.93-.6.6-.93,1.41-.93,2.26s.34,1.65.93,2.25c.6.6,1.41.94,2.25.94s1.66-.34,2.25-.94c.6-.6.93-1.41.93-2.25s-.34-1.66-.93-2.26c-.6-.59-1.41-.93-2.25-.93Z" fill="#83c3e5" stroke-width="0"/>
  <path d="m371.28,1709.76c-39.95,0-78.63-3.83-83.73-5.32l-5.31-1.06c-8.29-1.7-18.7-3.82-21.25-12.11-2.55-8.29,3.83-21.25,19.98-38.68,32.51-34.85,70.13-25.71,103.28-17.64,13.39,3.19,26.14,6.38,37.4,6.16,11.26-.21,19.34,3.19,26.14,9.99,14.24,14.67,13.81,39.53,13.81,40.59v.64l-.42.64c-10.2,13.17-50.58,16.79-89.89,16.79Zm-33.15-78c-18.49,0-36.98,5.53-53.98,23.8-17,18.28-21.25,27.63-19.13,34.22,2.13,6.59,10.84,7.86,18.06,9.35l5.53,1.28c10.2,2.76,148.55,13.38,168.74-9.57,0-4.04-.85-24.86-12.54-36.76-3.04-2.99-6.67-5.31-10.66-6.81-3.99-1.5-8.25-2.15-12.5-1.91-11.9.22-24.65-2.97-38.46-6.37-13.81-3.4-29.75-7.23-45.05-7.23Z" fill="#83c3e5" stroke-width="0"/>
  <path d="m483.27,1690.21c-9.78,0-20.83-.86-25.08-4.47-.24-.16-.43-.37-.57-.62-.14-.25-.23-.53-.25-.81-.02-.29.02-.58.13-.84.11-.27.27-.51.48-.7.34-.45.84-.75,1.4-.83.56-.08,1.12.06,1.58.4,4.89,4.46,26.99,4.04,39.74,2.76.54.03,1.06.23,1.48.58.42.34.72.81.86,1.34.03.28,0,.56-.08.83-.08.27-.21.52-.39.73-.18.22-.4.4-.64.53-.25.14-.52.22-.8.24-1.7.22-9.35.86-17.85.86Z" fill="#83c3e5" stroke-width="0"/>
  <path d="m201.48,1701.04c-58.87,0-139.62-5.73-163.64-12.96-36.77-10.84-34.43-66.52-33.15-96.48v-4.25c1.06-30.82,37.19-60.99,82.03-68.43,44.84-7.44,124.32-46.97,125.17-47.39.51-.22,1.08-.23,1.6-.03.52.2.93.59,1.17,1.09.15.23.24.49.27.76.04.28.01.55-.07.81-.08.27-.22.51-.4.71-.18.21-.41.37-.66.48-.85.43-79.91,39.74-126.45,47.61-46.54,7.86-77.57,39.31-78.42,64.6v4.25c-1.28,28.69-3.4,82.24,30.18,92.23,39.53,11.9,208.69,17.64,223.35,7.65.24-.15.5-.26.78-.32.28-.05.57-.05.84.01.28.06.54.18.77.34.23.16.43.37.58.61.15.22.26.47.31.73.05.26.05.53-.01.79-.06.26-.17.51-.33.72-.16.21-.36.39-.6.52-6.16,4.25-31.45,5.95-63.33,5.95Z" fill="#83c3e5" stroke-width="0"/>
  <path d="m222.94,1650.68h-.85l-10.84-3.19c-39.74-11.69-160.02-47.18-190.2-92.66-.16-.23-.26-.5-.32-.78-.05-.28-.05-.56.01-.84.06-.28.17-.54.34-.77.16-.23.37-.43.61-.58.49-.27,1.06-.35,1.6-.23.55.11,1.03.42,1.37.86,29.12,44,148.55,79.27,187.65,90.75,6.38,1.91,10.2,2.97,11.48,3.61.5.23.89.65,1.09,1.17.2.51.19,1.09-.03,1.59-.17.36-.45.65-.79.84-.34.19-.73.27-1.12.23Z" fill="#83c3e5" stroke-width="0"/>
  <path d="m68.23,1527.84h-.64c-.28-.04-.54-.15-.78-.31-.23-.16-.43-.37-.57-.61-.14-.25-.23-.52-.25-.8-.02-.28.01-.56.11-.83.85-2.97,21.68-74.59,45.69-96.48,19.98-18.06,49.52-5.74,62.06-.42,1.62.84,3.33,1.48,5.1,1.91.52.01,1.02.18,1.43.48.42.31.73.73.9,1.22.06.28.07.57.01.85-.05.28-.16.55-.32.79-.16.23-.36.44-.6.59-.24.16-.51.27-.79.32-1.27.42-2.76-.21-7.44-2.34-11.9-4.89-39.53-16.58-57.38-.21-23.17,21.04-44.42,93.72-44.63,94.57-.16.37-.43.69-.77.92-.34.22-.74.35-1.14.35Z" fill="#83c3e5" stroke-width="0"/>
  <path d="m148.77,1504.04h-1.28c-23.59-16.58-26.56-48.24-26.78-49.73.03-.54.23-1.06.57-1.48.34-.42.81-.72,1.34-.86.3-.03.6.01.88.1.28.09.54.25.76.45.22.2.4.44.52.71.12.28.18.57.18.87,0,.21,2.98,31.03,25.08,46.33.45.34.75.84.83,1.4.08.56-.07,1.12-.4,1.57-.21.24-.47.43-.77.54-.3.11-.62.14-.93.1Z" fill="#83c3e5" stroke-width="0"/>
  <path d="m203.82,1480.03c-.33.02-.67-.05-.96-.2-.3-.15-.55-.38-.74-.65-1.91-2.55-43.14-64.18-34.43-99.89,6.38-26.35,23.59-59.08,35.07-80.75,3.83-7.65,6.8-13.39,8.29-16.79,2.86-5.51,6.28-10.7,10.2-15.51,5.95-8.08,12.96-17.22,11.9-22.32-.11-.62-.36-1.21-.73-1.73-.37-.51-.85-.94-1.4-1.24-32.06-20.79-66.17-38.24-101.79-52.07-22.95-8.93-31.45-12.11-28.9-29.33,4.46-29.75,30.6-76.5,38.46-86.7.64-.64,1.91-2.55,3.82-1.49,1.91,1.06,1.91,2.55-4.46,20.4-6.38,17.85-15.09,42.5-13.18,50.37,1.91,7.86,43.78,30.39,77.36,48.24,20.83,11.05,40.38,21.46,53.13,29.54,2.52,1.44,4.71,3.4,6.43,5.74,1.72,2.34,2.93,5.02,3.55,7.86,2.98,15.09-11.26,35.06-27.84,58.02-16.58,22.95-30.39,42.71-34.21,62.9-9.78,50.15,4.89,69.92,15.09,73.74.32.04.64.15.91.32.27.18.51.41.68.69.17.28.27.59.3.92.03.32-.02.65-.14.96-.12.3-.3.57-.55.79-.24.22-.53.39-.84.48-.31.09-.64.11-.96.05-.32-.06-.62-.19-.89-.38-11.48-4.25-28.27-25.5-17.85-78.42,4.04-21.04,19.76-43.14,35.07-64.39,15.3-21.25,29.54-41.44,26.99-54.83-.47-2.26-1.42-4.39-2.77-6.26s-3.09-3.43-5.09-4.58c-12.75-8.08-32.3-18.49-52.92-29.54-46.54-24.65-77.36-41.65-79.48-51-2.13-9.35,5.1-29.54,13.18-52.71.85-1.91,1.49-4.04,2.12-5.95-10.41,17.64-28.26,52.71-31.66,75.87-1.91,13.39,2.98,15.73,26.14,24.86,19.76,7.66,53.13,20.83,102.65,52.28,1.05.61,1.96,1.43,2.66,2.42.7,1,1.17,2.13,1.38,3.32,1.27,7.01-5.95,16.58-12.75,25.72-3.67,4.56-6.87,9.47-9.56,14.66-1.49,3.4-4.68,9.35-8.71,17-10.63,20.19-28.26,53.98-34.64,79.69-8.29,34.01,33.36,96.06,33.79,96.7.29.47.41,1.02.33,1.56-.08.55-.35,1.05-.75,1.41l-1.27.22Z" fill="#83c3e5" stroke-width="0"/>
  <path d="m392.74,1239.46h-.64c-.56-.07-1.09-.32-1.5-.7s-.71-.88-.83-1.43c-.42-2.76-2.76-11.9-7.65-14.66-1.03-.48-2.16-.72-3.29-.72s-2.26.24-3.29.72c-10.2,4.04-27.63,4.04-39.95-3.61-4.14-2.66-7.59-6.26-10.07-10.51-2.48-4.24-3.9-9.02-4.17-13.93v-.43c-39.1-5.95-56.95,34.22-57.8,35.92-.07.3-.21.58-.41.82-.2.24-.44.44-.72.57-.28.14-.58.21-.89.22-.31,0-.62-.06-.9-.18-.28-.13-.54-.32-.74-.55-.2-.23-.35-.51-.44-.81-.09-.3-.11-.61-.06-.92.05-.3.16-.59.34-.85.21-.43,19.98-45.06,62.69-38.47,1.27-4.25,5.31-14.24,15.3-19.34,9.99-5.1,19.13-4.25,31.45.85,19.34,8.08,31.03,18.49,34.85,31.24,3.82,12.75,0,22.96-8.93,35.71-.61.64-1.45,1.02-2.34,1.06Zm-13.81-21.68c1.78-.03,3.54.41,5.1,1.28,5.1,2.76,7.86,9.35,9.14,14.24,7.01-10.63,9.14-20.41,6.59-29.33-2.55-8.93-14.03-21.04-32.3-28.48-11.05-4.67-20.4-5.1-27.84-1.06-7.44,4.04-13.6,18.28-13.6,18.49l-.42,1.27c.85,9.57,4.89,16.58,12.33,21.25,11.69,7.44,28.27,6.38,36.13,3.19,1.57-.57,3.22-.86,4.89-.85Z" fill="#83c3e5" stroke-width="0"/>
  <path d="m378.72,1206.09h-1.06c-9.14-4.46-35.07-14.45-43.99-9.56-.51.28-1.11.35-1.66.19-.56-.16-1.03-.53-1.31-1.04-.28-.51-.35-1.1-.19-1.66.16-.56.53-1.03,1.04-1.31,12.54-6.81,44.42,7.86,48.03,9.35.52.27.91.73,1.11,1.28.2.55.18,1.15-.05,1.69-.22.31-.51.56-.84.75-.33.18-.7.29-1.08.31Z" fill="#83c3e5" stroke-width="0"/>
  <path d="m102.45,1154.88h-.85c-.42-.21-43.57-17.85-65.67-.43-.19.27-.44.49-.73.65-.29.16-.61.24-.94.25-.33.01-.66-.05-.96-.19-.3-.14-.56-.35-.77-.6-.21-.26-.35-.56-.42-.89-.07-.32-.06-.65.02-.97.08-.32.24-.62.45-.86.22-.25.49-.45.79-.58,24.01-19.12,68-1.06,69.7-.42.42.19.76.52.98.93.22.41.3.87.22,1.33-.07.46-.29.88-.62,1.2-.33.32-.76.52-1.22.58Z" fill="#83c3e5" stroke-width="0"/>
  <path d="m44,1172.73c-7.99-.03-15.83-2.16-22.74-6.16l-19.13-10.84c-.94-.58-1.64-1.48-1.95-2.54-.31-1.06-.22-2.2.25-3.2,1.7-3.61,6.38-11.05,18.91-21.04,6.8-5.31,15.94-7.22,26.78-5.52,15.94,2.76,31.24,12.96,36.13,20.61.16.24.26.5.32.78.05.28.05.56,0,.84-.06.28-.17.54-.34.77-.16.24-.37.43-.61.58.31.34.53.75.64,1.2.11.44.11.91,0,1.35-3.09,6.02-7.58,11.2-13.09,15.12-5.51,3.92-11.88,6.46-18.57,7.41l-6.59.64Zm-5.53-45.69c-5.87-.19-11.64,1.61-16.36,5.1-12.33,9.99-16.58,17-17.85,19.55l19.13,11.05c7.92,4.73,17.22,6.6,26.35,5.31,6-.88,11.71-3.17,16.66-6.67,4.95-3.51,9-8.14,11.82-13.52.24-.45.61-.82,1.06-1.06-.11,0-.22-.04-.3-.12-.08-.08-.12-.19-.12-.3-4.46-7.02-18.91-16.15-33.37-18.7-2.31-.45-4.66-.66-7.01-.64Z" fill="#83c3e5" stroke-width="0"/>
  <path d="m97.56,1090.49c-9.8.25-19.37-2.99-26.99-9.14-10.2-8.08-13.81-19.55-12.33-24.44.1-.61.38-1.17.79-1.62.41-.45.95-.78,1.54-.93,1.09-.43,2.31-.43,3.4,0,4.04,2.12,19.13,8.29,39.95,1.06,14.45-5.31,24.23.43,29.96,6.16,2.67,2.81,4.95,5.95,6.8,9.35,4.04-9.56,2.97-24.22-8.29-38.67-7.01-9.14-16.36-14.24-24.01-18.49l-2.12-1.28c-17-9.56-28.48-11.47-51.22-8.92-.28.06-.58.06-.86-.01-.28-.06-.55-.19-.77-.38-.23-.18-.41-.42-.53-.68-.12-.27-.18-.55-.17-.85-.06-.53.08-1.07.39-1.5.32-.43.78-.73,1.31-.83,23.59-2.55,36.34-.43,53.98,9.56l2.12,1.06c7.44,4.25,17.85,9.99,25.29,19.77,14.03,18.06,13.39,36.76,6.38,47.17l-2.34,3.62-.64-2.13c-17.21,8.93-30.82,12.12-41.65,12.12Zm-35.28-32.09c-.64,2.76,1.91,12.32,10.84,19.76,8.93,7.44,29.75,14.24,64.39-3.83-2.76-5.95-12.33-22.1-32.09-14.87-19.76,7.22-37.19,1.91-43.14-1.06Z" fill="#83c3e5" stroke-width="0"/>
  <path d="m108.82,1039.06c-17.85,0-43.78-4.47-75.23-21.04-20.19-10.84-31.45-21.25-33.15-31.24-.42-2.53-.24-5.11.54-7.55.78-2.44,2.12-4.66,3.92-6.48.67-.73,1.49-1.3,2.41-1.67.92-.37,1.91-.52,2.9-.45,2,.21,3.83,1.2,5.1,2.76,1.7,2.76,9.56,8.29,43.99,3.82,34.43-4.46,58.87-6.58,71.62,7.23,8.29,8.93,9.99,24.01,5.31,46.97-.42,1.48-1.7,2.76-4.25,4.03-2.55,1.28-11.48,3.62-23.16,3.62Zm-99.03-64.18c-.33-.02-.67.05-.96.2-.3.14-.55.37-.74.65-1.38,1.32-2.4,2.96-3,4.78-.59,1.82-.73,3.75-.4,5.63.85,5.74,7.23,15.51,31.03,28.05,53.34,28.27,93.51,20.62,96.27,16.15,4.46-21.04,2.98-35.27-4.25-43.14-11.48-12.11-37.4-9.77-67.79-5.95-27.2,3.61-43.35,1.7-48.24-5.31-.16-.32-.4-.59-.7-.77-.3-.19-.65-.29-1-.29h-.21Z" fill="#83c3e5" stroke-width="0"/>
  <path d="m146.01,1059.46c-.47,0-.93-.17-1.28-.49-.35-.31-.58-.74-.63-1.21-.13-.54-.05-1.1.23-1.58.28-.47.73-.82,1.26-.97,8.16-1.89,16.12-4.52,23.8-7.87,2.81-1.47,5.45-3.25,7.86-5.31,10.2-7.65,24.01-18.06,46.33-11.9.28.05.54.15.78.31.23.16.43.37.57.61.14.25.23.52.25.8.02.28-.01.57-.11.83-.04.28-.15.54-.31.78-.16.23-.37.42-.61.57-.24.14-.52.23-.8.25-.28.02-.56-.01-.83-.11-20.4-5.53-33.36,4.25-42.72,11.26-2.68,2.13-5.52,4.05-8.5,5.74-7.98,3.42-16.23,6.19-24.65,8.29h-.64Z" fill="#83c3e5" stroke-width="0"/>
  <path d="m164.07,1054.14c-.28.01-.56-.04-.81-.15-.26-.11-.49-.27-.67-.48-.43-.43-9.56-9.78-7.44-20.62,2.12-10.83,8.71-14.45,20.83-19.34,35.49-14.02,59.29,5.74,76.51,20.41l1.7,1.27c.42.37.68.89.72,1.45.04.55-.14,1.1-.5,1.53-.34.45-.84.75-1.4.83-.56.07-1.12-.07-1.58-.41l-1.49-1.49c-17.64-14.66-39.32-32.72-72.26-19.55-10.84,4.25-17,9.78-18.28,16.15-1.27,6.38,5.95,16.58,6.16,16.58.27.32.45.71.52,1.12.07.42.02.84-.13,1.23-.15.4-.41.74-.74,1-.33.26-.73.42-1.14.47Z" fill="#83c3e5" stroke-width="0"/>
  <path d="m198.5,1060.52c-11.97-.25-23.84-2.19-35.28-5.74-.29-.07-.55-.2-.79-.38-.23-.18-.43-.41-.57-.67-.14-.26-.22-.55-.25-.84-.02-.3.02-.59.11-.87.09-.27.24-.51.43-.72.19-.21.42-.38.68-.5.26-.12.54-.18.82-.19.28-.01.56.03.83.13.42.22,40.38,12.76,57.59-.42,17.21-13.18,28.9-15.51,29.33-15.51.28-.03.56-.01.83.07.27.08.52.22.74.39.22.18.4.4.53.65.13.25.21.52.24.8.07.28.06.58,0,.86-.07.29-.2.55-.38.78-.18.22-.42.4-.68.52-.27.12-.55.18-.85.18,0,0-9.56,1.06-26.99,14.45-7.01,5.31-16.58,7.01-26.35,7.01Z" fill="#83c3e5" stroke-width="0"/>
  <path d="m466.91,1407.56l189.35-186.59c3.91-3.89,9.17-6.11,14.68-6.18,5.51-.08,10.84,1.98,14.86,5.75l11.9,10.84c2.07,1.93,3.74,4.24,4.91,6.81,1.17,2.57,1.83,5.34,1.93,8.17.1,2.82-.36,5.64-1.35,8.28-.99,2.65-2.5,5.07-4.43,7.13l-135.59,145.79h-96.27Z" fill="#940113" stroke-width="0"/>
  <path d="m942.65,1408.83l-189.36-186.8c-3.97-3.85-9.26-6.04-14.79-6.12-5.53-.08-10.88,1.96-14.96,5.7l-11.69,11.05c-2.07,1.92-3.74,4.23-4.91,6.8-1.17,2.57-1.83,5.35-1.93,8.17-.1,2.83.36,5.64,1.35,8.29.99,2.64,2.49,5.07,4.42,7.13l135.37,145.78h96.49Z" fill="#940113" stroke-width="0"/>
  <path d="m1336.53,509.26s107.32,221.87,134.94-42.93c3.62-35.92,11.69-62.27,15.3-114.12l69.71,38.89s-19.98,603.12-303.47,183.83c17.78-3.69,34.54-11.23,49.09-22.1,14.66-11.48,31.66-23.16,34.43-43.57Z" fill="#f4bb8e" stroke-width="0"/>
  <path d="m1337.38,524.98s-48.25,37.83-84.37,49.73l10.41,15.3s60.14-22.95,73.96-65.03Z" fill="#e49d65" stroke-width="0"/>
  <path d="m1218.37,158.39c4.93.63,9.5,2.94,12.93,6.54,3.44,3.6,5.53,8.27,5.93,13.23s-.92,9.9-3.74,14.01c-2.81,4.1-6.95,7.11-11.72,8.52,4.03,5.4,6.21,11.96,6.21,18.7s-2.18,13.3-6.21,18.7c23.59,34,10.83,87.13-25.29,106.68-5.53,2.98-11.69,5.31-17.85,4.68-6.17-.64-59.93,12.11-61,5.95-1.06-6.16,51.86-30.18,56.32-35.49,32.09-38.46,39.32-95.63,18.06-141.11-2.55-5.1-5.31-10.62-4.67-16.36.64-5.74,7.22-11.05,12.11-8.29l18.92,4.25Z" fill="#46003d" stroke-width="0"/>
  <path d="m1082.57,366.87l-81.82-17.43c-8.31-1.63-16.07-5.36-22.53-10.84-6.37-5.52-11.9-12.33-12.32-19.13-.19-2.61-1.3-5.06-3.13-6.93-1.83-1.87-4.26-3.03-6.86-3.27-17-1.49-31.67-9.99-39.32-25.5-7.65-15.51-3.4-38.89,10.42-51.43,1.74-1.61,2.94-3.72,3.44-6.04.49-2.32.26-4.74-.68-6.92-2.55-5.45-3.89-11.39-3.93-17.4-.03-6.02,1.23-11.97,3.72-17.45,3.27-6.78,8.36-12.52,14.7-16.57,6.34-4.05,13.69-6.26,21.21-6.38,19.34.21,36.13,15.3,44.63,32.94,8.5,17.64,10.63,37.19,13.81,56.53,3.19,19.34,7.87,38.89,20.41,53.98,7.43,8.92,17.42,15.73,25.5,24.23,8.07,8.5,13.81,20.83,10.41,32.09l2.34,5.53Z" fill="#46003d" stroke-width="0"/>
  <path d="m1134,344.77s-4.68,25.71,5.52,30.82c10.2,5.1,34.64,9.35,34.64,9.35,0,0-30.81,30.18-56.31,33.58-19.77,2.76-39.11,2.12-62.7-12.11-23.59-14.24-28.26-25.5-28.26-25.5,0,0,49.3-.85,49.94-9.99.64-9.14-.21-21.46-.21-21.46l57.38-4.68Z" fill="#f4bb8e" stroke-width="0"/>
  <path d="m1086.18,351.14h37.4c40.38,0,93.09-25.29,93.09-65.67.02-37.67-7.05-75.02-20.83-110.08-19.55-49.3-42.93-97.97-72.26-97.97h-37.4c-19.39,0-37.98,7.7-51.69,21.41-13.71,13.71-21.41,32.31-21.41,51.69l-18.71,144.09c0,40.38,51.43,56.53,91.81,56.53Z" fill="#f4bb8e" stroke-width="0"/>
  <path d="m1094.47,894.97h-107.53v733.8h107.53v-733.8Z" fill="#f4bb8e" stroke-width="0"/>
  <path d="m1218.37,894.97h-107.54v724.42h107.54v-724.42Z" fill="#f4bb8e" stroke-width="0"/>
  <path d="m1094.47,1461.11h-107.53v160.28h107.53v-160.28Z" fill="#7f4bbc" stroke-width="0"/>
  <path d="m1218.37,1461.11h-107.54v160.28h107.54v-160.28Z" fill="#571f9a" stroke-width="0"/>
  <path d="m1007.34,231.92s-12.97-41.02-35.07-16.58c-15.3,17,4.68,36.98,6.17,45.48,6.8,36.55,28.26,20.61,28.26,20.61l.64-49.52Z" fill="#f4bb8e" stroke-width="0"/>
  <path d="m1214.12,157.33c-24.23,2.76-46.54-5.52-69.5-17.85-2.97-1.58-6.37-2.16-9.7-1.66-3.32.5-6.4,2.05-8.79,4.43-23.16,23.38-51.21,31.03-85.43,38.68-15.09,3.4-25.71,1.28-40.59,4.68-14.87,3.4-38.89,12.75-53.34,4.68-5.79-3.19-10.53-8.01-13.62-13.85-3.1-5.85-4.42-12.46-3.82-19.05.61-6.59,3.13-12.85,7.25-18.03,4.11-5.18,9.65-9.04,15.93-11.12.72-.3,1.36-.78,1.84-1.39.48-.62.79-1.35.9-2.12.1-.77.01-1.57-.29-2.29-.29-.72-.77-1.36-1.39-1.84-24.23-16.58-33.15-54.19-15.72-78.63,17.42-24.44,53.76-27.84,77.35-12.11,2.95,2.03,6.56,2.87,10.1,2.36,3.55-.51,6.77-2.34,9.03-5.12,16.15-20.19,43.78-31.03,69.28-25.71,25.5,5.31,51,31.45,54.61,59.93.08.81.32,1.6.71,2.32.38.72.91,1.35,1.54,1.87.63.51,1.36.9,2.14,1.13.79.23,1.6.3,2.41.22,11.08-1.51,22.36.38,32.34,5.44,9.97,5.06,18.17,13.03,23.5,22.86,5.33,9.83,7.54,21.05,6.34,32.17-1.21,11.12-5.77,21.6-13.08,30.06Z" fill="#46003d" stroke-width="0"/>
  <path d="m1073.64,315.23c.22-9.35,31.03-20.19,47.18-13.81,19.55,7.65,30.39,14.03,24.23,19.98-6.16,5.95-24.23-10.2-39.53-10.2s-32.09,11.05-31.88,4.04Z" fill="#fff" stroke-width="0"/>
  <g opacity=".4">
    <path d="m1022.64,1624.75c-.85,0-1.66-.34-2.25-.93-.6-.6-.94-1.41-.94-2.26v-154.28c0-.85.34-1.66.94-2.26.59-.6,1.4-.93,2.25-.93s1.66.33,2.25.93c.6.6.94,1.41.94,2.26v154.28c0,.85-.34,1.66-.94,2.26-.59.59-1.41.93-2.25.93Z" fill="#fff" isolation="isolate" opacity=".4" stroke-width="0"/>
  </g>
  <g opacity=".4">
    <path d="m1049.84,1624.75c-.84,0-1.65-.34-2.25-.93-.6-.6-.94-1.41-.94-2.26v-154.28c0-.85.34-1.66.94-2.26.6-.6,1.41-.93,2.25-.93s1.66.33,2.26.93c.59.6.93,1.41.93,2.26v154.28c0,.85-.34,1.66-.93,2.26-.6.59-1.41.93-2.26.93Z" fill="#fff" isolation="isolate" opacity=".4" stroke-width="0"/>
  </g>
  <g opacity=".4">
    <path d="m1077.04,1624.75c-.84,0-1.65-.34-2.25-.93-.6-.6-.93-1.41-.93-2.26v-154.28c0-.85.33-1.66.93-2.26.6-.6,1.41-.93,2.25-.93s1.66.33,2.26.93.93,1.41.93,2.26v154.28c0,.85-.33,1.66-.93,2.26-.6.59-1.41.93-2.26.93Z" fill="#fff" isolation="isolate" opacity=".4" stroke-width="0"/>
  </g>
  <g opacity=".4">
    <path d="m1145.26,1624.75c-.84,0-1.66-.34-2.25-.93-.6-.6-.94-1.41-.94-2.26v-154.28c0-.85.34-1.66.94-2.26.59-.6,1.41-.93,2.25-.93s1.66.33,2.25.93c.6.6.94,1.41.94,2.26v154.28c0,.85-.34,1.66-.94,2.26-.59.59-1.4.93-2.25.93Z" fill="#fff" isolation="isolate" opacity=".4" stroke-width="0"/>
  </g>
  <g opacity=".4">
    <path d="m1119.97,1624.75c-.84,0-1.65-.34-2.25-.93-.6-.6-.94-1.41-.94-2.26v-154.28c0-.85.34-1.66.94-2.26.6-.6,1.41-.93,2.25-.93s1.66.33,2.26.93c.59.6.93,1.41.93,2.26v154.28c0,.85-.34,1.66-.93,2.26-.6.59-1.41.93-2.26.93Z" fill="#fff" isolation="isolate" opacity=".4" stroke-width="0"/>
  </g>
  <g opacity=".4">
    <path d="m1175.44,1624.33c-.85,0-1.66-.34-2.26-.94-.59-.6-.93-1.41-.93-2.25v-154.08c0-.84.34-1.65.93-2.25.6-.6,1.41-.93,2.26-.93s1.65.33,2.25.93.94,1.41.94,2.25v154.08c0,.84-.34,1.65-.94,2.25s-1.41.94-2.25.94Z" fill="#fff" isolation="isolate" opacity=".4" stroke-width="0"/>
  </g>
  <g opacity=".4">
    <path d="m1200.73,1624.75c-.85,0-1.66-.34-2.26-.93-.59-.6-.93-1.41-.93-2.26v-154.28c0-.85.34-1.66.93-2.26.6-.6,1.41-.93,2.26-.93s1.65.33,2.25.93c.6.6.94,1.41.94,2.26v154.28c0,.85-.34,1.66-.94,2.26-.6.59-1.41.93-2.25.93Z" fill="#fff" isolation="isolate" opacity=".4" stroke-width="0"/>
  </g>
  <path d="m1357.14,1707.42c-32.52-32.09-92.23-84.16-142.81-90.75l-167.04,2.34s-24.01,49.52-30.6,93.51c-2.55,17.43,8.92,33.36,23.8,32.73l309-11.48c11.69-.42,16.57-17.64,7.65-26.35Z" fill="#9c410e" stroke-width="0"/>
  <path d="m1265.33,1715.71c-33.36-34.22-94.78-89.9-146.85-96.91l-126.23.42c-4.06.07-8.06.98-11.75,2.66-3.69,1.68-7,4.1-9.71,7.12-15.52,17.43-46.33,56.1-51.22,90.96-2.76,18.49-1.49,31.24,13.81,30.6l324.3-6.59c11.9-.42,17-18.91,7.65-28.26Z" fill="#c9661c" stroke-width="0"/>
  <path d="m1156.74,1700.19h-.85c-.52-.27-.92-.73-1.11-1.28-.2-.55-.18-1.15.04-1.69,8.29-19.13,18.92-30.6,31.67-34.43,4.22-1.22,8.65-1.54,13-.96,4.35.59,8.54,2.07,12.29,4.36.24.15.45.35.61.58.16.23.27.5.33.77.06.28.07.57.01.85-.05.27-.16.54-.31.78-.37.41-.87.67-1.41.75-.55.08-1.1-.04-1.57-.33-6.69-3.66-14.54-4.58-21.89-2.55-11.26,3.19-21.04,14.03-28.9,31.88-.14.39-.4.73-.74.96-.35.23-.76.34-1.17.31Z" fill="#ff9800" stroke-width="0"/>
  <path d="m678.36,425.74c-2.98-1.91,4.25-37.4-35.92-40.17-44.63-3.19-97.97-22.1-132.4-58.44-34.43-36.34-74.81-62.05-57.8-78.21,12.11-11.48,31.24,2.55,41.44,11.69,1.37,1.26,2.98,2.23,4.73,2.85,1.75.62,3.61.88,5.47.77,11.48-.42,26.35,2.12,46.12,18.28,7.47,6.26,15.86,11.35,24.86,15.09,8.29,3.4,17.85,6.16,24.86,4.67,0,0-1.91-30.39,19.13-24.65,21.04,5.74,43.78,19.98,78.21,18.91,34.43-1.06,51,11.48,47.39,46.75,0,0,7.86,79.05,4.46,71.19,0,0-70.13,11.69-70.55,11.26Z" fill="#f4bb8e" stroke-width="0"/>
  <path d="m568.71,343.28h-.85c-8.07-4.25-77.57-42.08-75.02-66.3v-1.27c.21-2.34.43-6.16,3.83-8.5,3.4-2.34,9.77-3.19,19.55-1.06s23.16,9.99,36.77,18.28c13.6,8.29,28.05,17.21,38.04,18.49h.21c.21,0,19.13,4.46,56.32-.42,37.19-4.89,57.38,22.95,57.38,23.16.16.24.27.5.32.78.05.28.05.56,0,.84-.06.28-.17.54-.34.77-.16.23-.37.43-.61.58-.49.27-1.06.35-1.6.23-.55-.12-1.03-.43-1.37-.87-.64-1.06-16.79-26.14-53.13-21.25-36.34,4.89-55.89.64-57.8.21-10.84-1.49-25.5-10.41-39.74-19.13-14.24-8.71-25.72-15.73-35.28-17.85-9.56-2.13-14.45-.85-16.15.42-.73.72-1.29,1.58-1.66,2.54-.37.95-.53,1.97-.47,2.99v1.27c-1.91,18.06,51.85,51,72.68,62.05.25.11.47.27.66.48.18.2.32.45.4.71.08.26.1.54.07.81-.04.27-.13.53-.27.76-.16.37-.43.69-.77.92s-.74.35-1.14.36Z" fill="#46003d" isolation="isolate" opacity=".3" stroke-width="0"/>
  <path d="m1237.71,552.82c4.46,3.83,9.77,10.84,15.3,22.1,5.52,11.26,76.71-32.3,87.98-53.77.53-1.09.8-2.29.8-3.51s-.27-2.41-.8-3.51c-4.89-9.14-20.62-38.68-41.02-74.38-17.42-30.39-36.34-58.65-59.93-68.64-13.6-5.53-36.97-12.54-49.3-4.68l-2.34,1.27c-8.4,4.36-15.84,10.36-21.89,17.64-56.74,67.58-126.66,4.25-126.66,4.25,0,0-31.45-33.58-72.68-4.89-16.36,11.48-58.65,100.52-72.04,129.42-.75,1.91-1.08,3.97-.97,6.02.11,2.05.66,4.06,1.61,5.88,16.57,27.41,57.8,56.74,78.2,60.78,1.11.24,2.26.18,3.33-.15,1.08-.34,2.06-.94,2.84-1.76.82-1.21,1.82-2.28,2.97-3.19l19.98-16.15c.62-.48,1.35-.82,2.12-.97.78-.16,1.58-.13,2.34.08.76.21,1.47.59,2.06,1.11.59.52,1.05,1.18,1.34,1.91l5.53,14.03,11.47,44.42c3.75,14.42,2,29.72-4.89,42.93-24.44,46.75-80.54,170.44-70.34,296.24.22,3.31-.21,6.64-1.27,9.78-2.13,7.01-3.83,11.69-4.04,15.73-.64,9.98,29.75,7.43,50.79,3.4,57.38-11.48,139.2-17.86,193.18-20.19,3.82-.22,51.85,1.06,77.35,4.25,12.12,1.27,23.38,19.55,14.67-22.32-2.55-11.69-4.68-22.95-6.8-33.79-4.04-56.74-15.52-154.5-47.61-243.76-8.89-24.3-10.44-50.69-4.46-75.87l13.18-49.73Z" fill="#5980d5" stroke-width="0"/>
  <path d="m1156.5,219.85c4.69,0,8.5-7.16,8.5-16s-3.81-16-8.5-16-8.5,7.16-8.5,16,3.81,16,8.5,16Z" fill="#46003d" isolation="isolate" opacity=".6" stroke-width="0"/>
  <path d="m1069.5,226.85c4.69,0,8.5-7.16,8.5-16s-3.81-16-8.5-16-8.5,7.16-8.5,16,3.81,16,8.5,16Z" fill="#46003d" isolation="isolate" opacity=".6" stroke-width="0"/>
  <path d="m1162.69,176.88c-2.44.02-4.87-.27-7.23-.85-16.15-3.61-22.74-13.81-22.95-14.24-.25-.46-.33-.99-.21-1.5.12-.51.42-.96.85-1.26.23-.16.5-.26.78-.32.28-.05.56-.05.84,0,.28.06.54.17.77.34.23.16.43.37.58.61,0,0,5.95,9.14,20.19,12.33,14.24,3.19,26.14-5.95,26.14-5.95.45-.34,1.02-.48,1.58-.4.55.08,1.06.38,1.4.83.33.45.48,1.02.4,1.58-.08.56-.38,1.06-.83,1.4-6.54,4.63-14.3,7.22-22.31,7.44Z" fill="#46003d" isolation="isolate" opacity=".6" stroke-width="0"/>
  <path d="m1057.07,186.44c-6.79-.22-13.27-2.86-18.28-7.44-.3-.14-.56-.36-.76-.62-.21-.26-.35-.57-.41-.9-.06-.33-.04-.66.05-.98.09-.32.26-.61.48-.86.23-.24.51-.43.82-.55.32-.12.65-.16.98-.12.33.04.65.15.93.33s.51.43.67.72c.43.43,11.05,10.2,23.8,4.25,12.76-5.95,15.09-12.96,15.09-13.18.19-.5.55-.93,1.01-1.2.47-.27,1.01-.37,1.54-.29.28.05.55.15.78.31.23.16.43.37.57.61.14.24.23.51.25.8.03.28-.01.56-.11.83,0,.43-2.34,8.93-17.42,15.94-3.11,1.53-6.53,2.33-9.99,2.34Z" fill="#46003d" isolation="isolate" opacity=".6" stroke-width="0"/>
  <path d="m1114.87,285.05c-3.05.2-6.1-.31-8.92-1.49-.52-.27-.92-.73-1.11-1.28-.2-.55-.18-1.16.04-1.7.11-.25.28-.47.48-.66.21-.18.45-.32.71-.4.26-.08.54-.1.81-.07.27.04.53.13.77.27,4.88,2.34,15.08.64,18.48-.21,3.4-.85,10.21-5.1,12.12-9.35,1.56-4.34,1.49-9.1-.21-13.39-.43-1.22-1.1-2.35-1.97-3.3-.88-.95-1.95-1.71-3.14-2.23-5.52-2.12-12.75,1.06-12.75,1.06-.5.22-1.08.23-1.59.03-.52-.2-.94-.59-1.17-1.09-.14-.25-.22-.52-.24-.8-.03-.28.02-.57.12-.83.1-.26.26-.5.46-.7.21-.2.45-.34.72-.43.22-.21,8.93-4.04,16.15-1.06,1.68.7,3.18,1.74,4.43,3.06,1.24,1.32,2.2,2.88,2.8,4.59,2.28,5.35,2.35,11.38.21,16.79-2.33,5.53-7.43,9.35-14.66,11.69-4.11.95-8.32,1.45-12.54,1.49Z" fill="#46003d" isolation="isolate" opacity=".6" stroke-width="0"/>
  <path d="m991.4,257.21c-1.8-.15-3.48-.98-4.68-2.34-1.42-1.37-2.51-3.04-3.18-4.89-9.14-22.53-8.5-26.99-.85-31.03,1.64-.83,3.52-1.05,5.31-.64,5.1,1.7,8.71,8.5,9.14,9.35.23.48.27,1.04.11,1.55-.15.51-.5.95-.96,1.22-.52.24-1.1.29-1.65.14-.55-.16-1.02-.51-1.33-.99-.85-1.7-3.61-6.16-6.59-7.23-.71-.13-1.45-.06-2.12.21-4.04,2.34-6.16,3.61,2.76,25.93.6,1.24,1.39,2.39,2.34,3.4.44.53,1.03.9,1.7,1.06.56,0,1.1.22,1.5.62.4.4.62.94.62,1.5.04.29.01.58-.09.85-.09.27-.25.52-.45.73-.21.2-.46.36-.73.46-.27.09-.56.13-.85.09Z" fill="#46003d" isolation="isolate" opacity=".6" stroke-width="0"/>
  <path d="m1170.98,1651.53l2.55-4.68c.85-1.7,22.73-42.29,40.8-44.41,1.98-.21,3.98.07,5.83.81,1.86.74,3.5,1.92,4.79,3.44,1.41,1.34,2.42,3.03,2.95,4.9.52,1.87.53,3.85.03,5.72-4.46,16.58-46.97,31.03-51.85,32.73l-5.1,1.49Zm44.84-44.84h-1.07c-11.47,1.48-26.99,24.22-34.85,37.4,14.88-5.53,41.02-17,43.99-27.84.21-1.19.12-2.41-.25-3.56-.37-1.14-1.01-2.18-1.87-3.03-.68-.93-1.58-1.69-2.62-2.21-1.03-.52-2.18-.78-3.33-.76Z" fill="#ff9800" stroke-width="0"/>
  <path d="m1135.49,1655.99c-8.72,0-16.58-1.49-20.83-5.31-1.44-1.33-2.51-3-3.11-4.87-.6-1.86-.7-3.84-.29-5.76.26-2,1.02-3.9,2.21-5.54,1.19-1.63,2.77-2.94,4.59-3.81,16.15-7.86,56.53,14.45,58.23,15.3l4.67,2.55-5.1,1.49c-3.18.85-23.37,5.95-40.37,5.95Zm-8.72-22.74c-2.33-.05-4.64.38-6.8,1.28-1.22.54-2.27,1.4-3.05,2.48-.78,1.08-1.27,2.35-1.41,3.68-.27,1.2-.24,2.45.1,3.64.33,1.19.95,2.27,1.81,3.16,8.29,7.44,36.55,3.19,51.86-.21-11.06-5.74-30.18-14.03-42.51-14.03Z" fill="#ff9800" stroke-width="0"/>
  <path d="m1236.43,1682.98h-.85c-.52-.27-.91-.73-1.11-1.28-.2-.55-.18-1.16.05-1.7,8.29-19.12,18.91-30.6,31.45-34.42,4.26-1.21,8.72-1.54,13.1-.95,4.39.58,8.61,2.06,12.4,4.35.22.14.4.34.54.56.14.22.23.47.27.73.04.25.03.52-.04.77-.06.26-.18.49-.34.7-.13.23-.31.44-.52.6-.22.16-.46.27-.72.33-.26.06-.53.07-.8.02-.26-.06-.51-.16-.73-.31-6.68-3.67-14.5-4.66-21.88-2.77-11.27,3.4-21.04,14.24-28.91,32.09-.13.4-.4.73-.74.96-.35.23-.76.34-1.17.32Z" fill="#ff9800" stroke-width="0"/>
  <path d="m1250.67,1638.35l2.55-4.67c1.06-2.13,27.2-50.37,48.45-52.92,2.3-.31,4.64-.02,6.8.84,2.16.85,4.06,2.25,5.53,4.05,1.64,1.55,2.84,3.51,3.47,5.67.63,2.17.68,4.46.14,6.65-5.31,19.98-59.72,38.04-62.05,38.68l-4.89,1.7Zm52.7-53.55h-1.27c-15.3,1.7-35.28,33.57-42.51,45.9,17.64-6.37,50.37-20.83,53.77-34,.38-1.5.36-3.07-.05-4.56-.4-1.49-1.19-2.85-2.29-3.94-.97-1.07-2.15-1.92-3.47-2.51-1.31-.58-2.74-.89-4.18-.89Z" fill="#ff9800" stroke-width="0"/>
  <path d="m1215.18,1642.81c-8.71,0-16.58-1.27-20.83-5.1-1.42-1.33-2.48-3.01-3.08-4.87-.59-1.86-.7-3.84-.32-5.75.25-2.01,1-3.92,2.19-5.56,1.19-1.64,2.78-2.94,4.61-3.79,16.15-7.87,56.53,14.45,58.23,15.3l4.68,2.55-5.1,1.27c-3.19.85-23.59,5.95-40.38,5.95Zm-19.98-15.08c-.27,1.2-.23,2.45.1,3.64.33,1.18.96,2.27,1.81,3.16,8.29,7.43,36.56,2.97,51.86-.43-13.6-6.8-39.1-17.64-49.3-12.54-1.25.51-2.33,1.36-3.11,2.45-.79,1.09-1.26,2.37-1.36,3.72Z" fill="#ff9800" stroke-width="0"/>
  <path d="m895.13,514.14s-107.32,221.87-134.95-42.93c-3.61-35.92-11.69-62.27-15.09-114.12l-69.71,38.89s15.09,610.14,298.58,190.84c-16.62-7.68-32.31-17.23-46.75-28.48-14.66-11.48-29.33-23.8-32.09-44.2Z" fill="#f4bb8e" stroke-width="0"/>
  <path d="m1552.65,426.37c2.98-2.12-1.27-45.05,38.89-47.82,44.63-3.19,97.97-21.89,132.19-58.23,34.21-36.34,75.02-62.05,57.8-78.42-12.32-11.69-31.66,2.98-41.65,12.11-4.22,3.95-9.74,6.22-15.51,6.38-10.84.64-24.02,2.13-41.44,16.15-6.54,5.16-13.68,9.51-21.26,12.96-8.71,3.83-19.76,7.44-27.41,5.95,0,0,1.91-30.6-19.13-24.87-21.04,5.74-43.78,19.98-78.2,19.13-34.43-.85-53.77,18.7-49.94,53.98,0,0-8.72,75.02-5.1,67.15,0,0,70.13,15.73,70.76,15.51Z" fill="#f4bb8e" stroke-width="0"/>
  <path d="m1658.49,340.09c-.36,0-.7-.1-1-.29-.3-.19-.55-.45-.7-.77-.15-.25-.25-.52-.29-.81-.03-.29-.01-.58.07-.86.08-.28.21-.54.4-.76.18-.23.41-.41.67-.54,20.82-11.05,74.59-43.99,72.68-62.06.03-.43-.04-.87-.22-1.27.15-1.01.05-2.03-.28-2.99-.33-.96-.89-1.83-1.63-2.53-1.7-1.27-5.95-2.55-16.36-.42-10.42,2.12-22.53,10.2-35.28,17.85-12.75,7.65-28.69,17.85-39.53,19.13-1.91.42-21.04,4.67-57.8-.21-36.77-4.89-52.71,20.19-53.34,21.25-.15.24-.35.45-.58.61-.24.16-.5.28-.78.34-.27.06-.56.06-.84,0-.28-.05-.54-.16-.78-.32-.44-.34-.75-.82-.87-1.37-.11-.55-.03-1.12.23-1.61.22-.21,18.49-28.48,57.38-23.16,38.89,5.31,56.32.43,56.53.43h.21c9.99-1.06,24.23-9.99,38.05-18.49,13.81-8.5,26.35-16.15,36.55-18.28,10.2-2.13,16.15-1.7,19.76,1.06,1.22,1.04,2.18,2.35,2.8,3.83.63,1.47.91,3.07.81,4.67,0,.43.22.85.22,1.28,2.55,24.23-67.16,62.05-75.02,66.3h-1.06Z" fill="#46003d" isolation="isolate" opacity=".3" stroke-width="0"/>
  <path d="m994.59,264.23h-.43c-4.34,0-7.86,3.52-7.86,7.86v.49c0,4.34,3.52,7.86,7.86,7.86h.43c4.34,0,7.86-3.52,7.86-7.86v-.49c0-4.34-3.52-7.86-7.86-7.86Z" fill="#7f4bbc" stroke-width="0"/>
  <path d="m909.79,1801.56h-408.66c-15.17-.03-29.85-5.42-41.43-15.22-11.59-9.8-19.34-23.37-21.89-38.33l-41.87-249.49h614.6l-37.19,248.21c-2.25,15.25-9.9,29.18-21.57,39.24-11.67,10.07-26.57,15.6-41.98,15.59Z" fill="#e90001" stroke-width="0"/>
  <path d="m1009.04,1405.01H391.68c-21.13,0-38.25,17.12-38.25,38.25v16.96c0,21.13,17.13,38.25,38.25,38.25h617.36c21.12,0,38.25-17.12,38.25-38.25v-16.96c0-21.13-17.13-38.25-38.25-38.25Z" fill="#fd6067" stroke-width="0"/>
  <path d="m567.85,1532.31h-1.06c-8.33,0-15.09,6.75-15.09,15.08v162.54c0,8.33,6.76,15.09,15.09,15.09h1.06c8.33,0,15.09-6.76,15.09-15.09v-162.54c0-8.33-6.75-15.08-15.09-15.08Z" fill="#940113" stroke-width="0"/>
  <path d="m637.14,1532.31h-1.06c-8.33,0-15.09,6.75-15.09,15.08v162.54c0,8.33,6.76,15.09,15.09,15.09h1.06c8.33,0,15.09-6.76,15.09-15.09v-162.54c0-8.33-6.76-15.08-15.09-15.08Z" fill="#940113" stroke-width="0"/>
  <path d="m702.38,1530.82h-1.06c-8.33,0-15.09,6.75-15.09,15.09v162.53c0,8.33,6.76,15.09,15.09,15.09h1.06c8.33,0,15.09-6.76,15.09-15.09v-162.53c0-8.34-6.76-15.09-15.09-15.09Z" fill="#940113" stroke-width="0"/>
  <path d="m771.66,1530.82h-1.06c-8.33,0-15.09,6.75-15.09,15.09v162.53c0,8.33,6.76,15.09,15.09,15.09h1.06c8.33,0,15.09-6.76,15.09-15.09v-162.53c0-8.34-6.76-15.09-15.09-15.09Z" fill="#940113" stroke-width="0"/>
  <path d="m835.41,1532.31h-1.06c-8.33,0-15.09,6.75-15.09,15.08v162.54c0,8.33,6.76,15.09,15.09,15.09h1.06c8.33,0,15.09-6.76,15.09-15.09v-162.54c0-8.33-6.76-15.08-15.09-15.08Z" fill="#940113" stroke-width="0"/>
  <path d="m438.43,1693.39l33.79,25.72c1,.76,2.15,1.3,3.38,1.58,1.23.28,2.5.29,3.74.02,1.23-.26,2.39-.78,3.4-1.54,1.01-.75,1.84-1.72,2.44-2.83l36.98-65.66c.36-.79.97-1.44,1.73-1.85.76-.41,1.63-.57,2.49-.45s1.65.51,2.27,1.11c.62.61,1.03,1.4,1.16,2.25l19.13,81.61c.76,3.41,2.63,6.48,5.32,8.71,2.69,2.23,6.06,3.5,9.55,3.61l119.22,4.46c7.01.43,14.03,3.83,8.29,8.08-5.74,4.25-49.3,10.2-39.1,24.01,10.2,13.82-53.98,19.34-53.98,19.34h-89.04c-10.37.8-20.79-.58-30.6-4.03-14.24-5.32-29.54-17.43-34.64-30.82-7.44-19.98-10.63-48.45-14.24-68-.17-1.08-.01-2.19.45-3.18.46-.99,1.2-1.82,2.14-2.39.93-.57,2.01-.85,3.1-.8,1.09.04,2.14.41,3.03,1.05Z" fill="#940113" stroke-width="0"/>
  <path d="m361.08,1858.73c-1.44-.66-2.68-1.69-3.59-2.99-.91-1.3-1.46-2.81-1.59-4.39-.13-1.58.16-3.17.85-4.6.69-1.43,1.74-2.65,3.05-3.53,6.44-4.44,13.27-8.28,20.4-11.48,11.05-4.46,85.64,0,86.71,9.99,1.06,9.99-55.25,23.16-74.8,24.44-10.41.42-22.1-3.61-31.03-7.44Z" fill="#e90001" stroke-width="0"/>
  <path d="m504.53,1818.99c17.85-2.98,41.65-7.44,52.7-9.56,3.98-.67,8.06-.38,11.9.85l53.55,18.06c1.42.48,2.69,1.35,3.66,2.5.97,1.15,1.61,2.54,1.85,4.02.24,1.49.07,3.01-.49,4.41-.56,1.39-1.49,2.61-2.69,3.52l-5.74,4.25c-.49.4-.88.92-1.13,1.5-.25.59-.34,1.23-.28,1.86.06.63.28,1.24.64,1.77.36.53.84.95,1.4,1.25l11.26,5.73c.67.45,1.19,1.09,1.47,1.85.29.75.32,1.58.11,2.35-.21.78-.66,1.47-1.29,1.98-.63.5-1.4.8-2.2.84-26.78-1.7-76.29-6.17-82.67-17.85-6.38-11.69-25.93-17-42.5-21.47-.88-.25-1.65-.79-2.18-1.54-.53-.74-.79-1.64-.74-2.56.05-.91.41-1.78,1.02-2.47.61-.68,1.43-1.14,2.33-1.29Z" fill="#e90001" stroke-width="0"/>
  <path d="m256.94,1785.84c24.01-3.83,62.05-7.65,76.08-8.93,3.47-.39,6.99-.25,10.41.43l47.18,9.56c1.29.26,2.47.91,3.38,1.87.91.96,1.49,2.17,1.68,3.48.19,1.3-.04,2.63-.64,3.81-.6,1.17-1.55,2.13-2.72,2.74l-14.24,7.44c-5.43,2.81-11.56,3.99-17.64,3.4l-93.93-10.2-10.41-3.4c-5.31-1.49-4.68-9.14.85-10.2Z" fill="#e90001" stroke-width="0"/>
  <path d="m1042.19,937.05c-13.6,0-26.14-9.14-37.61-17.64-4.47-3.4-8.93-6.38-12.97-8.93-19.34-11.47-35.49,13.81-36.13,14.88-.13.23-.3.44-.52.6-.21.16-.46.27-.72.33s-.53.07-.79.01c-.26-.05-.51-.15-.73-.31-.26-.13-.48-.32-.67-.54-.18-.22-.32-.48-.4-.76-.08-.28-.1-.57-.06-.86.04-.29.13-.56.28-.81.21-.21,19.13-29.75,41.87-16.15,4.25,2.55,8.71,5.74,13.39,9.14,17.63,12.96,35.91,26.35,56.74,6.8,25.29-23.59,48.66-41.44,76.93-19.13,5.26,4.42,10.3,9.1,15.09,14.03,13.81,14.24,20.19,20.83,44.62-2.34,35.07-33.36,41.23-27.63,75.24,3.83.37.39.6.91.64,1.45.04.54-.12,1.08-.43,1.53-.43.39-.98.63-1.56.67-.58.04-1.15-.12-1.63-.46-34.43-31.88-37.19-34.43-69.49-3.82-27.2,25.93-36.56,16.58-50.58,2.12-4.49-4.95-9.4-9.5-14.66-13.6-23.38-18.49-42.3-8.08-71.2,18.91-8.71,8.07-16.79,11.05-24.65,11.05Z" fill="#4144ad" stroke-width="0"/>
  <path d="m1041.55,862.67c-13.17,0-25.07-9.35-35.7-17.43-3.85-3.22-7.9-6.2-12.11-8.93-1.87-1.38-4.03-2.3-6.32-2.71-2.28-.41-4.63-.28-6.86.37-10.2,2.97-16.79,16.79-16.79,17-.23.5-.65.89-1.16,1.09-.52.2-1.09.19-1.6-.03-.27-.09-.52-.24-.72-.43-.21-.2-.36-.43-.47-.7-.1-.26-.14-.55-.12-.83.02-.28.11-.56.25-.8.21-.64,7.22-15.73,19.34-19.55,2.81-.76,5.75-.88,8.62-.37,2.86.51,5.58,1.65,7.95,3.34,4.41,2.81,8.67,5.86,12.75,9.14,16.58,12.96,33.79,26.35,53.34,6.8,24.02-23.59,45.91-41.44,72.9-19.13,5.05,4.35,9.81,9.04,14.24,14.03,6.8,7.44,11.68,12.75,17.85,12.75h.21c5.95,0,13.6-4.68,23.8-15.09,32.3-32.52,43.57-28.26,77.14,4.68.41.43.63,1,.63,1.59s-.22,1.16-.63,1.59c-.39.39-.93.61-1.48.61s-1.09-.22-1.49-.61c-32.09-31.66-41.02-35.07-71.19-4.67-11.27,11.26-19.77,16.36-26.99,16.15-7.23-.21-13.82-6.16-21.04-14.03-4.28-4.92-8.9-9.53-13.82-13.81-22.1-18.28-39.95-7.86-67.15,18.91-8.08,8.08-15.73,11.05-23.38,11.05Z" fill="#4144ad" stroke-width="0"/>
  <path d="m1056.85,792.96c-11.68,0-22.31-9.56-31.66-17.64-3.32-3.23-6.87-6.21-10.63-8.92-1.59-1.2-3.41-2.07-5.34-2.54-1.94-.47-3.95-.55-5.92-.22-11.69,2.34-21.89,17.64-22.1,17.64-.13.23-.31.44-.52.6-.22.16-.46.27-.72.33s-.53.07-.79.01c-.27-.05-.51-.15-.73-.31-.24-.15-.45-.35-.61-.58-.17-.23-.28-.49-.34-.77-.06-.28-.06-.56-.01-.84.05-.28.16-.54.32-.78.42-.64,11.26-16.79,24.86-19.34,2.47-.53,5.01-.52,7.47.03,2.46.55,4.77,1.63,6.77,3.16,3.61,2.76,7.44,5.95,11.26,9.35,15.09,13.39,29.33,25.93,46.33,6.8,17-19.13,28.27-28.9,41.66-29.54,7.65-.42,15.3,2.98,22.95,10.41,4.59,4.29,8.79,8.98,12.54,14.03,5.73,7.01,10.2,12.54,15.51,12.75h.21c5.1,0,11.69-4.89,20.62-15.09,13.81-15.73,22.52-22.1,31.45-22.1,11.26,0,21.89,10.84,36.76,27.41.37.42.55.97.51,1.53-.04.56-.3,1.08-.72,1.44-.19.21-.43.37-.7.48-.26.1-.55.15-.84.13-.28-.02-.56-.1-.81-.25-.25-.14-.46-.34-.62-.57-16.15-17.85-24.87-25.93-33.58-25.93-7.44,0-15.51,6.16-28.27,20.61-12.75,14.45-17.21,16.58-23.8,16.58h-.21c-7.23-.21-12.33-6.38-18.7-14.45-3.86-4.75-7.98-9.29-12.33-13.6-6.8-6.38-13.17-9.35-19.76-9.14-11.9.43-24.02,11.69-38.68,28.05-7.22,8.08-14.03,11.26-20.83,11.26Z" fill="#4144ad" stroke-width="0"/>
  <path d="m1071.09,723.05c-9.77,0-18.06-8.92-26.35-17.85-2.81-3.13-5.79-6.11-8.92-8.93-1.11-1.01-2.43-1.76-3.86-2.2-1.44-.44-2.95-.56-4.43-.35-10.2,1.7-19.77,17.21-19.77,17.43-.15.24-.35.45-.58.61-.23.16-.49.28-.77.34-.28.06-.56.06-.84.01-.28-.05-.55-.16-.78-.32-.24-.13-.44-.31-.6-.52-.16-.21-.27-.46-.33-.72-.06-.26-.07-.53-.02-.79.05-.26.16-.51.31-.73.43-.85,10.63-17.64,22.74-19.55,2.13-.29,4.29-.12,6.35.5,2.05.62,3.94,1.68,5.55,3.11,2.98,2.76,5.95,5.95,9.14,9.35,7.65,8.29,15.72,17,24.01,16.36,4.47-.21,8.93-3.4,13.6-9.56,12.97-18.06,23.59-29.11,34.64-29.75,6.59-.21,12.97,3.19,19.34,10.62,3.71,4.49,7.19,9.17,10.42,14.03,4.67,7.01,8.28,12.54,12.32,12.54h.21c3.83,0,9.36-4.89,16.58-14.88,11.26-15.73,19.13-22.1,27.2-22.31,8.08-.21,18.49,9.35,32.09,27.63.34.45.49,1.02.41,1.57-.08.56-.38,1.06-.83,1.4-.45.34-1.02.48-1.58.4-.56-.08-1.06-.38-1.4-.83-12.54-16.79-20.61-25.93-28.47-25.93h-.22c-6.37.21-13.39,6.38-23.8,20.61-10.41,14.24-14.45,16.58-20.19,16.58s-10.62-6.38-15.94-14.45c-3.01-4.76-6.35-9.3-9.98-13.6-5.53-6.38-10.63-9.35-15.94-9.14-9.35.42-19.55,11.48-31.46,28.05-5.31,7.23-10.83,10.84-16.78,11.26h-1.07Z" fill="#4144ad" stroke-width="0"/>
  <path d="m1085.97,653.34c-8.08,0-15.09-9.14-21.68-18.06-2.55-3.4-4.89-6.38-7.22-8.93-.65-.88-1.53-1.56-2.54-1.97-1.02-.41-2.12-.54-3.2-.36-7.01.85-14.88,13.6-17.43,18.49-.3.43-.73.75-1.23.9s-1.04.14-1.53-.05c-.25-.11-.48-.27-.66-.48-.18-.21-.32-.45-.4-.71-.08-.26-.1-.54-.06-.81.03-.27.12-.53.27-.77.85-2.12,9.99-19.34,20.4-20.83,1.77-.29,3.59-.11,5.27.52,1.68.63,3.16,1.7,4.29,3.09l7.44,9.35c5.95,7.86,12.54,16.58,18.7,16.36,6.17-.21,7.23-3.4,10.63-9.56,10.84-18.06,19.34-29.54,28.69-29.75,5.52-.21,10.63,3.19,15.94,10.63,3.01,4.52,5.78,9.2,8.29,14.03,3.61,6.59,6.8,12.33,9.77,12.33s7.23-4.89,12.97-14.45c9.35-16.15,15.51-22.53,22.1-22.53h.21c7.65,0,14.45,8.93,25.71,27.63.27.49.35,1.06.24,1.6-.12.55-.43,1.03-.87,1.37-.25.15-.53.24-.82.28-.28.04-.58.02-.85-.06-.28-.08-.54-.22-.77-.4-.22-.18-.41-.41-.54-.67-9.99-16.58-16.36-25.5-22.1-25.5h-.21c-4.68,0-10.2,6.16-18.49,20.4-8.29,14.24-11.9,16.79-16.58,16.58-4.67-.21-9.14-6.38-13.39-14.45-2.42-4.69-5.12-9.23-8.07-13.6-4.47-6.16-8.5-9.14-12.33-8.93-7.44.21-15.51,11.26-25.07,27.63-4.47,7.44-9.14,11.26-14.24,11.69h-.64Z" fill="#4144ad" stroke-width="0"/>
  <path d="m1042.4,579.81c-13.39,0-25.71-9.35-36.97-17.64-4.28-3.37-8.75-6.49-13.39-9.35-19.34-11.48-41.66,18.7-41.87,19.13-.37.41-.86.68-1.41.75-.54.08-1.1-.04-1.56-.33-.25-.14-.47-.34-.63-.58-.16-.24-.27-.51-.31-.8-.04-.29-.01-.58.07-.85.09-.28.24-.53.44-.74.85-1.49,24.87-33.79,47.39-20.19,4.78,2.92,9.4,6.12,13.82,9.56,17.21,12.96,35.27,26.35,55.89,6.8,25.29-23.59,48.66-41.44,76.93-19.13,5.26,4.42,10.3,9.1,15.09,14.03,13.81,14.24,20.19,20.83,44.62-2.34,35.07-33.36,47.4-25.29,81.19,5.95.3.41.45.91.42,1.42-.04.51-.26.99-.62,1.35-.36.36-.84.58-1.35.62-.51.04-1.02-.11-1.43-.42-33.36-30.82-42.5-36.98-75.44-5.74-27.2,25.93-36.56,16.58-50.58,2.12-4.49-4.95-9.4-9.5-14.66-13.6-23.38-18.49-42.3-8.08-71.2,18.91-8.5,7.86-16.57,11.05-24.44,11.05Z" fill="#4144ad" stroke-width="0"/>
  <path d="m1185.85,445.71c-8.71,0-15.09-6.38-22.95-14.03-4.64-4.94-9.69-9.49-15.09-13.6-2.82-2.09-5.8-3.93-8.92-5.52h-.43c-.46-.27-.81-.7-.97-1.21-.15-.51-.11-1.07.12-1.55.13-.26.32-.48.54-.67.23-.18.49-.32.76-.4.28-.08.57-.1.86-.06.29.04.57.13.82.28h.42c3.34,1.64,6.54,3.56,9.56,5.74,5.48,4.25,10.6,8.94,15.3,14.03,14.03,13.81,21.04,20.83,46.12-2.34,36.13-33.58,48.88-25.5,83.09,5.31.38.39.61.91.65,1.45.04.54-.12,1.08-.43,1.52-.37.42-.89.68-1.45.72-.55.04-1.1-.14-1.53-.5-34.21-30.81-43.56-36.76-77.57-5.31-12.75,11.69-21.67,16.15-28.9,16.15Z" fill="#4144ad" stroke-width="0"/>
  <path d="m1024.76,513.51c-17.21,0-33.15-8.93-47.81-17.43-5.74-3.19-11.26-6.38-16.79-8.93-25.71-11.9-54.83,15.51-55.04,15.73-.4.39-.93.61-1.49.61s-1.09-.22-1.49-.61c-.4-.43-.62-1-.62-1.59s.22-1.16.62-1.59c1.28-1.06,31.46-29.54,59.72-16.36,5.89,2.76,11.63,5.81,17.21,9.14,22.96,13.18,46.76,26.78,74.17,6.8,32.3-23.38,61.84-41.02,97.55-19.13,6.82,4.13,13.29,8.82,19.34,14.03,17.85,14.24,26.77,21.25,58.65-2.34,43.14-31.88,56.95-27.84,102.43,4.89.25.14.47.34.63.58.16.24.27.51.31.8.04.29.01.58-.08.85-.08.28-.23.53-.43.74-.37.41-.87.68-1.41.75-.55.08-1.1-.04-1.57-.33-44.63-32.09-55.89-35.49-97.33-4.89-34.43,25.5-45.48,16.79-63.76,2.13-6.03-4.9-12.35-9.44-18.91-13.6-30.6-18.7-55.25-8.29-92.87,18.91-8.89,6.88-19.78,10.69-31.03,10.84Z" fill="#4144ad" stroke-width="0"/>
  <path d="m1029.65,448.05c-13.39,0-25.71-9.14-37.19-17.64-4.46-3.4-8.71-6.59-12.75-9.14-19.34-11.48-41.86,15.73-42.08,16.15-.38.35-.88.54-1.4.55s-1.02-.18-1.41-.52c-.39-.34-.65-.81-.72-1.32-.07-.51.06-1.04.35-1.47.85-1.27,25.07-30.39,47.39-17,4.25,2.76,8.71,5.95,13.17,9.35,17.43,12.96,35.49,26.35,56.32,6.8,8.21-7.91,17.1-15.1,26.56-21.46.48-.31,1.06-.42,1.62-.3.56.12,1.05.46,1.36.93.31.48.42,1.06.3,1.62-.12.56-.46,1.05-.94,1.36-9.29,6.1-17.97,13.07-25.93,20.83-8.71,8.08-16.78,11.26-24.65,11.26Z" fill="#4144ad" stroke-width="0"/>
  <path d="m986.94,1000.8l107.53-1.06v-18.91s-30.18,2.97-58.87,7.01c-13.81,1.91-27.41,4.46-36.76,6.16l-11.9,2.13v4.67Z" fill="#e49d65" stroke-width="0"/>
  <path d="m1110.83,999.53s91.81-3.4,107.75-3.19v-21.68s-15.51-1.06-36.55-.21c-28.69,1.06-65.25,4.04-71.2,4.89v20.19Z" fill="#e49d65" stroke-width="0"/>
  <path d="m670.29,398.54s51.22,1.91,77.14-22.1l4.68,40.8s-14.88,28.05-74.38,21.68l-7.44-40.38Z" fill="#7f4bbc" stroke-width="0"/>
  <path d="m694.73,422.34c-6.49.05-12.96-.52-19.34-1.7-.53-.1-.99-.4-1.31-.83-.32-.43-.46-.97-.39-1.5.15-.54.49-1.01.96-1.33.47-.31,1.03-.45,1.59-.37.43,0,46.12,9.14,69.92-18.06.17-.25.39-.46.64-.62.26-.16.54-.26.84-.3.3-.04.6-.02.89.07.29.09.55.23.78.43.23.2.41.44.54.71.13.27.19.57.2.87,0,.3-.06.6-.18.88-.12.28-.3.52-.52.72-15.3,17.43-38.25,21.04-54.62,21.04Z" fill="#ff9800" stroke-width="0"/>
  <path d="m1053.14,166.74c-.52-.04-1-.25-1.39-.59-.38-.35-.64-.81-.73-1.32-.07-.53.07-1.07.39-1.5.31-.43.78-.73,1.31-.84,48.87-7.65,61.2-35.28,61.41-35.7.28-.41.7-.72,1.18-.86.48-.14.99-.1,1.45.1s.83.56,1.05,1.01c.21.45.27.96.15,1.45-.43,1.27-13.39,30.18-64.61,38.25h-.21Z" fill="#f4bb8e" isolation="isolate" opacity=".2" stroke-width="0"/>
  <path d="m1001.18,176.18c-.5,0-.99-.15-1.38-.46-.38-.31-.65-.75-.75-1.24-.06-.28-.07-.57-.01-.85.05-.28.16-.55.32-.79.16-.24.36-.44.6-.6.24-.16.51-.26.79-.31,42.93-7.65,71.19-41.01,71.62-41.23.34-.45.84-.75,1.4-.83.56-.08,1.12.07,1.57.4.44.4.7.96.74,1.55.04.59-.15,1.18-.52,1.64-1.28,1.27-29.54,34.64-73.96,42.71h-.42Z" fill="#f4bb8e" isolation="isolate" opacity=".2" stroke-width="0"/>
  <path d="m1134.42,53.62c-.28.03-.58,0-.85-.09-.27-.1-.52-.25-.73-.46-.2-.21-.36-.45-.45-.73-.1-.27-.13-.56-.09-.85-2.13-31.03-30.82-34-31.88-34.21-.42-.16-.78-.45-1.02-.83-.25-.38-.37-.82-.34-1.27.02-.45.19-.88.47-1.23s.67-.6,1.1-.71c.43,0,33.58,3.4,35.92,38.04,0,.58-.22,1.15-.61,1.58-.39.43-.94.7-1.52.76Z" fill="#f4bb8e" isolation="isolate" opacity=".2" stroke-width="0"/>
  <path d="m1285.31,1850.44c-29.33,0-60.57-7.22-60.57-20.61s31.24-20.4,60.57-20.4,60.78,7.22,60.78,20.4-31.24,20.61-60.78,20.61Zm0-36.76c-33.15,0-56.32,8.5-56.32,16.15s23.17,16.36,56.32,16.36,56.53-8.5,56.53-16.36-23.17-16.15-56.53-16.15Z" fill="#83c3e5" stroke-width="0"/>
  <path d="m1591.12,1740.57c-12.75,0-36.77-2.12-36.77-10.62s24.02-10.84,36.77-10.84,36.76,2.33,36.76,10.84-24.01,10.62-36.76,10.62Zm0-17.21c-21.47,0-32.52,4.46-32.52,6.59s11.05,6.37,32.52,6.37,32.51-4.46,32.51-6.37-11.05-6.59-32.51-6.59Z" fill="#83c3e5" stroke-width="0"/>
  <path d="m903.84,536.03s5.53,7.86,19.34,19.13c0,0,5.53,4.67,12.33,9.35,6.8,4.67,15.3,10.2,18.27,11.9,2.98,1.7,17.43,9.56,20.19,10.41l-7.22,10.63s-58.66-40.38-62.91-61.42Z" fill="#e49d65" stroke-width="0"/>
  <path d="m1076.83,350.72s44.2,3.82,56.32,0c0,0-.85,11.69.85,16.15,0,0-43.78-.21-56.96-9.78l-.21-6.38Z" fill="#e49d65" stroke-width="0"/>
  <ellipse cx="1048.5" cy="276.85" rx="19.5" ry="19" fill="#fd6067" isolation="isolate" opacity=".2" stroke-width="0"/>
  <ellipse cx="1187" cy="273.85" rx="15" ry="19" fill="#fd6067" isolation="isolate" opacity=".2" stroke-width="0"/>
</svg>