<?xml version="1.0" encoding="UTF-8"?>
<svg id="Layer_1" data-name="Layer 1" xmlns="http://www.w3.org/2000/svg" xmlns:xlink="http://www.w3.org/1999/xlink" viewBox="0 0 4680 3120">
  <defs>
    <clipPath id="clippath">
      <rect width="4680" height="3120" fill="none" stroke-width="0"/>
    </clipPath>
    <clipPath id="clippath-1">
      <rect width="4680" height="3120" fill="none" stroke-width="0"/>
    </clipPath>
    <clipPath id="clippath-2">
      <rect width="4680" height="3120" fill="none" stroke-width="0"/>
    </clipPath>
    <clipPath id="clippath-3">
      <rect width="4680" height="3120" fill="none" stroke-width="0"/>
    </clipPath>
    <clipPath id="clippath-4">
      <rect x="1582.8" y="615.89" width="1062.02" height="1866.8" fill="none" stroke-width="0"/>
    </clipPath>
  </defs>
  <polygon points="2390.7 12.87 2936.64 451.07 2858.17 1141.08 1828.14 1141.08 1636.67 506.6 2390.7 12.87" fill="#e7ecff" fill-rule="evenodd" stroke-width="0"/>
  <path d="m2001.7,991.38v149.91h-23.5v-59.3s-64.8-8.83-56.34-75.71h19.48s-4.64,52.62,36.87,49.31v-64.21h23.5Z" fill="#8b8b8b" fill-rule="evenodd" stroke-width="0"/>
  <path d="m1831.59,1000.71c-.84,6.76,1.26,13.57,5.79,18.7,4.52,5.12,11.03,8.05,17.86,8.05h222.41c12.6,0,23.03-9.81,23.79-22.39,1.8-30.12-2.06-78.98-47.88-70.73,0,0,14.76-137.4-53.76-141.53-57.26-3.48-64.91,67.72-64.91,67.72,0,0-41.25-13.09-59.32,22.19-18.07,35.24-7.41,82.9-7.41,82.9,0,0-32.55,2.49-36.57,35.09Z" fill="#ffd83d" fill-rule="evenodd" stroke-width="0"/>
  <path d="m1920.35,935.2c-.17,1.06-.88,1.98-1.88,2.44-1,.42-2.16.32-3.06-.27-6.8-4.7-19.07-15.64-11.29-30.18.65-1.2,2.03-1.89,3.39-1.61,5.07,1.1,16.62,6.16,12.84,29.62Z" fill="#ff7a3d" fill-rule="evenodd" stroke-width="0"/>
  <path d="m1991.69,882.27c-.92.7-2.1.84-3.16.41-1.05-.42-1.8-1.38-1.96-2.49-.86-6.36-.62-17.02,9.85-20.54,1.43-.48,3.04.12,3.81,1.44,1.98,3.67,4.02,11.77-8.53,21.18Z" fill="#ff7a3d" fill-rule="evenodd" stroke-width="0"/>
  <path d="m1994.46,979.04c-1.07.34-2.24.12-3.06-.62-.85-.71-1.26-1.82-1.1-2.9,1.19-7.42,5.28-20.76,19.45-20.44,1.44.03,2.7,1.01,3.02,2.42,1.04,4.66,1.08,15.44-18.31,21.54Z" fill="#ff7a3d" fill-rule="evenodd" stroke-width="0"/>
  <polygon points="2129.21 954.02 2092.46 981.9 2081.95 1018.93 2119.2 1035.3 2157.38 1008.26 2129.21 954.02" fill="#ffc8a3" fill-rule="evenodd" stroke-width="0"/>
  <polygon points="2183.18 1026.38 2185.28 1060.75 2242.05 1060.75 2242.05 1026.38 2183.18 1026.38" fill="#ffc8a3" fill-rule="evenodd" stroke-width="0"/>
  <path d="m2235.35,608.07l69.23,194.25-182.33,147.61c9.15,27,21.93,51.47,41.13,71.48,0,0,165.12-121.53,226.3-166.51,13.6-10.03,19.89-27.23,15.97-43.66-16.4-68.67-58.28-244.15-58.28-244.15l-112.01,40.98Z" fill="#3d61ff" fill-rule="evenodd" stroke-width="0"/>
  <path d="m2159.07,638.38l9.55,396.46c30.03,5.52,55.5,5.38,83.59,0l9.87-421.39-79.33-16.01-23.68,40.94Z" fill="#3d61ff" fill-rule="evenodd" stroke-width="0"/>
  <path d="m2092.46,981.9s-11.23,36.02,33.84,48.39c4.92,1.33,6.57,5.84,2.8,14.44-3.77,8.6-7.59,42.18,8.86,71.99,0,0,9.26,3.4,11.27,5.84,1.36,1.61.88,9.52.43,14.44-.21,2.3-2.14,4.05-4.44,4.05h-58.3c-1.5,0-2.91-.73-3.73-1.98-21.75-33.21-38.64-66.65-53.11-100.18-2.26-5.29-1.24-11.41,2.61-15.69,14.16-15.5,48.31-50.64,59.78-41.3Z" fill="#ff7a3d" fill-rule="evenodd" stroke-width="0"/>
  <path d="m2168.63,1135.06c.12,3.36,2.87,5.98,6.23,5.98h81.6c2.7,0,5.09-1.7,5.93-4.28,1.69-5.24,3.58-14.9.27-26.72-5.06-18.03-10.13-12.56-12.59-37.81-3.08-31.65-70.61-29.72-71.63-7.78-.74,15.83,1.66,15.55-4.04,26.82-5.08,10.03-6.31,27.19-5.76,43.79Z" fill="#ff7a3d" fill-rule="evenodd" stroke-width="0"/>
  <polygon points="2256.75 841.05 2254.09 954.65 2269.73 830.53 2256.75 841.05" fill="#001c8c" fill-rule="evenodd" stroke-width="0"/>
  <polygon points="2165.73 914.74 2168.21 1017.86 2156.82 921.95 2165.73 914.74" fill="#001c8c" fill-rule="evenodd" stroke-width="0"/>
  <path d="m2191.3,1100.54c15.69-5.88,31.05-5.78,46.09,0,.79.3,1.69-.1,1.99-.89.31-.79-.09-1.68-.89-1.97-15.75-6.08-31.83-6.23-48.27,0-.8.29-1.2,1.18-.9,1.97.3.79,1.19,1.19,1.99.89Z" fill="#fff" fill-rule="evenodd" stroke-width="0"/>
  <path d="m2189.02,1091.6c17.25-5.93,34.12-5.78,50.64,0,.81.3,1.68-.15,1.97-.94.28-.79-.14-1.68-.95-1.97-17.18-5.98-34.72-6.13-52.66,0-.81.29-1.23,1.18-.96,1.97s1.16,1.24,1.96.94Z" fill="#fff" fill-rule="evenodd" stroke-width="0"/>
  <path d="m2125.81,1068.29c-2.18,1.18-7.9,3.55-16.48,3.06-.85-.05-1.58.59-1.63,1.43-.05.89.6,1.58,1.45,1.63,9.42.6,15.69-2.12,18.09-3.36.76-.39,1.05-1.33.65-2.07-.39-.79-1.33-1.09-2.08-.69Z" fill="#fff" fill-rule="evenodd" stroke-width="0"/>
  <path d="m2127.17,1082.46c-2.97,1.09-7.68,2.23-13.87,1.88-.85-.05-1.58.59-1.63,1.43-.05.89.6,1.58,1.45,1.63,6.76.4,11.89-.84,15.13-2.07.8-.3,1.21-1.19.91-1.98-.3-.79-1.19-1.18-1.99-.89Z" fill="#fff" fill-rule="evenodd" stroke-width="0"/>
  <path d="m2129.6,1094.81c-2.98,1.04-7.54,2.08-13.44,1.73-.85-.05-1.58.59-1.63,1.43-.05.89.6,1.58,1.45,1.63,6.43.4,11.39-.74,14.65-1.87.8-.3,1.22-1.19.94-1.98-.28-.79-1.17-1.24-1.97-.94Z" fill="#fff" fill-rule="evenodd" stroke-width="0"/>
  <path d="m2221.63,262.33s-36.59-.85-56.17,39.65l51.16,39.68s37.27-17.82,25.35-63.95l-20.34-15.39Z" fill="#000045" fill-rule="evenodd" stroke-width="0"/>
  <path d="m2226.05,276.33l9.81,29.71c22.08,5.34,39.63,2.74,61.71-8.39l-12.66-40.88-29.45,2.27-29.4,17.28Z" fill="#ffc8a3" fill-rule="evenodd" stroke-width="0"/>
  <polygon points="2227.99 282.22 2234.36 301.53 2270.65 274.52 2246.02 270.52 2227.99 282.22" fill="#e89b68" fill-rule="evenodd" stroke-width="0"/>
  <path d="m2319.62,252.48s36.91-13.74,71.06,20.57l-12.01,18.53-10.31-1.96,5.8,7.24-21.55,34.53s-44.17-5.02-48.27-56.12l15.28-22.8Z" fill="#000045" fill-rule="evenodd" stroke-width="0"/>
  <path d="m2299.61,276.46c-2.05-1.34-2.58-4.11-1.23-6.17l13.62-20.8c1.32-2,4.07-2.62,6.12-1.28,2.04,1.34,2.58,4.11,1.26,6.11-3.56,5.44-10.09,15.41-13.62,20.8-1.35,2.05-4.1,2.67-6.15,1.33Z" fill="#ff7a3d" fill-rule="evenodd" stroke-width="0"/>
  <path d="m2288.29,194.94s8.5,2.21,18.26,8.44,8.01,31.19,4.83,36.09c-3.22,4.9-12.82,11.97-19.83,12.38,0,0-6.08,9.61-17.97,20.31-11.89,10.7-35.73,17.64-57.78,5.03-9.26-5.31-14.51-15.96-17.13-24.13-2.59-8.18-12.88-41.8-12.88-41.8l18.81-43.39,59.88-1.99,18.61,30.52,5.2-1.47Z" fill="#ffc8a3" fill-rule="evenodd" stroke-width="0"/>
  <path d="m2300.81,211.34s-7.77,3.43-15.19,11.54c-.57.63-.52,1.61.12,2.18.61.57,1.6.53,2.17-.1,6.94-7.58,14.16-10.81,14.16-10.81.75-.35,1.1-1.27.78-2.04-.36-.78-1.28-1.13-2.03-.78Z" fill="#000045" fill-rule="evenodd" stroke-width="0"/>
  <path d="m2300.08,222.17s-4.41-3.09-7.8-4.39c-.8-.31-1.69.09-1.98.89-.33.79.07,1.69.87,1.99,3.11,1.19,7.15,4.04,7.15,4.04.69.48,1.68.32,2.16-.38.48-.7.32-1.66-.4-2.15Z" fill="#000045" fill-rule="evenodd" stroke-width="0"/>
  <path d="m2222.02,235.49l-.63,11.91c-.06.85.58,1.58,1.45,1.63.84.04,1.55-.61,1.62-1.46l.66-11.9c.03-.85-.61-1.58-1.46-1.63-.84-.05-1.59.6-1.65,1.45Z" fill="#000045" fill-rule="evenodd" stroke-width="0"/>
  <path d="m2252.3,208.59s-13.25-6.66-22.45,5.39c-.54.67-.41,1.64.26,2.16.7.52,1.67.39,2.17-.29,7.66-9.99,18.6-4.51,18.6-4.51.79.39,1.71.08,2.09-.68.38-.76.07-1.69-.68-2.07Z" fill="#000045" fill-rule="evenodd" stroke-width="0"/>
  <path d="m2228.94,263.44s14.78,1.18,18.76-13.45c.24-.82-.24-1.68-1.06-1.9-.85-.22-1.69.26-1.9,1.08-3.33,12.14-15.53,11.19-15.53,11.19-.88-.06-1.62.57-1.68,1.42s.57,1.59,1.41,1.66Z" fill="#000045" fill-rule="evenodd" stroke-width="0"/>
  <path d="m2216.05,215.27s-13.25-6.66-22.45,5.39c-.54.67-.4,1.64.27,2.16.7.52,1.67.39,2.17-.29,7.66-9.99,18.6-4.51,18.6-4.51.79.39,1.71.08,2.09-.68s.07-1.69-.68-2.07Z" fill="#000045" fill-rule="evenodd" stroke-width="0"/>
  <path d="m2236.82,231.09c-2.08-.41-3.43-2.41-3.03-4.47.4-2.06,2.41-3.4,4.49-3,2.08.41,3.43,2.41,3.03,4.47-.4,2.06-2.41,3.4-4.49,3Z" fill="#000045" stroke-width="0"/>
  <path d="m2204.08,237.29c-2.08-.41-3.43-2.41-3.03-4.47.4-2.06,2.41-3.4,4.49-3,2.08.41,3.43,2.41,3.03,4.47-.4,2.06-2.41,3.4-4.49,3Z" fill="#000045" stroke-width="0"/>
  <path d="m2282.06,203.7s.56,70.84-1.27,68.85c-2.34-2.6-9.73-70.27-9.73-70.27l-19.41-1.88-8.03-21.47-2.14,21.62s-39.42,9.83-59.98,16.95c0,0-20.09-60.74,45.09-78.57,47.07-12.84,105.62,26.8,88.59,109.98l-15.44,24.3-11.25-2.82-3.6-10.26-.33-7.48s3.37-7.57,3.69-16.4c0,0,21.48-1.23,22.34-17.04,1.35-24.95-28.54-15.52-28.54-15.52Z" fill="#000045" fill-rule="evenodd" stroke-width="0"/>
  <path d="m2307.15,301.59s-3.65-14.86-8.61-15.78c-4.96-.87-66.45,15.78-66.45,15.78,0,0-5.76.74-3.03,9.61,0,0-15.94,3.5-23.98,6.44l-4.4,300.27s66.09,6.77,131.15-7.13l-5.12-305.47-19.56-3.73Z" fill="#ffd83d" fill-rule="evenodd" stroke-width="0"/>
  <path d="m2214.39,314.79c-1.6.28-32.18,9.84-37.29,12.93l-35.78,148.99v174.01c26.84,2.95,53.8,3.68,81.08-1.61-4.4-105.2-7.59-214.77-8-334.32Z" fill="#fa7a3e" fill-rule="evenodd" stroke-width="0"/>
  <path d="m2313.88,302.87c4.05,134.73,2.61,241.77,0,342.78,27.63,1.33,54.84-1.93,81.56-10.67l-30.17-316.98c-15.16-7.22-32.69-11.82-51.39-15.13Z" fill="#ff7a3d" fill-rule="evenodd" stroke-width="0"/>
  <path d="m2338.13,415.38s16.31,65.39,32.39,97.94c0,0-35.66,26.62-54.84,46.62l8.48,22.13,82.62-74.08-68.65-92.6Z" fill="#cc3d00" fill-rule="evenodd" stroke-width="0"/>
  <path d="m2141.32,519.24v57.73s22.29-37.78,32.81-86.58l-32.81,28.84Z" fill="#cc3d00" fill-rule="evenodd" stroke-width="0"/>
  <path d="m2044.72,220.86l7.55,47.65c.13.87.92,1.43,1.77,1.29s1.42-.92,1.28-1.75l-7.55-47.7c-.13-.83-.92-1.38-1.77-1.29-.84.14-1.42.97-1.28,1.79Z" fill="#3d61ff" fill-rule="evenodd" stroke-width="0"/>
  <path d="m1993.63,255.91l27.24,25.25c.62.55,1.6.51,2.18-.09.58-.64.54-1.61-.08-2.21l-27.24-25.21c-.62-.6-1.6-.55-2.18.05-.58.64-.54,1.61.08,2.21Z" fill="#3d61ff" fill-rule="evenodd" stroke-width="0"/>
  <path d="m2098.04,240.22l-10.1,27.51c-.3.83.11,1.7.91,1.98.8.32,1.69-.09,1.98-.87l10.1-27.55c.29-.83-.12-1.7-.92-1.98-.8-.32-1.69.09-1.98.92Z" fill="#3d61ff" fill-rule="evenodd" stroke-width="0"/>
  <path d="m1935.55,622.39l81.51,27.87c.81.28,1.68-.18,1.96-.96.28-.83-.16-1.71-.96-1.98l-81.51-27.83c-.81-.28-1.68.14-1.96.96-.28.79.16,1.66.96,1.94Z" fill="#ff7a3d" fill-rule="evenodd" stroke-width="0"/>
  <path d="m2668.89,409.09l-43.59,58.14c-.52.69-.38,1.66.3,2.16.69.51,1.65.37,2.17-.28l43.59-58.14c.51-.69.37-1.66-.31-2.16-.69-.51-1.65-.37-2.16.28Z" fill="#ab3dff" fill-rule="evenodd" stroke-width="0"/>
  <path d="m1840.85,724.96c-6.06,0-10.99,4.93-10.99,11s4.92,10.99,10.99,10.99,10.99-4.92,10.99-10.99-4.92-11-10.99-11Zm0,3.09c4.36,0,7.9,3.54,7.9,7.91s-3.54,7.91-7.9,7.91-7.9-3.54-7.9-7.91,3.54-7.91,7.9-7.91Z" fill="#ab3dff" fill-rule="evenodd" stroke-width="0"/>
  <path d="m2773.47,1046.12c-5.99,0-10.86,4.88-10.86,10.86s4.87,10.85,10.86,10.85,10.88-4.87,10.88-10.85-4.87-10.86-10.88-10.86Zm0,3.09c4.3,0,7.79,3.49,7.79,7.77s-3.49,7.77-7.79,7.77-7.78-3.49-7.78-7.77,3.49-7.77,7.78-7.77Z" fill="#ff3d3d" fill-rule="evenodd" stroke-width="0"/>
  <path d="m2511.18,295.4c26.98,0,48.85-21.87,48.85-48.85s-21.87-48.85-48.85-48.85-48.85,21.87-48.85,48.85,21.87,48.85,48.85,48.85Z" fill="#ff7a3d" stroke-width="0"/>
  <path d="m2534.46,239.53c0-1.75-.69-3.44-1.94-4.67-1.23-1.23-2.91-1.93-4.67-1.93h-33.35c-1.75,0-3.43.71-4.67,1.93-1.24,1.23-1.94,2.92-1.94,4.67v29.04c0,1.74.7,3.44,1.94,4.67s2.92,1.93,4.67,1.93h33.35c1.76,0,3.44-.71,4.67-1.93,1.25-1.23,1.94-2.92,1.94-4.67v-29.04Z" fill="#fff" fill-rule="evenodd" stroke-width="0"/>
  <path d="m2499.27,232.99c0-7.43,5.29-13.52,11.91-13.52s11.9,6.1,11.9,13.52c0,.82.69,1.51,1.55,1.51s1.54-.69,1.54-1.51c0-9.21-6.77-16.64-14.99-16.64s-14.99,7.43-14.99,16.64c0,.82.69,1.51,1.54,1.51s1.54-.69,1.54-1.51Z" fill="#fff" fill-rule="evenodd" stroke-width="0"/>
  <path d="m2516.17,251.73c0-2.78-2.24-5-4.99-5s-4.99,2.22-4.99,5v4.68c0,2.78,2.23,5,4.99,5s4.99-2.22,4.99-5v-4.68Z" fill="#ff7a3d" fill-rule="evenodd" stroke-width="0"/>
  <path d="m1903.13,513.55c26.98,0,48.85-21.87,48.85-48.85s-21.87-48.85-48.85-48.85-48.85,21.87-48.85,48.85,21.87,48.85,48.85,48.85Z" fill="#3d61ff" stroke-width="0"/>
  <path d="m1903.13,454.27c-11.15,0-21.04,2.95-27.17,7.45-4.41,3.2-6.91,7.23-6.91,11.55s2.51,8.31,6.91,11.51c6.13,4.5,16.01,7.45,27.17,7.45s21.04-2.95,27.17-7.45c4.41-3.2,6.91-7.23,6.91-11.51s-2.51-8.34-6.91-11.55c-6.13-4.5-16.01-7.45-27.17-7.45Zm0,3.09c10.4,0,19.63,2.66,25.35,6.83,3.49,2.55,5.65,5.65,5.65,9.06s-2.16,6.47-5.65,9.03c-5.72,4.17-14.95,6.83-25.35,6.83s-19.63-2.66-25.35-6.83c-3.49-2.55-5.65-5.65-5.65-9.03s2.16-6.51,5.65-9.06c5.72-4.17,14.95-6.83,25.35-6.83Z" fill="#fff" fill-rule="evenodd" stroke-width="0"/>
  <path d="m1903.13,490.51c9.53,0,17.25-7.72,17.25-17.25s-7.72-17.25-17.25-17.25-17.25,7.72-17.25,17.25,7.72,17.25,17.25,17.25Z" fill="#fff" stroke-width="0"/>
  <path d="m1903.13,483.24c5.52,0,9.99-4.47,9.99-9.99s-4.47-9.99-9.99-9.99-10,4.47-10,9.99,4.48,9.99,10,9.99Z" fill="#3d61ff" stroke-width="0"/>
  <circle cx="1896.78" cy="466.93" r="4.69" fill="#fff" stroke-width="0"/>
  <path d="m1903.29,448.03v-9.26c0-.83-.69-1.54-1.54-1.54s-1.54.71-1.54,1.54v9.26c0,.83.69,1.54,1.54,1.54s1.54-.71,1.54-1.54Z" fill="#fff" fill-rule="evenodd" stroke-width="0"/>
  <path d="m1891.98,448.66l-2.98-6.78c-.33-.81-1.25-1.13-2.03-.81-.78.36-1.14,1.26-.8,2.04l2.97,6.82c.34.78,1.25,1.13,2.04.77.77-.32,1.13-1.22.8-2.04Z" fill="#fff" fill-rule="evenodd" stroke-width="0"/>
  <path d="m1914.34,449.92l2.97-6.82c.34-.78-.01-1.68-.8-2.04-.77-.32-1.7,0-2.03.81l-2.98,6.78c-.33.82.02,1.72.8,2.04.79.36,1.7,0,2.04-.77Z" fill="#fff" fill-rule="evenodd" stroke-width="0"/>
  <path d="m1880.58,452.05l-3.9-3.87c-.6-.61-1.58-.63-2.18,0-.6.58-.6,1.57,0,2.18l3.9,3.9c.6.61,1.58.59,2.18,0,.6-.62.6-1.6,0-2.21Z" fill="#fff" fill-rule="evenodd" stroke-width="0"/>
  <path d="m1925.09,454.26l3.9-3.9c.6-.61.6-1.59,0-2.18-.6-.62-1.58-.6-2.18,0l-3.9,3.87c-.6.61-.6,1.59,0,2.21.6.59,1.58.6,2.18,0Z" fill="#fff" fill-rule="evenodd" stroke-width="0"/>
  <path d="m2023.55,349.38s-4.94,2.21-5.6,19.14c-.65,16.88,16.13,58.92,16.13,58.92,0,0,17.17,13.94,41.84-3.54l-3.94-34.13-48.43-40.39Z" fill="#ffc8a3" fill-rule="evenodd" stroke-width="0"/>
  <path d="m2079.94,308.7c-.82-3.26-4.07-5.28-7.34-4.55-11.94,2.66-38.99,8.63-51.43,11.42-1.68.34-3.12,1.42-3.99,2.88-.87,1.5-1.09,3.26-.6,4.9,5.51,18.64,21.54,72.88,26.73,90.44.92,3.14,4.11,5.02,7.29,4.29,11.22-2.49,36.2-8.12,47.86-10.74,1.63-.34,3.05-1.37,3.92-2.79.88-1.42,1.14-3.14.73-4.77-4.69-18.47-18.59-73.09-23.16-91.08Z" fill="#000045" fill-rule="evenodd" stroke-width="0"/>
  <path d="m2030.71,371.23s20.51-18.17,40.1-37.9c1.09-1.06,2.58-1.65,4.12-1.61s2.98.78,3.98,1.93c1.46,1.75,1.6,4.23.34,6.07-4.91,7.41-17.19,25.48-23.8,31.51,0,0,15.38-12.28,25.26-19.09,1.1-.74,2.43-.97,3.71-.64,1.27.28,2.37,1.06,3.05,2.21.06.05.11.14.16.23,1.12,1.84.88,4.23-.59,5.8-5.64,6.12-19.42,20.98-25.01,25.48,0,0,14.77-11.91,22.65-18.26,1.15-.92,2.67-1.24,4.11-.92,1.44.37,2.63,1.33,3.23,2.71.68,1.52.42,3.27-.68,4.55-5.66,6.53-22.79,26.27-22.79,26.27,7.41-5.06,13.41-9.57,20.84-16.15.85-.74,2.01-1.01,3.11-.74s1.98,1.1,2.37,2.16c.64,1.75.39,3.68-.69,5.2-3.54,4.88-12.09,16.01-21.67,23.14l-27.59,6.16-14.23-48.11Z" fill="#ffc8a3" fill-rule="evenodd" stroke-width="0"/>
  <path d="m2179.3,326.93s-11.32,1.1-30.84,38.5c-19.52,37.35-43.8,85.01-43.8,85.01l30.95,112.47s37.43-66.97,50.15-97.47c12.73-30.54-6.47-138.5-6.47-138.5Z" fill="#fa7a3e" fill-rule="evenodd" stroke-width="0"/>
  <path d="m2109.83,440.32l-4.53,8.89v28.84l32.28,46.38s-11.02-61.49-27.75-84.11Z" fill="#cc3d00" fill-rule="evenodd" stroke-width="0"/>
  <path d="m2032.49,423.3s-3.46.74-2.91,6.95c.55,6.21,5.11,17.71,5.11,17.71,0,0-2.34,3.17-1.3,11.04,1.04,7.86,38.61,91.35,58.18,108.1,19.58,16.74,40.5,8.14,48.66-13.2,8.16-21.3-31.87-107.68-44.9-118.12-5.69-4.55-9.27-1.61-9.27-1.61,0,0-6.84-18.77-13.47-16.56l-40.09,5.7Z" fill="#fa7a3e" fill-rule="evenodd" stroke-width="0"/>
  <path d="m2027.23,328.63c2.06,0,3.73-1.67,3.73-3.73s-1.67-3.73-3.73-3.73-3.73,1.67-3.73,3.73,1.67,3.73,3.73,3.73Z" fill="#fff" stroke-width="0"/>
  <path d="m2573.89,1140.63c-164.1-82.05-262.92-234.76-263.44-493.94l264.4-101.32,264.4,101.32c-.52,259.72-99.73,412.48-264.4,494.43l-.96-.49Z" fill="#000045" fill-rule="evenodd" stroke-width="0"/>
  <path d="m2559.06,1132.97c-164.1-82.04-262.92-234.76-263.44-493.94l264.4-101.31,264.4,101.31c-.52,259.72-99.73,412.49-264.4,494.43l-.96-.49Z" fill="#fff" fill-rule="evenodd" stroke-width="0"/>
  <path d="m2559.31,1056.37c-121.84-60.91-195.2-174.29-195.59-366.72l196.3-75.22,196.31,75.22c-.39,192.83-74.05,306.25-196.31,367.09l-.71-.37Z" fill="#3d61ff" fill-rule="evenodd" stroke-width="0"/>
  <path d="m2458.81,833.96l69.95,58.28c10.12,8.42,25.07,7.45,33.98-2.25l100.87-109.66c9.22-10.03,8.57-25.67-1.46-34.91-10.03-9.2-25.67-8.56-34.89,1.47l-84.96,92.36-51.88-43.24c-10.47-8.69-26.06-7.26-34.78,3.18-8.72,10.49-7.3,26.08,3.17,34.77Z" fill="#fff" fill-rule="evenodd" stroke-width="0"/>
  <path d="m2285.3,594.99s-38.44,29.51-49.8,68.08c-.72,2.58.4,5.27,2.71,6.58v.04c1.4.79,3.06.99,4.62.55,1.56-.43,2.87-1.5,3.66-2.89,4.58-8.47,13.8-24.56,20.91-31.57,0,0-2.64,8.08-4,15.97-1.05,6.1,6.31,22.93,9.69,30.26.65,1.38,1.85,2.45,3.31,2.93,1.46.47,3.06.31,4.41-.4.83-.47,1.68-1.11,2.49-1.98,0,0,5.2,2.58,9.65-1.54,0,0,2.02.71,4.19.35,2-.35,3.47-2.1,3.47-4.12.01-5.3.01-18.45.01-18.45v-9.35l11.4-9.78-18.21-44.68h-8.51Z" fill="#ffc8a3" fill-rule="evenodd" stroke-width="0"/>
  <path d="m2365.27,318.01s-34.33,31.92-28.74,93.56l44.68,106.3s-60.02,37.21-69.5,45.03c-9.48,7.77-10.95,16.65-10.95,16.65l-17.67,15.36,28.62,47.89s124.14-48.58,134.41-63.25c10.27-14.63,20.47-47.24,0-105.15-51.45-145.4-80.85-156.39-80.85-156.39Z" fill="#ff7a3d" fill-rule="evenodd" stroke-width="0"/>
  <path d="m2275.85,648.83v9.48c0,.1.05.2.05.3l4.25,21.04c.2.84.99,1.38,1.83,1.24.84-.2,1.38-.99,1.23-1.83l-4.25-20.89v-9.34c0-.84-.69-1.53-1.53-1.53-.89,0-1.58.69-1.58,1.53Z" fill="#e89b68" fill-rule="evenodd" stroke-width="0"/>
  <path d="m2288.1,648.83v9.48s0,.1.05.2l2.37,18.92c.1.89.89,1.48,1.73,1.38.84-.15,1.43-.89,1.34-1.73l-2.38-18.86v-9.39c0-.84-.69-1.53-1.53-1.53s-1.58.69-1.58,1.53Z" fill="#e89b68" fill-rule="evenodd" stroke-width="0"/>
  <g clip-path="url(#clippath)">
    <g clip-path="url(#clippath-1)">
      <g clip-path="url(#clippath-2)">
        <g opacity="0">
          <g clip-path="url(#clippath-3)">
            <rect width="4680" height="3120" fill="#fff" stroke-width="0"/>
          </g>
        </g>
        <path d="m3648.28,825.29c-193.06-186.37-485.14-233.33-741.1-190.25-107.21,18.05-213.55,50.01-323.33,39.95-160.11-14.67-301.15-115.26-446.93-189-198.43-100.37-425.9-154.39-636.86-110.73-239.2,49.53-435.31,236.57-458.71,484.77-10.59,112.47,97.13,310.58,63.13,417.16-34.48,108.08-286.28,439.19-280.08,691.03.28,11.75.9,23.68,1.81,35.73,12.58,166.39,77.65,313.55,175.35,423.31,124.31,139.69,301.47,218.79,490.53,199.78l21.8-2.2.87-.09,5.61-.56,1.89-.19,21.34-2.14,4.65-.47,6.02-.61,4.6-.47,16.12-1.62,5.2-.52,9.39-.95,8.35-.84,1.23-.12,5.74-.58,7.25-.73,7.52-.75,7.54-.76,5.48-.56,3.2-.32,5.73-.58,200.65-20.17c286.03-28.77,574.13-13.49,856.74,43.76,502.92,101.86,763.05-34.96,888.26-208.33,110.14-152.5,115.91-333.28,90.72-404.81-47.74-135.56,81.97-247.22,132.14-373.4,44.65-112.32,59.36-247.38,48.46-369.75-14.87-167.07-86.4-334.42-210.32-454.02" fill="#ffd7be" stroke-width="0"/>
        <path d="m1506.79,1794.97c-118.52,30.49-190.03,165.86-207.41,300.28-17.38,134.42,209.82,526.01,209.82,526.01l5.85,13.14,47.41-27.99c7.64-4.51,11.45-13.47,9.36-22.1-19.7-81.5-54.73-422.17-.68-543.17,58.24-130.37,54.16-276.66-64.36-246.17" fill="#498981" stroke-width="0"/>
        <path d="m1527.89,1817.04c-2.84-.52-6.04,1.12-7.16,3.65-.12.27-12.06,26.86-37.27,53.14-14.06,14.66-21.87,34.75-31.76,60.2-9.25,23.8-20.76,53.41-41.13,87.1-31.07,51.39-18.5,90.42-7.4,124.85,4.34,13.48,8.45,26.22,9.97,39.15,2.55,21.59,1.43,33.86.24,46.86-1.4,15.39-2.85,31.3,1.43,63.29,7.91,59.02,54.64,129.18,56.62,132.14,1.26,1.88,4.12,2.38,6.68,1.28.25-.11.5-.23.75-.37,2.72-1.56,3.8-4.49,2.41-6.55-.48-.71-47.8-71.77-55.48-129.13-4.18-31.16-2.77-46.63-1.4-61.59,1.22-13.42,2.38-26.09-.26-48.46-1.61-13.63-5.81-26.69-10.27-40.52-11.1-34.45-22.58-70.07,6.36-117.94,20.84-34.46,32.52-64.53,41.91-88.69,9.46-24.34,16.94-43.57,29.39-56.56,26.62-27.75,38.95-55.21,39.47-56.36,1.12-2.53-.27-5-3.1-5.52" fill="#63a5a2" stroke-width="0"/>
        <path d="m1884.88,2173.35c-78.45-38.75-180.33,1.27-252.44,66.02-72.11,64.74-131.58,382.91-131.58,382.91l-2.96,9.85,38.75,6.94c6.24,1.12,12.49-1.96,15.38-7.61,27.33-53.35,167.21-254.32,252.93-294.68,92.36-43.49,158.37-124.68,79.92-163.43" fill="#63a5a2" stroke-width="0"/>
        <path d="m1861.12,2215.57c-.2.11-20.5,11.42-49.12,16.19-15.97,2.66-30.53,11.78-48.97,23.33-17.25,10.8-38.71,24.23-67.77,36.05-44.33,18.03-54.89,48.95-64.21,76.23-3.65,10.68-7.09,20.78-12.28,29.77-8.66,15-15.22,22.31-22.17,30.05-8.23,9.16-16.73,18.64-29.24,41.12-23.06,41.47-26.64,108.55-26.78,111.39-.09,1.8,1.5,3.49,3.66,4,.21.05.43.09.65.12,2.48.3,4.57-1.06,4.66-3.04.03-.68,3.66-68.62,26.07-108.92,12.18-21.89,20.45-31.1,28.44-40.01,7.17-7.99,13.95-15.53,22.92-31.08,5.47-9.47,9-19.82,12.74-30.78,9.32-27.29,18.96-55.52,60.25-72.31,29.73-12.09,51.52-25.73,69.03-36.69,17.64-11.04,31.58-19.77,45.72-22.13,30.23-5.04,51.19-16.71,52.06-17.21,1.92-1.08,2.21-3.32.65-5-1.56-1.68-4.4-2.16-6.32-1.08" fill="#498981" stroke-width="0"/>
        <path d="m1155.13,1984.73c-220.24-119.55-483.79-78.33-505.77,26.18-21.98,104.51,211.03,116.83,289.06,217.18,78.03,100.36,150.64,44.99,211.44,80.43s270.33,353.92,270.33,353.92c30.8,3.15,61.85-2.85,89.26-17.24l14.12-7.41s-148.2-533.51-368.44-653.06" fill="#63a5a2" stroke-width="0"/>
        <path d="m1415.66,2441.17c-11.02-24.26-40.06-63.71-73.69-109.39-36.31-49.32-77.45-105.22-108.24-158.21-39.42-67.85-66.95-74.67-112.56-85.97-25.11-6.23-56.36-13.97-99.18-34.58-120.02-57.76-292.4-52.56-294.13-52.5-3.14.11-5.6,2.74-5.49,5.88.11,3.14,2.74,5.6,5.89,5.49,1.7-.06,171.27-5.17,288.8,51.39,43.87,21.11,75.76,29.02,101.38,35.37,44.14,10.94,68.46,16.97,105.45,80.64,31.09,53.52,72.44,109.69,108.91,159.24,33.25,45.17,61.96,84.18,72.49,107.35,21.79,47.96,41.68,157.74,41.88,158.85.56,3.09,3.52,5.15,6.61,4.6.44-.08.86-.21,1.25-.38,2.38-1.02,3.83-3.58,3.35-6.23-.82-4.56-20.34-112.29-42.72-161.54" fill="#498981" stroke-width="0"/>
        <path d="m1187.45,2431.12c-86.61-25.54-228.51-9.6-222.66,41.44,5.86,51.05,96.18,59.27,96.18,59.27,0,0,40.66-6.35,67.86-9.38,27.21-3.04,19.64,25.46,45.67,36.97,26.03,11.51,60.71,11.45,82.11,20.84,21.4,9.38,53.09,8.14,78.38,20.8,16.32,8.18,38.83,34.92,52.74,52.85,7.7,9.93,21.12,13.41,32.66,8.44l20.22-8.7s-166.54-196.99-253.16-222.53" fill="#498981" stroke-width="0"/>
        <path d="m3177.5,2071.65c-94.52,8.19-59.87,116.23,16.26,196.58,70.65,74.57,132.67,332.72,139.23,397.38.69,6.84,5.78,12.42,12.53,13.75l41.87,8.27.9-11.11s65.42-344.81,18.13-438.64c-47.29-93.83-134.41-174.43-228.92-166.24" fill="#498981" stroke-width="0"/>
        <path d="m3358.24,2367.21c-4.21-9.2-8.19-17.89-11.88-34.33-2.21-9.85-2.49-20.22-2.78-31.2-.74-28.03-1.59-59.81-37.53-89.4-23.56-19.4-39.6-38.09-52.48-53.12-13.78-16.06-24.66-28.75-38.71-35.85-25.2-12.73-40.77-29.11-40.92-29.27-1.47-1.56-4.24-1.94-6.18-.83-1.94,1.1-2.32,3.27-.85,4.83.67.71,16.75,17.62,43.36,31.07,12.45,6.29,22.86,18.43,36.04,33.8,13.08,15.25,29.36,34.23,53.46,54.07,33.48,27.56,34.25,56.56,34.99,84.61.3,11.26.58,21.89,2.91,32.27,3.82,17.04,7.93,26.01,12.27,35.5,4.85,10.59,9.85,21.54,14.82,45.4,9.13,43.92-7.19,108.06-7.36,108.7-.48,1.86,1.06,3.73,3.45,4.17.21.04.43.07.64.08,2.15.15,4.11-.96,4.55-2.66.69-2.67,16.81-66,7.41-111.19-5.1-24.5-10.25-35.76-15.23-46.66" fill="#63a5a2" stroke-width="0"/>
        <path d="m3199.93,2428.95c-69.39-28.8-154.18-31.85-201.58,16.66-47.4,48.51,21.76,90.9,100.48,98.95,73.07,7.47,227.06,118.45,260.77,150.43,3.57,3.38,8.93,4.03,13.2,1.61l26.55-15.04-4.7-6.44s-125.34-217.37-194.72-246.17" fill="#63a5a2" stroke-width="0"/>
        <path d="m3306.42,2579.63c-14.93-13.22-23.59-17.96-31.96-22.55-7.07-3.87-13.75-7.53-23.94-16.27-6.1-5.24-11.22-11.73-16.64-18.61-13.83-17.55-29.51-37.45-66.56-39.23-24.29-1.17-43.44-5.47-58.83-8.93-16.45-3.7-29.45-6.62-41.81-4.46-22.16,3.87-39.91.83-40.09.8-1.68-.3-3.63.78-4.34,2.41-.71,1.63.08,3.19,1.76,3.49.77.14,19.1,3.28,42.5-.81,10.95-1.91,23.39.88,39.13,4.42,15.62,3.51,35.06,7.88,59.91,9.07,34.52,1.66,48.82,19.82,62.66,37.38,5.55,7.05,10.8,13.71,17.23,19.23,10.56,9.06,17.46,12.84,24.75,16.83,8.14,4.46,16.56,9.07,31.09,21.94,26.76,23.71,46.89,72.45,47.09,72.94.58,1.42,2.46,1.88,4.19,1.02.16-.08.31-.16.45-.25,1.44-.93,2.17-2.57,1.64-3.87-.83-2.04-20.7-50.17-48.24-74.57" fill="#498981" stroke-width="0"/>
        <path d="m3483.48,2119.95c-130.31,144.08-101.44,572.35-101.44,572.35l12.23,1.79c23.75,3.47,47.99-.13,69.71-10.36,0,0,71.3-286.8,106.64-328.35,35.34-41.56,102.69-19.75,133.93-113.21,31.25-93.46,198.48-162.41,155.52-233.18-42.96-70.77-246.29-33.11-376.6,110.96" fill="#63a5a2" stroke-width="0"/>
        <path d="m3799.99,2021.58c-1.28.4-128.67,40.94-201.58,114.06-26.01,26.08-46.87,39.78-63.63,50.8-30.45,20-48.83,32.07-60.2,91.83-8.88,46.67-24.59,98.13-38.45,143.54-12.84,42.06-23.93,78.38-25.75,98.95-3.7,41.78,9.74,125.58,10.31,129.12.33,2.06,2.05,3.56,4.05,3.7.33.02.67,0,1.01-.05,2.41-.39,4.04-2.65,3.65-5.06-.14-.86-13.83-86.26-10.23-126.93,1.74-19.66,12.7-55.57,25.4-97.15,13.93-45.62,29.71-97.33,38.68-144.47,10.67-56.08,26.91-66.74,56.37-86.1,17.1-11.23,38.39-25.21,65.04-51.94,71.39-71.6,196.72-111.48,197.97-111.87,2.32-.73,3.62-3.2,2.89-5.53-.73-2.33-3.2-3.62-5.53-2.89" fill="#498981" stroke-width="0"/>
        <path d="m3574.68,2454.7c-56.77,40.96-127.88,227.86-127.88,227.86l17.02,1.16c9.72.66,18.64-5.33,21.71-14.57,5.56-16.69,15.14-42.04,24.97-52.22,15.23-15.77,38.73-23.01,51.96-35.37,13.23-12.37,38.61-21.25,54.69-36.36,16.07-15.11,3.21-34,23.89-38.78,20.68-4.78,52.04-10.6,52.04-10.6,0,0,63.93-29.25,55.08-68.09-8.85-38.84-116.71-13.98-173.48,26.97" fill="#498981" stroke-width="0"/>
        <path d="m2372.6,2573.37c-648.21,0-1173.68,41.78-1173.68,93.31s525.47,93.31,1173.68,93.31,1173.68-41.78,1173.68-93.31-525.48-93.31-1173.68-93.31" fill="#992e2e" stroke-width="0"/>
        <path d="m2549.92,561.71h-953.16c-17.74,0-34.48,4.25-49.27,11.79-35.24,17.95-59.35,54.56-59.35,96.83v1914.05c0,60,48.62,108.62,108.62,108.62h953.16c30.15,0,57.4-12.26,77.09-32.08,19.49-19.65,31.54-46.69,31.54-76.55V670.33c0-60-48.62-108.62-108.62-108.62" fill="#161310" stroke-width="0"/>
        <path d="m2590.39,561.71h-953.16c-17.74,0-34.48,4.25-49.27,11.79-35.24,17.95-59.35,54.56-59.35,96.83v1914.05c0,60,48.62,108.62,108.62,108.62h953.16c30.14,0,57.4-12.26,77.09-32.08,19.49-19.65,31.54-46.69,31.54-76.55V670.33c0-60-48.62-108.62-108.62-108.62" fill="#545454" stroke-width="0"/>
        <path d="m1467.59,884.98v122.09c0,14.02,11.36,25.39,25.38,25.39h15.03v-172.86h-15.03c-14.02,0-25.38,11.36-25.38,25.38" fill="#18285d" stroke-width="0"/>
        <path d="m2710.79,859.59h-11.78v172.86h11.78c10.99,0,19.89-8.91,19.89-19.89v-133.08c0-10.99-8.9-19.89-19.89-19.89" fill="#161310" stroke-width="0"/>
        <path d="m2710.79,1086.37h-11.78v172.86h11.78c10.98,0,19.89-8.91,19.89-19.89v-133.08c0-10.98-8.91-19.89-19.89-19.89" fill="#161310" stroke-width="0"/>
        <path d="m2596.96,615.89h-966.3c-3.14,0-6.21.3-9.16.87-3.34.64-6.57,1.63-9.64,2.95-14.75,6.38-25.7,19.9-28.4,36.18-.44,2.55-.66,5.18-.66,7.86v1771.08c0,26.5,21.45,47.86,47.86,47.86h966.3c19.78,0,36.74-11.97,44.06-29.12,2.45-5.77,3.8-12.09,3.8-18.74V663.75c0-26.41-21.43-47.86-47.86-47.86" fill="#75a3db" stroke-width="0"/>
        <path d="m2213.6,2542.7h-182.64c-26.81,0-48.55,21.74-48.55,48.55s21.74,48.55,48.55,48.55h182.64c26.81,0,48.55-21.74,48.55-48.55s-21.74-48.55-48.55-48.55" fill="#828282" stroke-width="0"/>
        <g opacity=".45">
          <g clip-path="url(#clippath-4)">
            <path d="m1621.5,616.76c-3.35.64-6.57,1.63-9.64,2.95-14.75,6.38-25.7,19.9-28.4,36.18-.43,2.55-.66,5.18-.66,7.86v587.1c187.55-207.37,437.1-485.17,564.63-634.96h-516.77c-3.14,0-6.21.3-9.16.87" fill="#b0cdf8" stroke-width="0"/>
            <path d="m1582.8,2434.83c0,26.5,21.45,47.86,47.86,47.86h263.07l751.08-908.94v-810.45c-228.66,249.82-783.6,854.44-1062.02,1157.73v513.8Z" fill="#b0cdf8" stroke-width="0"/>
          </g>
        </g>
        <path d="m2437.85,1149.94h-627.8c-20.54,0-37.35,16.81-37.35,37.35h0c0,20.54,16.81,37.35,37.35,37.35h627.8c20.54,0,37.35-16.81,37.35-37.35h0c0-20.54-16.81-37.35-37.35-37.35" fill="#fff" stroke-width="0"/>
        <path d="m2437.85,1270.25h-627.8c-20.54,0-37.35,16.81-37.35,37.35s16.81,37.35,37.35,37.35h627.8c20.54,0,37.35-16.81,37.35-37.35s-16.81-37.35-37.35-37.35" fill="#fff" stroke-width="0"/>
        <path d="m1914.12,1297.76c-7.26,0-13.15,5.89-13.15,13.15s5.89,13.15,13.15,13.15,13.15-5.89,13.15-13.15-5.89-13.15-13.15-13.15" fill="#e84b4b" stroke-width="0"/>
        <path d="m1959.21,1297.76c-7.26,0-13.15,5.89-13.15,13.15s5.89,13.15,13.15,13.15,13.15-5.89,13.15-13.15-5.89-13.15-13.15-13.15" fill="#e84b4b" stroke-width="0"/>
        <path d="m2004.3,1297.76c-7.26,0-13.15,5.89-13.15,13.15s5.89,13.15,13.15,13.15,13.15-5.89,13.15-13.15-5.89-13.15-13.15-13.15" fill="#e84b4b" stroke-width="0"/>
        <path d="m2049.39,1297.76c-7.26,0-13.15,5.89-13.15,13.15s5.89,13.15,13.15,13.15,13.15-5.89,13.15-13.15-5.89-13.15-13.15-13.15" fill="#e84b4b" stroke-width="0"/>
        <path d="m2094.47,1297.76c-7.26,0-13.15,5.89-13.15,13.15s5.89,13.15,13.15,13.15,13.15-5.89,13.15-13.15-5.89-13.15-13.15-13.15" fill="#e84b4b" stroke-width="0"/>
        <path d="m2139.56,1297.76c-7.26,0-13.15,5.89-13.15,13.15s5.89,13.15,13.15,13.15,13.15-5.89,13.15-13.15-5.89-13.15-13.15-13.15" fill="#e84b4b" stroke-width="0"/>
        <path d="m2184.65,1297.76c-7.26,0-13.15,5.89-13.15,13.15s5.89,13.15,13.15,13.15,13.15-5.89,13.15-13.15-5.89-13.15-13.15-13.15" fill="#e84b4b" stroke-width="0"/>
        <path d="m2229.74,1297.76c-7.26,0-13.15,5.89-13.15,13.15s5.89,13.15,13.15,13.15,13.15-5.89,13.15-13.15-5.89-13.15-13.15-13.15" fill="#e84b4b" stroke-width="0"/>
        <path d="m2274.82,1297.76c-7.26,0-13.15,5.89-13.15,13.15s5.89,13.15,13.15,13.15,13.15-5.89,13.15-13.15-5.89-13.15-13.15-13.15" fill="#e84b4b" stroke-width="0"/>
        <path d="m2124.16,756.79c-79.7,0-144.32,64.61-144.32,144.32s64.61,144.31,144.32,144.31,144.32-64.61,144.32-144.31-64.61-144.32-144.32-144.32" fill="#fff" stroke-width="0"/>
        <path d="m2124.36,804.25c-25.29,0-45.52,20.6-45.52,45.52,0,10.84,3.61,20.6,9.76,28.18,8.31,10.48,21.31,17.34,35.77,17.34s27.1-6.86,35.41-17.34c6.14-7.59,9.76-17.34,9.76-28.18,0-24.93-20.24-45.52-45.16-45.52" fill="#e84b4b" stroke-width="0"/>
        <path d="m2043.98,942.94l-.05,33.48c0,28.73,160.42,28.73,160.42,0l.03-33.48c-13.07-47.69-154.06-45.77-160.4,0" fill="#e84b4b" stroke-width="0"/>
        <path d="m1841.18,1298.71c0-8.1-6.59-14.7-14.7-14.7s-14.7,6.59-14.7,14.7v2h-2.23v26.49c0,4.58,33.95,4.58,33.95,0v-26.49h-2.32v-2Zm-12.2,15.35v7.65c0,1.38-1.18,2.35-2.55,2.35s-2.35-.98-2.35-2.35v-7.65c-1.37-.78-2.36-2.16-2.36-3.93,0-2.55,2.16-4.71,4.71-4.71s4.71,2.16,4.71,4.71c0,1.77-.98,3.14-2.16,3.93m7.06-13.34h-19.02v-2c0-5.08,3.14-9.7,9.46-9.7s9.56,4.32,9.56,9.7v2Z" fill="#992e2e" stroke-width="0"/>
        <path d="m1826.52,1165.37c-5.34,0-9.61,4.35-9.61,9.61,0,2.29.76,4.35,2.06,5.95,1.75,2.21,4.5,3.66,7.55,3.66s5.72-1.45,7.47-3.66c1.3-1.6,2.06-3.66,2.06-5.95,0-5.26-4.27-9.61-9.53-9.61" fill="#992e2e" stroke-width="0"/>
        <path d="m1809.56,1194.64l-.18,7.06c0,6.06,34.03,6.06,34.03,0v-7.06c-2.75-10.06-32.5-9.66-33.84,0" fill="#992e2e" stroke-width="0"/>
        <path d="m2046.43,1176.33h-137.58c-6.03,0-10.96,4.93-10.96,10.96s4.93,10.96,10.96,10.96h137.58c6.03,0,10.96-4.93,10.96-10.96s-4.93-10.96-10.96-10.96" fill="#992e2e" stroke-width="0"/>
        <path d="m2227.88,1176.33h-137.58c-6.03,0-10.96,4.93-10.96,10.96s4.93,10.96,10.96,10.96h137.58c6.03,0,10.96-4.93,10.96-10.96s-4.93-10.96-10.96-10.96" fill="#992e2e" stroke-width="0"/>
        <path d="m2394.87,1446.68h-541.85c-19.55,0-35.4,15.85-35.4,35.4v83.22c0,19.55,15.85,35.4,35.4,35.4h541.85c19.55,0,35.4-15.85,35.4-35.4v-83.22c0-19.55-15.85-35.4-35.4-35.4" fill="#e84b4b" stroke-width="0"/>
        <polygon points="1877.77 1556.85 1897.48 1556.85 1897.48 1532.96 1928.25 1532.96 1928.25 1517.72 1897.48 1517.72 1897.48 1502.39 1932.43 1502.39 1932.43 1487.15 1877.77 1487.15 1877.77 1556.85" fill="#fff" stroke-width="0"/>
        <path d="m1996.1,1490.44c-5.88-3.12-12.5-4.68-19.86-4.68s-13.99,1.56-19.86,4.68c-5.88,3.12-10.49,7.43-13.84,12.94-3.35,5.51-5.03,11.72-5.03,18.62s1.67,13.11,5.03,18.62c3.35,5.51,7.96,9.82,13.84,12.94,5.88,3.12,12.5,4.68,19.86,4.68s13.99-1.56,19.86-4.68c5.87-3.12,10.49-7.43,13.84-12.94,3.35-5.51,5.03-11.71,5.03-18.62s-1.68-13.11-5.03-18.62c-3.35-5.51-7.97-9.82-13.84-12.94m-3.53,41.97c-1.66,3.02-3.92,5.36-6.77,7.02-2.85,1.66-6.04,2.49-9.56,2.49s-6.7-.83-9.56-2.49c-2.85-1.66-5.11-4-6.77-7.02-1.66-3.02-2.49-6.49-2.49-10.4s.83-7.38,2.49-10.41c1.66-3.02,3.92-5.36,6.77-7.02,2.85-1.66,6.04-2.49,9.56-2.49s6.7.83,9.56,2.49c2.85,1.66,5.11,4,6.77,7.02,1.66,3.02,2.49,6.49,2.49,10.41s-.83,7.39-2.49,10.4" fill="#fff" stroke-width="0"/>
        <path d="m2084.62,1526.14c2.35-3.75,3.53-8.15,3.53-13.19s-1.26-9.81-3.78-13.69c-2.52-3.88-6.11-6.87-10.75-8.96-4.65-2.09-10.12-3.14-16.43-3.14h-31.86v69.7h19.71v-18.52h10.75l12.65,18.52h21.11l-15.03-21.91c4.38-2.12,7.75-5.06,10.11-8.81m-19.47-5.68c-2.06,1.76-5.11,2.64-9.16,2.64h-10.95v-20.41h10.95c4.05,0,7.1.9,9.16,2.69,2.06,1.79,3.09,4.32,3.09,7.57s-1.03,5.76-3.09,7.52" fill="#fff" stroke-width="0"/>
        <path d="m2135.25,1502.09c6.57,0,12.21,2.59,16.93,7.77l12.55-11.35c-3.45-4.11-7.77-7.27-12.94-9.46-5.18-2.19-11.02-3.29-17.52-3.29-7.44,0-14.11,1.54-20.01,4.63-5.91,3.09-10.52,7.39-13.84,12.89-3.32,5.51-4.98,11.75-4.98,18.72s1.66,13.21,4.98,18.72c3.32,5.51,7.9,9.81,13.74,12.89,5.84,3.09,12.41,4.63,19.71,4.63,5.18,0,10.35-.76,15.53-2.29,5.18-1.53,9.76-3.72,13.74-6.57v-28.88h-17.42v19.12c-3.32,1.53-6.87,2.29-10.65,2.29s-7.27-.85-10.26-2.54c-2.99-1.69-5.31-4.05-6.97-7.07-1.66-3.02-2.49-6.46-2.49-10.31,0-6.04,1.82-10.87,5.48-14.49,3.65-3.62,8.46-5.43,14.44-5.43" fill="#fff" stroke-width="0"/>
        <path d="m2230.68,1490.44c-5.88-3.12-12.5-4.68-19.86-4.68s-13.99,1.56-19.86,4.68c-5.88,3.12-10.49,7.43-13.84,12.94-3.35,5.51-5.03,11.72-5.03,18.62s1.67,13.11,5.03,18.62c3.35,5.51,7.97,9.82,13.84,12.94,5.88,3.12,12.5,4.68,19.86,4.68s13.99-1.56,19.86-4.68c5.87-3.12,10.49-7.43,13.84-12.94,3.35-5.51,5.03-11.71,5.03-18.62s-1.68-13.11-5.03-18.62c-3.35-5.51-7.97-9.82-13.84-12.94m-3.53,41.97c-1.66,3.02-3.92,5.36-6.77,7.02-2.85,1.66-6.04,2.49-9.56,2.49s-6.71-.83-9.56-2.49c-2.85-1.66-5.11-4-6.77-7.02-1.66-3.02-2.49-6.49-2.49-10.4s.83-7.38,2.49-10.41c1.66-3.02,3.92-5.36,6.77-7.02,2.85-1.66,6.04-2.49,9.56-2.49s6.7.83,9.56,2.49c2.85,1.66,5.11,4,6.77,7.02,1.66,3.02,2.49,6.49,2.49,10.41s-.83,7.39-2.49,10.4" fill="#fff" stroke-width="0"/>
        <polygon points="2252.34 1502.79 2273.75 1502.79 2273.75 1556.85 2293.46 1556.85 2293.46 1502.79 2314.77 1502.79 2314.77 1487.16 2252.34 1487.16 2252.34 1502.79" fill="#fff" stroke-width="0"/>
        <path d="m2347.63,1537.04c-3.32,0-6.02.96-8.12,2.89-2.09,1.93-3.14,4.38-3.14,7.37s1.06,5.39,3.19,7.42c2.12,2.03,4.81,3.04,8.07,3.04s6.04-1.01,8.16-3.04c2.12-2.02,3.19-4.5,3.19-7.42s-1.06-5.44-3.19-7.37c-2.12-1.92-4.85-2.89-8.16-2.89" fill="#fff" stroke-width="0"/>
        <path d="m2365.6,1490.69c-4.81-3.29-11.17-4.93-19.07-4.93-7.04,0-13.04,1.3-18.02,3.88-4.98,2.59-8.83,6.21-11.55,10.85l14.84,7.96c1.33-2.26,3.07-4.02,5.23-5.28,2.16-1.26,4.56-1.89,7.22-1.89s4.7.58,6.32,1.74c1.63,1.16,2.44,2.71,2.44,4.63,0,1.39-.47,2.7-1.39,3.93-.93,1.23-2.36,2.74-4.28,4.53-2.79,2.59-4.91,4.96-6.37,7.12-1.46,2.16-2.19,4.9-2.19,8.21h17.72c0-1.79.53-3.37,1.59-4.73,1.06-1.36,2.72-3,4.98-4.93,2.06-1.79,3.73-3.4,5.03-4.83,1.3-1.43,2.41-3.19,3.34-5.28.93-2.09,1.39-4.5,1.39-7.22,0-5.91-2.41-10.5-7.22-13.79" fill="#fff" stroke-width="0"/>
        <path d="m1856.32,2382.11c0,43.75,535.26,43.75,535.26,0v-393.64h-535.26v393.64Z" fill="#ffab1d" stroke-width="0"/>
        <path d="m2123.95,2071.07c-36.5,0-66.08,29.59-66.08,66.08s29.59,66.08,66.08,66.08,66.08-29.59,66.08-66.08-29.59-66.08-66.08-66.08" fill="#161310" stroke-width="0"/>
        <path d="m2096.86,2309.08c0,14.96,12.13,27.09,27.09,27.09s27.09-12.13,27.09-27.09v-151.57h-54.17v151.57Z" fill="#161310" stroke-width="0"/>
        <path d="m2123.96,1713.19c-121.71,0-220.73,99.02-220.73,220.73v54.56h54.17v-54.56c0-91.84,74.72-166.55,166.55-166.55s166.54,74.71,166.54,166.55v54.56h54.17v-54.56c0-121.71-99.02-220.73-220.71-220.73" fill="gray" stroke-width="0"/>
        <path d="m2290.49,2310.75c-23.53,60.55-330.83,72.19-434.18,56.97v14.39c0,43.75,535.26,43.75,535.26,0v-393.64h-95.3s21.97,250.85-5.79,322.28" fill="#ff8d0f" stroke-width="0"/>
        <path d="m2147.03,1732.06c-3.57-.41-6.79,2.15-7.2,5.72-.41,3.57,2.15,6.79,5.72,7.2,40.56,4.65,97.08,23.54,135.97,87.09,1.22,2,3.36,3.11,5.55,3.11,1.16,0,2.33-.31,3.39-.96,3.06-1.87,4.02-5.88,2.15-8.94-41.62-68.03-102.14-88.24-145.58-93.22" fill="#fff" stroke-width="0"/>
        <path d="m2548.47,1262.52c-24.9,0-45.08,20.19-45.08,45.08s20.18,45.08,45.08,45.08,45.08-20.18,45.08-45.08-20.18-45.08-45.08-45.08" fill="#e84b4b" stroke-width="0"/>
        <polygon points="2552.67 1317.07 2553.88 1282.88 2543.13 1282.88 2544.26 1317.07 2552.67 1317.07" fill="#fff" stroke-width="0"/>
        <path d="m2548.47,1322.03c-3.01,0-5.64,2.41-5.64,6.09,0,3.46,2.48,6.01,5.71,6.01s5.56-2.56,5.56-6.01c0-3.68-2.41-6.09-5.64-6.09" fill="#fff" stroke-width="0"/>
        <path d="m3185.09,767.25c4.32-15.55-.27-45.88-25.78-74.33-29.06-32.42-53.62-41.32-76.15-41.32-14.15,0-27.5,3.52-40.66,6.92-5.97,2.92-12.34,5.03-18.93,5.86-17.49,2.24-93.68,32.55-102.27,104.74-10.93,91.99,7.07,84.84-29.21,107.11-36.29,22.27-38.58,13.71-39.09,65.34-.51,51.64-60.73,73.03-60.73,73.03l19.74,17.19,32.64-15.68-25.72,29.19s256.72,90.57,354.26,39.91l19.71-99.22c8.65-43.51,10.01-88.17,4-132.12l-11.81-86.63Zm-76.64,323.84l-21.16-2.28s41.8-98.35,45.08-140.95c3.28-42.61,12.96,82.58-23.91,143.23" fill="#52271f" stroke-width="0"/>
        <path d="m3151.69,2544.14l-.38.02,14.72-233.41-108.41,12.39,9.21,225.56-1.79,76.71c-.28,9.46,4.75,18.26,13.03,22.85,19.33,10.71,54.69,29.1,73.62,31.56,26.93,3.49,48.06,2.62,62.01,0,13.95-2.62,18.31-20.05,3.49-38.37-14.82-18.31-65.49-97.31-65.49-97.31" fill="#f19b6d" stroke-width="0"/>
        <path d="m2842.36,2316.95v216.82s-49.56,51.11-66.59,63.54c-17.03,12.43-69.69,44.87-58.85,60.35s89.82,15.49,105.31,7.74c15.49-7.74,85.18-18.58,89.82-29.43,4.65-10.84,12.83-111.86,12.83-111.86h0l27.44-207.17h-109.96Z" fill="#f19b6d" stroke-width="0"/>
        <path d="m2879.22,1452.32c-109.05,277.01-58.39,1036.96-58.39,1036.96l126.27,7.16,69.63-820.23,40.7,817.9,121.13-15.68s36.04-404.18,46.41-649.45c10.38-245.27-37.92-376.66-37.92-376.66h-307.83Z" fill="#523300" stroke-width="0"/>
        <path d="m3084.47,1465.93l-124.71,7.3c-1.95.11-3.44,1.79-3.33,3.74.11,1.88,1.67,3.33,3.53,3.33.07,0,.14,0,.21,0l124.71-7.3c1.95-.11,3.44-1.79,3.33-3.74-.11-1.95-1.79-3.43-3.74-3.33" fill="#704500" stroke-width="0"/>
        <path d="m2982.71,1565.3c-1.81-.73-3.88.14-4.61,1.95-.73,1.81.14,3.88,1.95,4.61,12.51,5.07,21.87,23.53,27.08,53.38,4.06,23.26,4.07,45.21,4.07,45.43,0,1.95,1.58,3.54,3.53,3.55h0c1.95,0,3.54-1.58,3.54-3.53,0-3.71-.22-91.06-35.57-105.38" fill="#704500" stroke-width="0"/>
        <path d="m3168.98,2444.78l-96.09,10.46c-1.94.21-3.35,1.96-3.14,3.9.2,1.81,1.73,3.16,3.51,3.16.13,0,.26,0,.39-.02l96.09-10.46c1.94-.21,3.35-1.96,3.14-3.9-.21-1.94-1.96-3.35-3.9-3.14" fill="#704500" stroke-width="0"/>
        <path d="m2935.67,2449.99l-93.28-.96h-.04c-1.94,0-3.52,1.56-3.54,3.5-.02,1.95,1.55,3.55,3.5,3.58l93.28.96h.04c1.94,0,3.52-1.56,3.54-3.5.02-1.96-1.55-3.56-3.5-3.58" fill="#704500" stroke-width="0"/>
        <path d="m3149.24,1620.83c-.26-1.94-2.03-3.3-3.97-3.05-1.94.26-3.3,2.03-3.05,3.97.06.44,5.84,44.62,11.1,100.7,4.84,51.71,10.22,124.39,8.3,177.01-.07,1.95,1.45,3.59,3.41,3.67.04,0,.09,0,.13,0,1.9,0,3.46-1.5,3.53-3.41,1.93-53.01-3.47-126.03-8.33-177.95-5.27-56.21-11.06-100.5-11.12-100.94" fill="#704500" stroke-width="0"/>
        <path d="m3166.34,1986.64c-1.95-.18-3.67,1.27-3.84,3.22-5.09,57.86-10.11,428.56-10.16,432.3-.03,1.95,1.54,3.56,3.49,3.59h.05c1.93,0,3.51-1.55,3.54-3.49.05-3.73,5.07-374.17,10.14-431.77.17-1.95-1.27-3.66-3.21-3.84" fill="#704500" stroke-width="0"/>
        <path d="m2895.16,1647.95c-1.94-.23-3.7,1.18-3.92,3.12-.23,2.06-23.48,208.34-33.11,372.96-9.63,164.64-8.5,395.88-8.49,398.2.01,1.95,1.59,3.52,3.54,3.52h.02c1.95-.01,3.53-1.6,3.52-3.56-.01-2.32-1.14-233.33,8.47-397.75,9.62-164.43,32.84-370.51,33.08-372.57.22-1.94-1.18-3.69-3.12-3.92" fill="#704500" stroke-width="0"/>
        <path d="m2920.62,2571.78s-25.62,18.54-78.9,30.95c-53.29,12.41-60.87,3.93-65.95-5.42,0,0-66.51,43.38-74.21,56.16-9.77,16.22,33.47,38.39,90.52,29.93,57.42-8.52,126.65-35.4,130.66-36.86,4.01-1.46,0-50.73,0-50.73l-2.12-24.01Z" fill="#5360a6" stroke-width="0"/>
        <path d="m3178.33,2585.1s10.35,19.7-6.68,28.46c-17.03,8.76-50.61-2.67-72.51-14.23-21.9-11.56-32.85-27.54-32.85-27.54,0,0-5.59,55.89-4.13,66.11,1.46,10.22,32.13,19.9,48.02,26.99,15.89,7.08,40.06,20.7,67.8,25.57,27.74,4.87,47.2,2.43,59.86-4.38,12.65-6.81,8.76-18.98-8.76-38.93-17.52-19.95-42.61-57.4-50.75-62.04" fill="#5360a6" stroke-width="0"/>
        <path d="m2801.93,830.4l38.91,29.18s13.49-5.96-.16-75.3l-38.75,46.12Z" fill="#6f3428" stroke-width="0"/>
        <path d="m2975.35,685.57c-23.18,1.77-46.37,8.64-69.57,20.58l-29.18,64.64,14.29,42.94,22.65-3.11c13.59-15.27,19.24-63.63,24.91-79.93,5.67-16.3,32.09-21.55,32.09-21.55l15.91-8.18-20.96-3.01,9.86-12.38Z" fill="#f9b384" stroke-width="0"/>
        <polygon points="2840.68 784.44 2824.04 863.63 2890.9 813.73 2906.7 785.44 2876.61 770.79 2840.68 784.44" fill="#f9b384" stroke-width="0"/>
        <path d="m3223.94,838.88l33.57-29.18-33.57-38.59c-16.63,49.89,0,67.77,0,67.77" fill="#6f3428" stroke-width="0"/>
        <path d="m3094.09,685.34l10.79,11.57-20.67,4.62,16.5,6.92s21.25,7.77,28.17,23.58c6.91,15.81,42.59,55.59,45.22,73.81l14.14.69,10.91-43.92-44.25-61.96-60.82-15.33Z" fill="#f9b384" stroke-width="0"/>
        <polygon points="3199.15 762.63 3170.29 779.57 3188.24 806.55 3258.77 851.11 3230.53 772.67 3199.15 762.63" fill="#f9b384" stroke-width="0"/>
        <path d="m3222.98,989.79l-150.12-24.81-87.31-2.8-132.23,45.9c-10.85,105.55,5.25,207.06,6.98,307.24,1.2,69.31-20.35,157.71-17.71,206.08h382.51c.7-52.38-22-120.3-18.7-196.84,4.61-106.95,33.71-229.07,16.57-334.77" fill="#e84b4b" stroke-width="0"/>
        <path d="m2840.84,859.58c-8.92-16.88-7.78-43.09-.16-75.3,0,0-195,10.98-256.5,107.62-61.5,96.64,271.09,292.43,271.09,292.43l61.5-169.43-189.51-100.4,113.58-54.91Z" fill="#e84b4b" stroke-width="0"/>
        <path d="m3223.94,771.1c10.98,11.61,6.47,49.35,0,67.77l130.78,80.64-217.38,86.91,77.19,169.12s317.21-175.71,273.29-277.36c-45.43-105.15-263.87-127.07-263.87-127.07" fill="#e84b4b" stroke-width="0"/>
        <path d="m3071.85,1045.22c-7.07,2.6-14.33,4.67-21.74,6.05-7.43,1.33-14.96,1.99-22.51,2.3-15.12.59-30.28-1.01-45.23-3.63-7.48-1.33-14.89-3.05-22.23-5.03-7.34-1.95-14.67-4.15-21.75-6.85l-.58,1.35c14.13,6.09,28.89,10.53,43.96,13.65,15.07,3.09,30.5,4.64,45.95,4.24,7.72-.24,15.43-1.1,23.05-2.51,7.59-1.53,15.09-3.62,22.29-6.52,7.19-2.94,13.99-6.74,20.38-11.1,6.33-4.48,11.95-9.84,17.15-15.51l-1.08-1c-10.69,10.8-23.57,19.2-37.65,24.55" fill="#6f3428" stroke-width="0"/>
        <path d="m3225.33,1113.53c-1.05,7.05-1.83,14.12-2.77,21.18-.81,7.07-1.57,14.15-2.27,21.24-.64,7.09-1.25,14.19-1.59,21.32l1.46.17c1.32-7.01,2.37-14.06,3.39-21.1.96-7.06,1.86-14.12,2.71-21.19.73-7.08,1.6-14.15,2.22-21.24.66-7.09,1.26-14.19,1.64-21.31l-1.46-.17c-1.28,7.02-2.33,14.06-3.34,21.11" fill="#6f3428" stroke-width="0"/>
        <path d="m2855.2,1130.89c-.29-8.28-.64-16.55-1.2-24.82l-1.47.02c-.33,8.28-.44,16.57-.5,24.85-.1,8.28.06,16.56.08,24.84.13,8.28.32,16.56.57,24.83l2.73,24.8c.38-8.29.48-16.57.56-24.85.02-8.28-.03-16.56-.13-24.84-.22-8.28-.29-16.56-.62-24.83" fill="#6f3428" stroke-width="0"/>
        <path d="m3368.75,925.3c-8.85-4.95-17.67-9.96-26.75-14.57l-.78,1.25c4.09,3.07,8.33,5.9,12.61,8.66,4.27,2.79,8.65,5.39,13.07,7.93,4.43,2.52,8.92,4.95,13.54,7.15,4.62,2.18,9.29,4.3,14.22,5.82l.56-1.36c-4.46-2.4-8.87-4.87-13.26-7.38l-13.22-7.49Z" fill="#6f3428" stroke-width="0"/>
        <path d="m2732.57,909.53c-5.2,2.02-10.34,4.18-15.47,6.38-5.11,2.22-10.22,4.45-15.26,6.85-5.06,2.36-10.09,4.76-15.04,7.37l.58,1.35c5.3-1.78,10.52-3.77,15.71-5.8,5.21-2,10.35-4.16,15.49-6.33,5.13-2.19,10.23-4.43,15.28-6.8,5.05-2.38,10.09-4.77,15.02-7.42l-.58-1.35c-5.32,1.74-10.53,3.74-15.73,5.75" fill="#6f3428" stroke-width="0"/>
        <path d="m2816.54,799.73c-5.22,8.33-7.8,18.31-7.95,28.21-.05,4.96.5,9.94,1.75,14.74,1.25,4.79,3.07,9.44,5.66,13.62l1.32-.64c-1.63-4.5-2.96-9.04-3.77-13.68-.82-4.63-1.25-9.31-1.21-14,.04-9.39,1.95-18.71,5.51-27.58l-1.31-.67Z" fill="#6f3428" stroke-width="0"/>
        <path d="m3252.3,791.53c-.64,7.57-1.5,14.96-3.05,22.25-1.52,7.3-3.75,14.42-6.35,21.55l1.32.66c4.21-6.48,7.02-13.85,8.69-21.42,1.64-7.58,2.11-15.46.86-23.1l-1.47.06Z" fill="#6f3428" stroke-width="0"/>
        <path d="m2919.52,1416.79c-3.27-.11-3.61-.13-4.28.72l3.04,2.38c-.41.52-.97.69-1.23.7.24-.01,1.25.02,2.33.06,2.94.1,6.15.17,9.61.17,51.76,0,157.79-14.19,218.42-121.42l-3.37-1.9c-63.63,112.54-178.22,120.92-224.52,119.29" fill="#38261f" stroke-width="0"/>
        <path d="m3066.62,888.55l-95.9,15.23-.26,73.62-.14,37.94s19.29,12.72,52.91,12.72,54.81-14.27,54.81-14.27l-1.79-126.77-9.64,1.53Z" fill="#f19b6d" stroke-width="0"/>
        <path d="m2970.47,977.4c19.91.46,82.08-3.04,94.73-78.09.63-3.73,1.1-7.32,1.42-10.76l-95.89,15.23-.26,73.62Z" fill="#ef7c58" stroke-width="0"/>
        <path d="m3081.29,671.5c-37.91-16.54-77.67-9.26-88.81,16.27-11.14,25.53,10.55,59.64,48.46,76.18,37.91,16.54,77.67,9.26,88.81-16.27,11.14-25.53-10.55-59.64-48.46-76.19" fill="#fd3873" stroke-width="0"/>
        <path d="m3009.16,751.74c-17.56-30.47-5.6-59.27-1.52-67.38l-3.07-1.54c-4.28,8.49-16.81,38.68,1.61,70.64,15.52,26.95,47.74,45.06,84.06,47.27l.21-3.43c-35.19-2.14-66.34-19.59-81.29-45.56" fill="#52271f" stroke-width="0"/>
        <path d="m3057.88,685.81c-64.72-14.1-106.49,22.2-119.42,81.55,0,0-3.71,41.41-4.24,44.52-.07.41-27.44,65.43,25.88,126.95,3.01,3.48,7.63,4.73,12.28,5.7,96.84,20.09,105.34-75.84,105.34-75.84,1.8-4.71,44.3-50.49,45.4-55.55,12.93-59.34-.52-113.23-65.24-127.33" fill="#f19b6d" stroke-width="0"/>
        <path d="m3014.02,682.27c-45.97,5.65-93.71,38.4-95.73,84.3l37.67,3.31s7.04-29.86,18.2-42.74l-1.16,41.67s79.74,10.66,113.54,22.03c0,0-22.61,59.78-5.67,66.65,0,0,67.2-.58,56.29-85.42-10.91-84.84-77.16-95.44-123.14-89.79" fill="#52271f" stroke-width="0"/>
        <path d="m3043.18,794.06c-.89-.59-22.71-11.6-27.44-7.24-1.88,1.74-2.31,5.47-.95,8.06,2.3,4.39,8.29,2.81,21.78,7.08,6.33,2,8.83,3.56,9.48,2.68,1.11-1.5,3.85-6.08-2.87-10.58" fill="#52271f" stroke-width="0"/>
        <path d="m2947.34,783.69c-6.34,2.06-6.44,5.77-5.9,7.2.31.84,2.65.17,8.11,0,11.64-.35,16.03,2.25,18.84-.72,1.66-1.75,2.16-4.8,1.06-6.59-2.76-4.51-21.27-.17-22.1.1" fill="#52271f" stroke-width="0"/>
        <path d="m2977.12,829.91l-2.27-2.67c-7.81,6.62-11.3,12.87-10.38,18.59,1.21,7.46,9.45,10.87,9.8,11.01l1.31-3.25c-.07-.03-6.78-2.82-7.66-8.33-.69-4.36,2.48-9.66,9.19-15.34" fill="#38261f" stroke-width="0"/>
        <path d="m3104.25,824.17c-17.27-4.52-35.32,7.32-40.32,26.44-5,19.12,4.95,38.28,22.22,42.8,17.27,4.52,35.32-7.32,40.32-26.44,5-19.12-4.94-38.28-22.22-42.8" fill="#f19b6d" stroke-width="0"/>
        <path d="m3095.03,844.3c-5.63,2.15-9.99,7.42-12.96,15.64l-.76,2.11,2.23.23c3.39.34,12.64,2.31,14.72,7.23l3.23-1.36c-2.53-6-11.18-8.27-15.34-9.02,2.53-6.05,5.92-9.93,10.1-11.54,5.62-2.16,10.89.57,10.94.6l1.66-3.09c-.27-.15-6.68-3.53-13.81-.8" fill="#38261f" stroke-width="0"/>
        <path d="m3037.44,876.22c-.69,17.12,9.34,32.17,24.1,38.73,14.64-21.64,16.82-46.12,16.82-46.12,2.21-15.21,1.28-31.52,1.28-31.52-22.4-.91-41.3,16.52-42.2,38.92" fill="#ef7c58" stroke-width="0"/>
        <path d="m2930.29,825.12c-3.25,14.25-6.04,38.62,2.68,66.14,9.17-7.08,15.27-18.01,15.78-30.49.6-14.83-6.86-28.09-18.46-35.65" fill="#ef7c58" stroke-width="0"/>
        <path d="m3027.4,815.92c-2.47-.59-5.29,2.37-6.3,6.61-1.01,4.24.18,8.15,2.65,8.74,2.47.59,5.29-2.37,6.3-6.61,1.01-4.24-.18-8.15-2.65-8.74" fill="#38261f" stroke-width="0"/>
        <path d="m2955.28,808.62c-2.25-.54-4.82,2.16-5.74,6.03-.92,3.86.16,7.43,2.41,7.96,2.25.54,4.82-2.16,5.74-6.02.92-3.86-.16-7.43-2.41-7.97" fill="#38261f" stroke-width="0"/>
        <path d="m3079.61,701.22c-26-11.87-55.16-11.6-52.79-10.99,22.86,5.86,37.88,15,37.39,17.07-.57,2.38-53.02-8.84-53.7-6.05-.37,1.52,15.38,3.7,34.66,14.8,21.08,12.15,35.03,28.44,38.09,25.87,1.62-1.36-1.68-6.5-.04-7.76,3.74-2.86,25.13,20.3,27.83,18.05,1.5-1.25-4.37-8.96-2.38-11.03,2.9-3.01,18.45,9.99,20.12,8.22,2.16-2.3-15.9-32.99-49.17-48.18" fill="#814530" stroke-width="0"/>
        <path d="m2972.68,881.91c-10.06,1.16-15.13,7.91-15.34,8.2l3.11,2.3c.04-.06,4.38-5.74,12.75-6.67,8.55-.95,18.23,3.16,28.78,12.2l2.52-2.94c-11.43-9.8-22.14-14.21-31.82-13.1" fill="#38261f" stroke-width="0"/>
        <path d="m3290.08,650.14c-18.37-4.03-36.5,7.58-40.59,26.24-4.03,18.37,7.58,36.5,25.94,40.53,18.66,4.09,36.79-7.52,40.82-25.89,4.09-18.66-7.52-36.79-26.18-40.88" fill="#5360a6" stroke-width="0"/>
        <path d="m3330.98,467.81c-34.05-7.47-56.94,2.94-71.05,14.75-12.05,10.08-11.81,28.67.55,38.38l1.83,1.44c8.63,6.78,20.57,5.86,28.93-1.26,7.29-6.21,17.17-10.28,29.41-7.59,13.12,2.88,21.44,15.09,18.37,29.08-4.54,20.7-21.35,17.93-41.63,25.4-14.98,5.58-17.86,15.95-20.67,28.78l-3.39,15.45c-1.98,9.02,3.73,17.93,12.75,19.91l15.45,3.39c9.02,1.98,17.93-3.73,19.91-12.75,2.11-9.62,4.19-17.72,15.06-19.92,30.61-5.81,55.73-18.64,62-47.21,9.02-41.11-23.79-78.25-67.52-87.84" fill="#5360a6" stroke-width="0"/>
        <path d="m3403.14,710.38c-10.91-9.27-27.25-7.94-36.66,3.15-9.27,10.91-7.94,27.25,2.97,36.51,11.08,9.42,27.42,8.09,36.69-2.83,9.42-11.08,8.09-27.42-3-36.83" fill="#5360a6" stroke-width="0"/>
        <path d="m3495.76,602.4c-20.23-17.18-39.33-18.36-53.04-15.46-11.7,2.48-18.18,15.06-13.34,26l.72,1.62c3.38,7.64,11.74,11.28,19.9,9.48,7.12-1.57,15.21-.78,22.49,5.4,7.79,6.62,9.03,17.8,1.97,26.12-10.44,12.3-20.76,4.43-37.06,2.21-12.06-1.6-17.7,4.34-24.18,11.97l-7.8,9.18c-4.55,5.36-3.9,13.39,1.46,17.94l9.18,7.79c5.36,4.55,13.39,3.9,17.94-1.46,4.85-5.72,9.15-10.42,17.24-8.01,22.66,7.02,44.13,7.37,58.54-9.6,20.74-24.42,11.95-61.1-14.02-83.17" fill="#5360a6" stroke-width="0"/>
        <path d="m4003.24,1295.92h-623.93c-15.94,0-28.86,12.92-28.86,28.85v302.3c0,15.94,12.92,28.85,28.86,28.85h623.93c15.94,0,28.86-12.92,28.86-28.85v-302.3c0-15.94-12.92-28.85-28.86-28.85" fill="#fec53a" stroke-width="0"/>
        <polygon points="3414.24 1734.33 3511.94 1644.46 3414.24 1644.46 3414.24 1734.33" fill="#fec53a" stroke-width="0"/>
        <polygon points="3481.27 1408.02 3462.35 1362.62 3441.04 1362.62 3470.81 1432.32 3490.23 1432.32 3520.1 1362.62 3500.58 1362.62 3481.27 1408.02" stroke-width="0"/>
        <polygon points="3543.7 1404.34 3574.66 1404.34 3574.66 1389.6 3543.7 1389.6 3543.7 1377.85 3578.84 1377.85 3578.84 1362.62 3524.18 1362.62 3524.18 1432.32 3580.14 1432.32 3580.14 1417.08 3543.7 1417.08 3543.7 1404.34" stroke-width="0"/>
        <path d="m3650.38,1401.6c2.35-3.75,3.53-8.15,3.53-13.19s-1.26-9.81-3.78-13.69c-2.52-3.88-6.11-6.87-10.75-8.96-4.65-2.09-10.12-3.14-16.43-3.14h-31.86v69.7h19.71v-18.52h10.75l12.65,18.52h21.11l-15.03-21.91c4.38-2.12,7.75-5.06,10.11-8.81m-19.47-5.68c-2.06,1.76-5.11,2.64-9.16,2.64h-10.95v-20.41h10.95c4.05,0,7.1.9,9.16,2.69,2.06,1.79,3.09,4.32,3.09,7.57s-1.03,5.76-3.09,7.52" stroke-width="0"/>
        <rect x="3664.77" y="1362.62" width="19.71" height="69.7" stroke-width="0"/>
        <polygon points="3698.52 1432.32 3718.24 1432.32 3718.24 1408.42 3749 1408.42 3749 1393.19 3718.24 1393.19 3718.24 1377.85 3753.19 1377.85 3753.19 1362.62 3698.52 1362.62 3698.52 1432.32" stroke-width="0"/>
        <rect x="3762.45" y="1362.62" width="19.71" height="69.7" stroke-width="0"/>
        <polygon points="3815.71 1404.34 3846.68 1404.34 3846.68 1389.6 3815.71 1389.6 3815.71 1377.85 3850.86 1377.85 3850.86 1362.62 3796.2 1362.62 3796.2 1432.32 3852.16 1432.32 3852.16 1417.08 3815.71 1417.08 3815.71 1404.34" stroke-width="0"/>
        <path d="m3916.38,1366.9c-5.91-2.85-12.68-4.28-20.31-4.28h-32.96v69.7h32.96c7.63,0,14.4-1.43,20.31-4.28,5.91-2.85,10.49-6.9,13.74-12.15,3.25-5.24,4.88-11.38,4.88-18.42s-1.63-13.18-4.88-18.42c-3.25-5.24-7.83-9.29-13.74-12.15m-6.72,44.61c-3.62,3.39-8.41,5.08-14.39,5.08h-12.45v-38.23h12.45c5.97,0,10.77,1.69,14.39,5.08,3.62,3.39,5.43,8.07,5.43,14.04s-1.81,10.65-5.43,14.04" stroke-width="0"/>
        <path d="m3948.71,1483.49h-502.05c-8.69,0-15.73,7.04-15.73,15.73v71.72c0,8.69,7.04,15.73,15.73,15.73h502.05c8.69,0,15.73-7.04,15.73-15.73v-71.72c0-8.69-7.04-15.73-15.73-15.73" fill="#fff" stroke-width="0"/>
        <polygon points="3558.2 1521.14 3546.47 1528.29 3546.8 1515.33 3534.07 1515.33 3534.41 1528.29 3522.68 1521.14 3516.31 1531.86 3527.71 1538.12 3516.31 1544.26 3522.68 1554.98 3534.41 1547.94 3534.07 1560.79 3546.8 1560.79 3546.47 1547.94 3558.2 1554.98 3564.67 1544.26 3553.28 1538.12 3564.67 1531.86 3558.2 1521.14" fill="#e84b4b" stroke-width="0"/>
        <polygon points="3662.99 1521.14 3651.26 1528.29 3651.6 1515.33 3638.87 1515.33 3639.2 1528.29 3627.47 1521.14 3621.11 1531.86 3632.5 1538.12 3621.11 1544.26 3627.47 1554.98 3639.2 1547.94 3638.87 1560.79 3651.6 1560.79 3651.26 1547.94 3662.99 1554.98 3669.47 1544.26 3658.08 1538.12 3669.47 1531.86 3662.99 1521.14" fill="#e84b4b" stroke-width="0"/>
        <polygon points="3767.78 1521.14 3756.06 1528.29 3756.39 1515.33 3743.66 1515.33 3743.99 1528.29 3732.27 1521.14 3725.9 1531.86 3737.29 1538.12 3725.9 1544.26 3732.27 1554.98 3743.99 1547.94 3743.66 1560.79 3756.39 1560.79 3756.06 1547.94 3767.78 1554.98 3774.26 1544.26 3762.87 1538.12 3774.26 1531.86 3767.78 1521.14" fill="#e84b4b" stroke-width="0"/>
        <polygon points="3872.58 1521.14 3860.85 1528.29 3861.19 1515.33 3848.45 1515.33 3848.79 1528.29 3837.06 1521.14 3830.69 1531.86 3842.09 1538.12 3830.69 1544.26 3837.06 1554.98 3848.79 1547.94 3848.45 1560.79 3861.19 1560.79 3860.85 1547.94 3872.58 1554.98 3879.06 1544.26 3867.66 1538.12 3879.06 1531.86 3872.58 1521.14" fill="#e84b4b" stroke-width="0"/>
        <path d="m1582.77,473.62s-96.5,90.44-262.74,171.14c0,0,38.32,307.31,101.41,376.46,75.8,83.02,130.76,70.83,161.33,113.66,0,0,0-.06.06-.06,30.57-42.77,85.54-30.64,161.27-113.6,63.09-69.15,101.47-376.46,101.47-376.46-163.65-79.41-259.77-168.3-262.73-171.07l-.06-.07Z" fill="#ffc800" stroke-width="0"/>
        <path d="m1320.04,644.76s38.32,307.31,101.4,376.46c75.8,83.02,130.76,70.83,161.33,113.66,0,0,0-.06.06-.06V473.68l-.06-.07s-96.5,90.44-262.74,171.14" fill="#f48400" stroke-width="0"/>
        <path d="m1582.84,1134.81c30.57-42.77,85.54-30.64,161.27-113.6,63.09-69.15,101.47-376.46,101.47-376.46-163.65-79.41-259.77-168.3-262.74-171.07v661.13Z" fill="#f48400" stroke-width="0"/>
        <path d="m1360.81,669.51s32.36,259.6,85.64,318.04c64.03,70.18,110.48,59.87,136.32,96.02,25.84-36.15,72.29-25.84,136.32-96.02,53.29-58.44,85.71-318.04,85.71-318.04-140.42-68.19-222.03-144.58-222.03-144.58,0,0-81.54,76.39-221.96,144.58" fill="#fec53a" stroke-width="0"/>
        <polygon points="1674.83 936.44 1653.81 914.7 1653.91 885.83 1631.99 870 1636.58 843.05 1617.3 827.13 1599.41 775.92 1536.94 805.1 1613.32 994.57 1655.7 1010.6 1676.6 967.31 1672.56 961 1674.83 936.44" fill="#e84b4b" stroke-width="0"/>
        <path d="m1536.61,804.91l76.39,189.47,24.5,9.39c-33.8-66.25-62.43-135.13-86.85-205.41l-14.03,6.55Z" fill="#c32f3e" stroke-width="0"/>
        <path d="m1674.3,936.39l-20.91-21.81.15-28.9-21.89-15.84,4.6-26.96-19.27-15.92-17.88-51.21-23.71,11.07c24.22,71.2,53.07,140.87,87.47,207.74l13.02-27.16-4.04-6.31,2.47-24.69Z" fill="#c32f3e" stroke-width="0"/>
        <path d="m1485.61,639.77c-44.1,26.56-58.33,83.84-31.77,127.94,26.56,44.1,83.84,58.32,127.94,31.77,44.1-26.56,58.33-83.84,31.77-127.94-26.56-44.1-83.84-58.33-127.95-31.77m41.18,50.24c-10.66,6.42-24.5,2.98-30.92-7.68-6.42-10.66-2.98-24.5,7.68-30.92,10.66-6.42,24.5-2.98,30.92,7.68,6.42,10.66,2.98,24.5-7.68,30.92" fill="#e84b4b" stroke-width="0"/>
        <path d="m1459.97,737.39c-8.76-13.68-14.02-28.72-16.07-44.02-7.02,24.11-4.35,50.96,9.62,74.16,26.56,44.1,83.84,58.32,127.94,31.77,11.98-7.22,21.73-16.71,29.08-27.57-50.43,31.04-118.52,15.69-150.58-34.33" fill="#c32f3e" stroke-width="0"/>
        <path d="m1294.43,1431.81h-401.22c-25.6,0-46.35,20.75-46.35,46.35v243.19c0,25.6,20.75,46.35,46.35,46.35h401.22c25.6,0,46.35-20.75,46.35-46.35v-243.19c0-25.6-20.75-46.35-46.35-46.35" fill="#9a60a6" stroke-width="0"/>
        <path d="m1187.12,1860.16c5.59,14.62,26.28,14.62,31.87,0l44.16-115.5h-120.2l44.16,115.5Z" fill="#9a60a6" stroke-width="0"/>
        <polygon points="1111.4 1629.72 1116.43 1486.85 1071.52 1486.85 1076.24 1629.72 1111.4 1629.72" fill="#fff" stroke-width="0"/>
        <path d="m1093.82,1650.44c-12.56,0-23.55,10.05-23.55,25.43,0,14.44,10.36,25.12,23.86,25.12s23.24-10.67,23.24-25.12c0-15.39-10.05-25.43-23.55-25.43" fill="#fff" stroke-width="0"/>
        <path d="m3645.97,967.14c-58.52,0-105.96,47.44-105.96,105.96s47.44,105.96,105.96,105.96,105.96-47.44,105.96-105.96-47.44-105.96-105.96-105.96" fill="#f48400" stroke-width="0"/>
        <polygon points="3696.4 1034.91 3667.05 1034.91 3648.12 1058.61 3628.92 1034.91 3598.33 1034.91 3631.8 1075.5 3596.82 1117.03 3627.82 1117.03 3647.44 1091.57 3667.33 1117.03 3698.6 1117.03 3662.94 1074.56 3696.4 1034.91" fill="#fff" stroke-width="0"/>
      </g>
    </g>
  </g>
</svg>