<svg width="20" height="22" viewBox="0 0 24 26" fill="none" xmlns="http://www.w3.org/2000/svg">
<path d="M2.89257 22.7924H7.23143V14.1147H15.9091V22.7924H20.248V9.77586L11.5703 3.26757L2.89257 9.77586V22.7924ZM2.89257 25.685C2.09711 25.685 1.4164 25.402 0.850416 24.836C0.283472 24.2691 0 23.5879 0 22.7924V9.77586C0 9.31787 0.102686 8.88398 0.308059 8.4742C0.512467 8.06442 0.795457 7.72695 1.15703 7.4618L9.83474 0.953514C10.0999 0.760676 10.3771 0.616047 10.6664 0.519628C10.9556 0.423209 11.2569 0.375 11.5703 0.375C11.8836 0.375 12.185 0.423209 12.4742 0.519628C12.7635 0.616047 13.0407 0.760676 13.3058 0.953514L21.9835 7.4618C22.3451 7.72695 22.6286 8.06442 22.834 8.4742C23.0384 8.88398 23.1406 9.31787 23.1406 9.77586V22.7924C23.1406 23.5879 22.8576 24.2691 22.2916 24.836C21.7247 25.402 21.0435 25.685 20.248 25.685H13.0166V17.0073H10.124V25.685H2.89257Z" fill="white"/>
</svg>
