<svg width="20" height="20" viewBox="0 0 20 20" fill="none" xmlns="http://www.w3.org/2000/svg">
<path d="M16.6666 3.33337C17.0871 3.33324 17.4921 3.49205 17.8004 3.77795C18.1087 4.06386 18.2976 4.45574 18.3291 4.87504L18.3333 5.00004V15C18.3334 15.4205 18.1746 15.8255 17.8887 16.1338C17.6028 16.4421 17.2109 16.631 16.7916 16.6625L16.6666 16.6667H3.33329C2.91281 16.6668 2.50782 16.508 2.1995 16.2221C1.89118 15.9362 1.70233 15.5443 1.67079 15.125L1.66663 15V5.00004C1.66649 4.57956 1.8253 4.17457 2.11121 3.86625C2.39712 3.55793 2.789 3.36908 3.20829 3.33754L3.33329 3.33337H16.6666ZM16.6666 6.17837L10.8833 11.9617C10.6489 12.1958 10.3312 12.3273 9.99996 12.3273C9.66871 12.3273 9.351 12.1958 9.11663 11.9617L3.33329 6.17837V15H16.6666V6.17837ZM15.4883 5.00004H4.51163L9.99996 10.4884L15.4883 5.00004Z" fill="black"/>
</svg>
