<svg width="16" height="16" viewBox="0 0 16 16" fill="none" xmlns="http://www.w3.org/2000/svg">
<path d="M6.16667 11.5625C6 11.3958 5.92 11.1944 5.92667 10.9583C5.93389 10.7222 6.02083 10.5208 6.1875 10.3542L7.70833 8.83333H1.33333C1.09722 8.83333 0.899445 8.75333 0.74 8.59333C0.58 8.43389 0.5 8.23611 0.5 8C0.5 7.76389 0.58 7.56583 0.74 7.40583C0.899445 7.24639 1.09722 7.16667 1.33333 7.16667H7.70833L6.16667 5.625C6 5.45833 5.91667 5.26056 5.91667 5.03167C5.91667 4.80222 6 4.60417 6.16667 4.4375C6.33333 4.27083 6.53139 4.1875 6.76083 4.1875C6.98972 4.1875 7.1875 4.27083 7.35417 4.4375L10.3333 7.41667C10.4167 7.5 10.4758 7.59028 10.5108 7.6875C10.5453 7.78472 10.5625 7.88889 10.5625 8C10.5625 8.11111 10.5453 8.21528 10.5108 8.3125C10.4758 8.40972 10.4167 8.5 10.3333 8.58333L7.33333 11.5833C7.18056 11.7361 6.98972 11.8125 6.76083 11.8125C6.53139 11.8125 6.33333 11.7292 6.16667 11.5625ZM2.16667 15.5C1.70833 15.5 1.31583 15.3369 0.989167 15.0108C0.663055 14.6842 0.5 14.2917 0.5 13.8333V11.3333C0.5 11.0972 0.58 10.8992 0.74 10.7392C0.899445 10.5797 1.09722 10.5 1.33333 10.5C1.56944 10.5 1.7675 10.5797 1.9275 10.7392C2.08694 10.8992 2.16667 11.0972 2.16667 11.3333V13.8333H13.8333V2.16667H2.16667V4.66667C2.16667 4.90278 2.08694 5.10056 1.9275 5.26C1.7675 5.42 1.56944 5.5 1.33333 5.5C1.09722 5.5 0.899445 5.42 0.74 5.26C0.58 5.10056 0.5 4.90278 0.5 4.66667V2.16667C0.5 1.70833 0.663055 1.31583 0.989167 0.989167C1.31583 0.663055 1.70833 0.5 2.16667 0.5H13.8333C14.2917 0.5 14.6842 0.663055 15.0108 0.989167C15.3369 1.31583 15.5 1.70833 15.5 2.16667V13.8333C15.5 14.2917 15.3369 14.6842 15.0108 15.0108C14.6842 15.3369 14.2917 15.5 13.8333 15.5H2.16667Z" fill="black"/>
</svg>
