<?xml version="1.0" encoding="UTF-8"?>
<svg id="Layer_1" data-name="Layer 1" xmlns="http://www.w3.org/2000/svg" viewBox="0 0 1299.97 1128.42">
  <polygon points="754.03 0 1299.97 438.2 1221.5 1128.21 191.48 1128.21 0 493.73 754.03 0" fill="#e7ecff" fill-rule="evenodd" stroke-width="0"/>
  <path d="m365.04,978.51v149.91h-23.5v-59.3s-64.8-8.83-56.34-75.71h19.48s-4.64,52.62,36.87,49.31v-64.21h23.5Z" fill="#8b8b8b" fill-rule="evenodd" stroke-width="0"/>
  <path d="m194.92,987.84c-.84,6.76,1.26,13.57,5.79,18.7,4.52,5.12,11.03,8.05,17.86,8.05h222.41c12.6,0,23.03-9.81,23.79-22.39,1.8-30.12-2.06-78.98-47.88-70.73,0,0,14.76-137.4-53.76-141.53-57.26-3.48-64.91,67.72-64.91,67.72,0,0-41.25-13.09-59.32,22.19-18.07,35.24-7.41,82.9-7.41,82.9,0,0-32.55,2.49-36.57,35.09Z" fill="#ffd83d" fill-rule="evenodd" stroke-width="0"/>
  <path d="m283.68,922.33c-.17,1.06-.88,1.98-1.88,2.44-1,.42-2.16.32-3.06-.27-6.8-4.7-19.07-15.64-11.29-30.18.65-1.2,2.03-1.89,3.39-1.61,5.07,1.1,16.62,6.16,12.84,29.62Z" fill="#ff7a3d" fill-rule="evenodd" stroke-width="0"/>
  <path d="m355.03,869.4c-.92.7-2.1.84-3.16.41-1.05-.42-1.8-1.38-1.96-2.49-.86-6.36-.62-17.02,9.85-20.54,1.43-.48,3.04.12,3.81,1.44,1.98,3.67,4.02,11.77-8.53,21.18Z" fill="#ff7a3d" fill-rule="evenodd" stroke-width="0"/>
  <path d="m357.79,966.17c-1.07.34-2.24.12-3.06-.62-.85-.71-1.26-1.82-1.1-2.9,1.19-7.42,5.28-20.76,19.45-20.44,1.44.03,2.7,1.01,3.02,2.42,1.04,4.66,1.08,15.44-18.31,21.54Z" fill="#ff7a3d" fill-rule="evenodd" stroke-width="0"/>
  <polygon points="492.54 941.15 455.79 969.03 445.29 1006.06 482.54 1022.43 520.71 995.39 492.54 941.15" fill="#ffc8a3" fill-rule="evenodd" stroke-width="0"/>
  <polygon points="546.51 1013.51 548.61 1047.88 605.38 1047.88 605.38 1013.51 546.51 1013.51" fill="#ffc8a3" fill-rule="evenodd" stroke-width="0"/>
  <path d="m598.69,595.2l69.23,194.25-182.33,147.61c9.15,27,21.93,51.47,41.13,71.48,0,0,165.12-121.53,226.3-166.51,13.6-10.03,19.89-27.23,15.97-43.66-16.4-68.67-58.28-244.15-58.28-244.15l-112.01,40.98Z" fill="#3d61ff" fill-rule="evenodd" stroke-width="0"/>
  <path d="m522.4,625.51l9.55,396.46c30.03,5.52,55.5,5.38,83.59,0l9.87-421.39-79.33-16.01-23.68,40.94Z" fill="#3d61ff" fill-rule="evenodd" stroke-width="0"/>
  <path d="m455.79,969.03s-11.23,36.02,33.84,48.39c4.92,1.33,6.57,5.84,2.8,14.44-3.77,8.6-7.59,42.18,8.86,71.99,0,0,9.26,3.4,11.27,5.84,1.36,1.61.88,9.52.43,14.44-.21,2.3-2.14,4.05-4.44,4.05h-58.3c-1.5,0-2.91-.73-3.73-1.98-21.75-33.21-38.64-66.65-53.11-100.18-2.26-5.29-1.24-11.41,2.61-15.69,14.16-15.5,48.31-50.64,59.78-41.3Z" fill="#ff7a3d" fill-rule="evenodd" stroke-width="0"/>
  <path d="m531.96,1122.19c.12,3.36,2.87,5.98,6.23,5.98h81.6c2.7,0,5.09-1.7,5.93-4.28,1.69-5.24,3.58-14.9.27-26.72-5.06-18.03-10.13-12.56-12.59-37.81-3.08-31.65-70.61-29.72-71.63-7.78-.74,15.83,1.66,15.55-4.04,26.82-5.08,10.03-6.31,27.19-5.76,43.79Z" fill="#ff7a3d" fill-rule="evenodd" stroke-width="0"/>
  <polygon points="620.08 828.18 617.42 941.78 633.06 817.66 620.08 828.18" fill="#001c8c" fill-rule="evenodd" stroke-width="0"/>
  <polygon points="529.06 901.87 531.54 1004.99 520.15 909.08 529.06 901.87" fill="#001c8c" fill-rule="evenodd" stroke-width="0"/>
  <path d="m554.63,1087.67c15.69-5.88,31.05-5.78,46.09,0,.79.3,1.69-.1,1.99-.89.31-.79-.09-1.68-.89-1.97-15.75-6.08-31.83-6.23-48.27,0-.8.29-1.2,1.18-.9,1.97.3.79,1.19,1.19,1.99.89Z" fill="#fff" fill-rule="evenodd" stroke-width="0"/>
  <path d="m552.35,1078.73c17.25-5.93,34.12-5.78,50.64,0,.81.3,1.68-.15,1.97-.94.28-.79-.14-1.68-.95-1.97-17.18-5.98-34.72-6.13-52.66,0-.81.29-1.23,1.18-.96,1.97s1.16,1.24,1.96.94Z" fill="#fff" fill-rule="evenodd" stroke-width="0"/>
  <path d="m489.14,1055.42c-2.18,1.18-7.9,3.55-16.48,3.06-.85-.05-1.58.59-1.63,1.43-.05.89.6,1.58,1.45,1.63,9.42.6,15.69-2.12,18.09-3.36.76-.39,1.05-1.33.65-2.07-.39-.79-1.33-1.09-2.08-.69Z" fill="#fff" fill-rule="evenodd" stroke-width="0"/>
  <path d="m490.51,1069.59c-2.97,1.09-7.68,2.23-13.87,1.88-.85-.05-1.58.59-1.63,1.43-.05.89.6,1.58,1.45,1.63,6.76.4,11.89-.84,15.13-2.07.8-.3,1.21-1.19.91-1.98-.3-.79-1.19-1.18-1.99-.89Z" fill="#fff" fill-rule="evenodd" stroke-width="0"/>
  <path d="m492.93,1081.94c-2.98,1.04-7.54,2.08-13.44,1.73-.85-.05-1.58.59-1.63,1.43-.05.89.6,1.58,1.45,1.63,6.43.4,11.39-.74,14.65-1.87.8-.3,1.22-1.19.94-1.98-.28-.79-1.17-1.24-1.97-.94Z" fill="#fff" fill-rule="evenodd" stroke-width="0"/>
  <path d="m584.96,249.46s-36.59-.85-56.17,39.65l51.16,39.68s37.27-17.82,25.35-63.95l-20.34-15.39Z" fill="#000045" fill-rule="evenodd" stroke-width="0"/>
  <path d="m589.39,263.46l9.81,29.71c22.08,5.34,39.63,2.74,61.71-8.39l-12.66-40.88-29.45,2.27-29.4,17.28Z" fill="#ffc8a3" fill-rule="evenodd" stroke-width="0"/>
  <polygon points="591.32 269.35 597.69 288.66 633.98 261.65 609.35 257.65 591.32 269.35" fill="#e89b68" fill-rule="evenodd" stroke-width="0"/>
  <path d="m682.95,239.61s36.91-13.74,71.06,20.57l-12.01,18.53-10.31-1.96,5.8,7.24-21.55,34.53s-44.17-5.02-48.27-56.12l15.28-22.8Z" fill="#000045" fill-rule="evenodd" stroke-width="0"/>
  <path d="m662.94,263.59c-2.05-1.34-2.58-4.11-1.23-6.17l13.62-20.8c1.32-2,4.07-2.62,6.12-1.28,2.04,1.34,2.58,4.11,1.26,6.11-3.56,5.44-10.09,15.41-13.62,20.8-1.35,2.05-4.1,2.67-6.15,1.33Z" fill="#ff7a3d" fill-rule="evenodd" stroke-width="0"/>
  <path d="m651.62,182.07s8.5,2.21,18.26,8.44,8.01,31.19,4.83,36.09c-3.22,4.9-12.82,11.97-19.83,12.38,0,0-6.08,9.61-17.97,20.31-11.89,10.7-35.73,17.64-57.78,5.03-9.26-5.31-14.51-15.96-17.13-24.13-2.59-8.18-12.88-41.8-12.88-41.8l18.81-43.39,59.88-1.99,18.61,30.52,5.2-1.47Z" fill="#ffc8a3" fill-rule="evenodd" stroke-width="0"/>
  <path d="m664.14,198.47s-7.77,3.43-15.19,11.54c-.57.63-.52,1.61.12,2.18.61.57,1.6.53,2.17-.1,6.94-7.58,14.16-10.81,14.16-10.81.75-.35,1.1-1.27.78-2.04-.36-.78-1.28-1.13-2.03-.78Z" fill="#000045" fill-rule="evenodd" stroke-width="0"/>
  <path d="m663.41,209.3s-4.41-3.09-7.8-4.39c-.8-.31-1.69.09-1.98.89-.33.79.07,1.69.87,1.99,3.11,1.19,7.15,4.04,7.15,4.04.69.48,1.68.32,2.16-.38.48-.7.32-1.66-.4-2.15Z" fill="#000045" fill-rule="evenodd" stroke-width="0"/>
  <path d="m585.35,222.62l-.63,11.91c-.06.85.58,1.58,1.45,1.63.84.04,1.55-.61,1.62-1.46l.66-11.9c.03-.85-.61-1.58-1.46-1.63-.84-.05-1.59.6-1.65,1.45Z" fill="#000045" fill-rule="evenodd" stroke-width="0"/>
  <path d="m615.63,195.72s-13.25-6.66-22.45,5.39c-.54.67-.41,1.64.26,2.16.7.52,1.67.39,2.17-.29,7.66-9.99,18.6-4.51,18.6-4.51.79.39,1.71.08,2.09-.68.38-.76.07-1.69-.68-2.07Z" fill="#000045" fill-rule="evenodd" stroke-width="0"/>
  <path d="m592.27,250.56s14.78,1.18,18.76-13.45c.24-.82-.24-1.68-1.06-1.9-.85-.22-1.69.26-1.9,1.08-3.33,12.14-15.53,11.19-15.53,11.19-.88-.06-1.62.57-1.68,1.42s.57,1.59,1.41,1.66Z" fill="#000045" fill-rule="evenodd" stroke-width="0"/>
  <path d="m579.38,202.4s-13.25-6.66-22.45,5.39c-.54.67-.4,1.64.27,2.16.7.52,1.67.39,2.17-.29,7.66-9.99,18.6-4.51,18.6-4.51.79.39,1.71.08,2.09-.68s.07-1.69-.68-2.07Z" fill="#000045" fill-rule="evenodd" stroke-width="0"/>
  <path d="m600.15,218.22c-2.08-.41-3.43-2.41-3.03-4.47.4-2.06,2.41-3.4,4.49-3,2.08.41,3.43,2.41,3.03,4.47-.4,2.06-2.41,3.4-4.49,3Z" fill="#000045" stroke-width="0"/>
  <path d="m567.41,224.42c-2.08-.41-3.43-2.41-3.03-4.47.4-2.06,2.41-3.4,4.49-3,2.08.41,3.43,2.41,3.03,4.47-.4,2.06-2.41,3.4-4.49,3Z" fill="#000045" stroke-width="0"/>
  <path d="m645.39,190.82s.56,70.84-1.27,68.85c-2.34-2.6-9.73-70.27-9.73-70.27l-19.41-1.88-8.03-21.47-2.14,21.62s-39.42,9.83-59.98,16.95c0,0-20.09-60.74,45.09-78.57,47.07-12.84,105.62,26.8,88.59,109.98l-15.44,24.3-11.25-2.82-3.6-10.26-.33-7.48s3.37-7.57,3.69-16.4c0,0,21.48-1.23,22.34-17.04,1.35-24.95-28.54-15.52-28.54-15.52Z" fill="#000045" fill-rule="evenodd" stroke-width="0"/>
  <path d="m670.48,288.72s-3.65-14.86-8.61-15.78c-4.96-.87-66.45,15.78-66.45,15.78,0,0-5.76.74-3.03,9.61,0,0-15.94,3.5-23.98,6.44l-4.4,300.27s66.09,6.77,131.15-7.13l-5.12-305.47-19.56-3.73Z" fill="#ffd83d" fill-rule="evenodd" stroke-width="0"/>
  <path d="m577.72,301.92c-1.6.28-32.18,9.84-37.29,12.93l-35.78,148.99v174.01c26.84,2.95,53.8,3.68,81.08-1.61-4.4-105.2-7.59-214.77-8-334.32Z" fill="#fa7a3e" fill-rule="evenodd" stroke-width="0"/>
  <path d="m677.21,290c4.05,134.73,2.61,241.77,0,342.78,27.63,1.33,54.84-1.93,81.56-10.67l-30.17-316.98c-15.16-7.22-32.69-11.82-51.39-15.13Z" fill="#ff7a3d" fill-rule="evenodd" stroke-width="0"/>
  <path d="m701.46,402.5s16.31,65.39,32.39,97.94c0,0-35.66,26.62-54.84,46.62l8.48,22.13,82.62-74.08-68.65-92.6Z" fill="#cc3d00" fill-rule="evenodd" stroke-width="0"/>
  <path d="m504.65,506.37v57.73s22.29-37.78,32.81-86.58l-32.81,28.84Z" fill="#cc3d00" fill-rule="evenodd" stroke-width="0"/>
  <path d="m408.06,207.99l7.55,47.65c.13.87.92,1.43,1.77,1.29s1.42-.92,1.28-1.75l-7.55-47.7c-.13-.83-.92-1.38-1.77-1.29-.84.14-1.42.97-1.28,1.79Z" fill="#3d61ff" fill-rule="evenodd" stroke-width="0"/>
  <path d="m356.96,243.04l27.24,25.25c.62.55,1.6.51,2.18-.09.58-.64.54-1.61-.08-2.21l-27.24-25.21c-.62-.6-1.6-.55-2.18.05-.58.64-.54,1.61.08,2.21Z" fill="#3d61ff" fill-rule="evenodd" stroke-width="0"/>
  <path d="m461.38,227.35l-10.1,27.51c-.3.83.11,1.7.91,1.98.8.32,1.69-.09,1.98-.87l10.1-27.55c.29-.83-.12-1.7-.92-1.98-.8-.32-1.69.09-1.98.92Z" fill="#3d61ff" fill-rule="evenodd" stroke-width="0"/>
  <path d="m298.89,609.52l81.51,27.87c.81.28,1.68-.18,1.96-.96.28-.83-.16-1.71-.96-1.98l-81.51-27.83c-.81-.28-1.68.14-1.96.96-.28.79.16,1.66.96,1.94Z" fill="#ff7a3d" fill-rule="evenodd" stroke-width="0"/>
  <path d="m1032.22,396.22l-43.59,58.14c-.52.69-.38,1.66.3,2.16.69.51,1.65.37,2.17-.28l43.59-58.14c.51-.69.37-1.66-.31-2.16-.69-.51-1.65-.37-2.16.28Z" fill="#ab3dff" fill-rule="evenodd" stroke-width="0"/>
  <path d="m204.18,712.09c-6.06,0-10.99,4.93-10.99,11s4.92,10.99,10.99,10.99,10.99-4.92,10.99-10.99-4.92-11-10.99-11Zm0,3.09c4.36,0,7.9,3.54,7.9,7.91s-3.54,7.91-7.9,7.91-7.9-3.54-7.9-7.91,3.54-7.91,7.9-7.91Z" fill="#ab3dff" fill-rule="evenodd" stroke-width="0"/>
  <path d="m1136.8,1033.25c-5.99,0-10.86,4.88-10.86,10.86s4.87,10.85,10.86,10.85,10.88-4.87,10.88-10.85-4.87-10.86-10.88-10.86Zm0,3.09c4.3,0,7.79,3.49,7.79,7.77s-3.49,7.77-7.79,7.77-7.78-3.49-7.78-7.77,3.49-7.77,7.78-7.77Z" fill="#ff3d3d" fill-rule="evenodd" stroke-width="0"/>
  <path d="m874.51,282.52c26.98,0,48.85-21.87,48.85-48.85s-21.87-48.85-48.85-48.85-48.85,21.87-48.85,48.85,21.87,48.85,48.85,48.85Z" fill="#ff7a3d" stroke-width="0"/>
  <path d="m897.79,226.66c0-1.75-.69-3.44-1.94-4.67-1.23-1.23-2.91-1.93-4.67-1.93h-33.35c-1.75,0-3.43.71-4.67,1.93-1.24,1.23-1.94,2.92-1.94,4.67v29.04c0,1.74.7,3.44,1.94,4.67s2.92,1.93,4.67,1.93h33.35c1.76,0,3.44-.71,4.67-1.93,1.25-1.23,1.94-2.92,1.94-4.67v-29.04Z" fill="#fff" fill-rule="evenodd" stroke-width="0"/>
  <path d="m862.6,220.12c0-7.43,5.29-13.52,11.91-13.52s11.9,6.1,11.9,13.52c0,.82.69,1.51,1.55,1.51s1.54-.69,1.54-1.51c0-9.21-6.77-16.64-14.99-16.64s-14.99,7.43-14.99,16.64c0,.82.69,1.51,1.54,1.51s1.54-.69,1.54-1.51Z" fill="#fff" fill-rule="evenodd" stroke-width="0"/>
  <path d="m879.5,238.86c0-2.78-2.24-5-4.99-5s-4.99,2.22-4.99,5v4.68c0,2.78,2.23,5,4.99,5s4.99-2.22,4.99-5v-4.68Z" fill="#ff7a3d" fill-rule="evenodd" stroke-width="0"/>
  <path d="m266.47,500.67c26.98,0,48.85-21.87,48.85-48.85s-21.87-48.85-48.85-48.85-48.85,21.87-48.85,48.85,21.87,48.85,48.85,48.85Z" fill="#3d61ff" stroke-width="0"/>
  <path d="m266.47,441.39c-11.15,0-21.04,2.95-27.17,7.45-4.41,3.2-6.91,7.23-6.91,11.55s2.51,8.31,6.91,11.51c6.13,4.5,16.01,7.45,27.17,7.45s21.04-2.95,27.17-7.45c4.41-3.2,6.91-7.23,6.91-11.51s-2.51-8.34-6.91-11.55c-6.13-4.5-16.01-7.45-27.17-7.45Zm0,3.09c10.4,0,19.63,2.66,25.35,6.83,3.49,2.55,5.65,5.65,5.65,9.06s-2.16,6.47-5.65,9.03c-5.72,4.17-14.95,6.83-25.35,6.83s-19.63-2.66-25.35-6.83c-3.49-2.55-5.65-5.65-5.65-9.03s2.16-6.51,5.65-9.06c5.72-4.17,14.95-6.83,25.35-6.83Z" fill="#fff" fill-rule="evenodd" stroke-width="0"/>
  <path d="m266.47,477.64c9.53,0,17.25-7.72,17.25-17.25s-7.72-17.25-17.25-17.25-17.25,7.72-17.25,17.25,7.72,17.25,17.25,17.25Z" fill="#fff" stroke-width="0"/>
  <path d="m266.47,470.37c5.52,0,9.99-4.47,9.99-9.99s-4.47-9.99-9.99-9.99-10,4.47-10,9.99,4.48,9.99,10,9.99Z" fill="#3d61ff" stroke-width="0"/>
  <circle cx="260.11" cy="454.06" r="4.69" fill="#fff" stroke-width="0"/>
  <path d="m266.62,435.16v-9.26c0-.83-.69-1.54-1.54-1.54s-1.54.71-1.54,1.54v9.26c0,.83.69,1.54,1.54,1.54s1.54-.71,1.54-1.54Z" fill="#fff" fill-rule="evenodd" stroke-width="0"/>
  <path d="m255.31,435.78l-2.98-6.78c-.33-.81-1.25-1.13-2.03-.81-.78.36-1.14,1.26-.8,2.04l2.97,6.82c.34.78,1.25,1.13,2.04.77.77-.32,1.13-1.22.8-2.04Z" fill="#fff" fill-rule="evenodd" stroke-width="0"/>
  <path d="m277.68,437.05l2.97-6.82c.34-.78-.01-1.68-.8-2.04-.77-.32-1.7,0-2.03.81l-2.98,6.78c-.33.82.02,1.72.8,2.04.79.36,1.7,0,2.04-.77Z" fill="#fff" fill-rule="evenodd" stroke-width="0"/>
  <path d="m243.91,439.18l-3.9-3.87c-.6-.61-1.58-.63-2.18,0-.6.58-.6,1.57,0,2.18l3.9,3.9c.6.61,1.58.59,2.18,0,.6-.62.6-1.6,0-2.21Z" fill="#fff" fill-rule="evenodd" stroke-width="0"/>
  <path d="m288.42,441.39l3.9-3.9c.6-.61.6-1.59,0-2.18-.6-.62-1.58-.6-2.18,0l-3.9,3.87c-.6.61-.6,1.59,0,2.21.6.59,1.58.6,2.18,0Z" fill="#fff" fill-rule="evenodd" stroke-width="0"/>
  <path d="m386.88,336.51s-4.94,2.21-5.6,19.14c-.65,16.88,16.13,58.92,16.13,58.92,0,0,17.17,13.94,41.84-3.54l-3.94-34.13-48.43-40.39Z" fill="#ffc8a3" fill-rule="evenodd" stroke-width="0"/>
  <path d="m443.27,295.83c-.82-3.26-4.07-5.28-7.34-4.55-11.94,2.66-38.99,8.63-51.43,11.42-1.68.34-3.12,1.42-3.99,2.88-.87,1.5-1.09,3.26-.6,4.9,5.51,18.64,21.54,72.88,26.73,90.44.92,3.14,4.11,5.02,7.29,4.29,11.22-2.49,36.2-8.12,47.86-10.74,1.63-.34,3.05-1.37,3.92-2.79.88-1.42,1.14-3.14.73-4.77-4.69-18.47-18.59-73.09-23.16-91.08Z" fill="#000045" fill-rule="evenodd" stroke-width="0"/>
  <path d="m394.05,358.36s20.51-18.17,40.1-37.9c1.09-1.06,2.58-1.65,4.12-1.61s2.98.78,3.98,1.93c1.46,1.75,1.6,4.23.34,6.07-4.91,7.41-17.19,25.48-23.8,31.51,0,0,15.38-12.28,25.26-19.09,1.1-.74,2.43-.97,3.71-.64,1.27.28,2.37,1.06,3.05,2.21.06.05.11.14.16.23,1.12,1.84.88,4.23-.59,5.8-5.64,6.12-19.42,20.98-25.01,25.48,0,0,14.77-11.91,22.65-18.26,1.15-.92,2.67-1.24,4.11-.92,1.44.37,2.63,1.33,3.23,2.71.68,1.52.42,3.27-.68,4.55-5.66,6.53-22.79,26.27-22.79,26.27,7.41-5.06,13.41-9.57,20.84-16.15.85-.74,2.01-1.01,3.11-.74s1.98,1.1,2.37,2.16c.64,1.75.39,3.68-.69,5.2-3.54,4.88-12.09,16.01-21.67,23.14l-27.59,6.16-14.23-48.11Z" fill="#ffc8a3" fill-rule="evenodd" stroke-width="0"/>
  <path d="m542.64,314.06s-11.32,1.1-30.84,38.5c-19.52,37.35-43.8,85.01-43.8,85.01l30.95,112.47s37.43-66.97,50.15-97.47c12.73-30.54-6.47-138.5-6.47-138.5Z" fill="#fa7a3e" fill-rule="evenodd" stroke-width="0"/>
  <path d="m473.16,427.45l-4.53,8.89v28.84l32.28,46.38s-11.02-61.49-27.75-84.11Z" fill="#cc3d00" fill-rule="evenodd" stroke-width="0"/>
  <path d="m395.82,410.43s-3.46.74-2.91,6.95c.55,6.21,5.11,17.71,5.11,17.71,0,0-2.34,3.17-1.3,11.04,1.04,7.86,38.61,91.35,58.18,108.1,19.58,16.74,40.5,8.14,48.66-13.2,8.16-21.3-31.87-107.68-44.9-118.12-5.69-4.55-9.27-1.61-9.27-1.61,0,0-6.84-18.77-13.47-16.56l-40.09,5.7Z" fill="#fa7a3e" fill-rule="evenodd" stroke-width="0"/>
  <path d="m390.56,315.76c2.06,0,3.73-1.67,3.73-3.73s-1.67-3.73-3.73-3.73-3.73,1.67-3.73,3.73,1.67,3.73,3.73,3.73Z" fill="#fff" stroke-width="0"/>
  <path d="m937.22,1127.76c-164.1-82.05-262.92-234.76-263.44-493.94l264.4-101.32,264.4,101.32c-.52,259.72-99.73,412.48-264.4,494.43l-.96-.49Z" fill="#000045" fill-rule="evenodd" stroke-width="0"/>
  <path d="m922.39,1120.1c-164.1-82.04-262.92-234.76-263.44-493.94l264.4-101.31,264.4,101.31c-.52,259.72-99.73,412.49-264.4,494.43l-.96-.49Z" fill="#fff" fill-rule="evenodd" stroke-width="0"/>
  <path d="m922.64,1043.5c-121.84-60.91-195.2-174.29-195.59-366.72l196.3-75.22,196.31,75.22c-.39,192.83-74.05,306.25-196.31,367.09l-.71-.37Z" fill="#3d61ff" fill-rule="evenodd" stroke-width="0"/>
  <path d="m822.14,821.09l69.95,58.28c10.12,8.42,25.07,7.45,33.98-2.25l100.87-109.66c9.22-10.03,8.57-25.67-1.46-34.91-10.03-9.2-25.67-8.56-34.89,1.47l-84.96,92.36-51.88-43.24c-10.47-8.69-26.06-7.26-34.78,3.18-8.72,10.49-7.3,26.08,3.17,34.77Z" fill="#fff" fill-rule="evenodd" stroke-width="0"/>
  <path d="m648.63,582.12s-38.44,29.51-49.8,68.08c-.72,2.58.4,5.27,2.71,6.58v.04c1.4.79,3.06.99,4.62.55,1.56-.43,2.87-1.5,3.66-2.89,4.58-8.47,13.8-24.56,20.91-31.57,0,0-2.64,8.08-4,15.97-1.05,6.1,6.31,22.93,9.69,30.26.65,1.38,1.85,2.45,3.31,2.93,1.46.47,3.06.31,4.41-.4.83-.47,1.68-1.11,2.49-1.98,0,0,5.2,2.58,9.65-1.54,0,0,2.02.71,4.19.35,2-.35,3.47-2.1,3.47-4.12.01-5.3.01-18.45.01-18.45v-9.35l11.4-9.78-18.21-44.68h-8.51Z" fill="#ffc8a3" fill-rule="evenodd" stroke-width="0"/>
  <path d="m728.6,305.14s-34.33,31.92-28.74,93.56l44.68,106.3s-60.02,37.21-69.5,45.03c-9.48,7.77-10.95,16.65-10.95,16.65l-17.67,15.36,28.62,47.89s124.14-48.58,134.41-63.25c10.27-14.63,20.47-47.24,0-105.15-51.45-145.4-80.85-156.39-80.85-156.39Z" fill="#ff7a3d" fill-rule="evenodd" stroke-width="0"/>
  <path d="m639.19,635.96v9.48c0,.1.05.2.05.3l4.25,21.04c.2.84.99,1.38,1.83,1.24.84-.2,1.38-.99,1.23-1.83l-4.25-20.89v-9.34c0-.84-.69-1.53-1.53-1.53-.89,0-1.58.69-1.58,1.53Z" fill="#e89b68" fill-rule="evenodd" stroke-width="0"/>
  <path d="m651.43,635.96v9.48s0,.1.05.2l2.37,18.92c.1.89.89,1.48,1.73,1.38.84-.15,1.43-.89,1.34-1.73l-2.38-18.86v-9.39c0-.84-.69-1.53-1.53-1.53s-1.58.69-1.58,1.53Z" fill="#e89b68" fill-rule="evenodd" stroke-width="0"/>
</svg>