<svg width="12" height="20" viewBox="0 0 12 20" fill="none" xmlns="http://www.w3.org/2000/svg">
<path d="M4.33329 16.6667H7.66663V15.8334H4.33329V16.6667ZM1.83329 19.1667C1.37496 19.1667 0.982737 19.0037 0.656626 18.6775C0.329959 18.3509 0.166626 17.9584 0.166626 17.5V2.50004C0.166626 2.04171 0.329959 1.64921 0.656626 1.32254C0.982737 0.99643 1.37496 0.833374 1.83329 0.833374H10.1666C10.625 0.833374 11.0175 0.99643 11.3441 1.32254C11.6702 1.64921 11.8333 2.04171 11.8333 2.50004V17.5C11.8333 17.9584 11.6702 18.3509 11.3441 18.6775C11.0175 19.0037 10.625 19.1667 10.1666 19.1667H1.83329ZM1.83329 15V17.5H10.1666V15H1.83329ZM1.83329 13.3334H10.1666V5.00004H1.83329V13.3334ZM1.83329 3.33337H10.1666V2.50004H1.83329V3.33337Z" fill="black"/>
</svg>
