<svg width="21" height="21" viewBox="0 0 21 21" fill="none" xmlns="http://www.w3.org/2000/svg">
<path d="M10.5 0.083374C9.13206 0.083374 7.77752 0.352809 6.51371 0.876296C5.2499 1.39978 4.10158 2.16707 3.1343 3.13435C1.1808 5.08785 0.0833282 7.73737 0.0833282 10.5C0.0833282 13.2627 1.1808 15.9122 3.1343 17.8657C4.10158 18.833 5.2499 19.6003 6.51371 20.1238C7.77752 20.6473 9.13206 20.9167 10.5 20.9167C13.2627 20.9167 15.9122 19.8192 17.8657 17.8657C19.8192 15.9122 20.9167 13.2627 20.9167 10.5C20.9167 9.1321 20.6472 7.77756 20.1237 6.51375C19.6003 5.24995 18.833 4.10162 17.8657 3.13435C16.8984 2.16707 15.7501 1.39978 14.4863 0.876296C13.2225 0.352809 11.8679 0.083374 10.5 0.083374ZM5.36458 17.0417C5.8125 16.1042 8.54166 15.1875 10.5 15.1875C12.4583 15.1875 15.1875 16.1042 15.6354 17.0417C14.1764 18.2042 12.3655 18.836 10.5 18.8334C8.5625 18.8334 6.78125 18.1667 5.36458 17.0417ZM17.125 15.5313C15.6354 13.7188 12.0208 13.1042 10.5 13.1042C8.97916 13.1042 5.36458 13.7188 3.87499 15.5313C2.76685 14.0882 2.16631 12.3195 2.16666 10.5C2.16666 5.90629 5.90625 2.16671 10.5 2.16671C15.0937 2.16671 18.8333 5.90629 18.8333 10.5C18.8333 12.3959 18.1875 14.1459 17.125 15.5313ZM10.5 4.25004C8.47916 4.25004 6.85416 5.87504 6.85416 7.89587C6.85416 9.91671 8.47916 11.5417 10.5 11.5417C12.5208 11.5417 14.1458 9.91671 14.1458 7.89587C14.1458 5.87504 12.5208 4.25004 10.5 4.25004ZM10.5 9.45837C10.0856 9.45837 9.68817 9.29375 9.39514 9.00073C9.10212 8.7077 8.9375 8.31028 8.9375 7.89587C8.9375 7.48147 9.10212 7.08405 9.39514 6.79102C9.68817 6.49799 10.0856 6.33337 10.5 6.33337C10.9144 6.33337 11.3118 6.49799 11.6049 6.79102C11.8979 7.08405 12.0625 7.48147 12.0625 7.89587C12.0625 8.31028 11.8979 8.7077 11.6049 9.00073C11.3118 9.29375 10.9144 9.45837 10.5 9.45837Z" fill="white"/>
</svg>
