<?xml version="1.0" encoding="UTF-8"?>
<svg id="Layer_1" data-name="Layer 1" xmlns="http://www.w3.org/2000/svg" viewBox="0 0 1159 771">
  <g id="Background">
    <rect width="1159" height="771" fill="#fff" stroke-width="0"/>
  </g>
  <ellipse id="shadow" cx="575.81" cy="646.82" rx="315.57" ry="9.57" fill="#d5d2df" stroke-width="0"/>
  <g id="background_elements" data-name="background elements">
    <rect x="491.59" y="147.59" width="377.58" height="432.74" fill="#daebfe" stroke-width="0"/>
    <rect x="303.55" y="390.97" width="151" height="222" fill="#daebfe" stroke-width="0"/>
  </g>
  <g id="girl">
    <path d="m734.46,387.44c.5-5.53,4.76-10.05,10.28-10.67.09,0,.17-.02.26-.03,8.7-.85,19.31,10.75,20.32,15.74l-31.19-1.39.33-3.66Z" fill="#ffc5c4" stroke-width="0"/>
    <path d="m771.23,388.84c-.44,1-1.29,1.54-1.78,1.79-.13.61-.4.98-.59,1.18-.94.98-2.87,1.02-4.76,0-.67.25-1.66.48-2.79.29-.19-.03-.37-.08-.54-.13-.97-.2-1.79-.51-2.46-.83-.39-.19-.73-.38-1.03-.57-1.65-1.04-1.87-1.82-6.22-6.79-3.07-3.54-4.09-4.42-5.58-4.61-.8-.1-1.57.02-2.25.24-.86.28-1.6.7-2.16,1.01,0,0-1.1.64-4.52,4.15,2.76,1.22,5.1,1.79,6.78,2.08,1.62.29,2.88.37,3.64,1.4.49.67.68,1.6.54,2.42-.08.42-.24.79-.49,1.08-.07.07-.14.14-.21.2-.4.36-1.7.49-3.35.35-1-.11-2.64-.27-4.68-.36-5.99-.26-7.44.91-11.14-.49-.68-.26-1.58-.68-2.58-1.41h-4.56c-22.97,0-45.96-.02-68.94-.03h-3.63c-3.33,0-6.51-.88-9.27-2.45-4.02-2.27-7.15-5.98-8.65-10.56-.01-.02-.02-.04-.03-.07-3.7-11.32-7.15-21.85-10.62-32.41-.93-2.81-1.86-5.64-2.8-8.47-3.34-10.12-7.11-21.42-1.6-31.58,2.84-5.23,7.22-8.45,10.51-10.36,1.55.46,4.18,1.37,6.89,3.27,10.81,7.55,10.24,21.7,15.3,40.06,1.05,3.8,2.61,8.77,4.99,14.57l.02.04c1.56,3.82,3.48,8,5.85,12.46,22.45,3.44,44.88,6.91,67.32,10.36.48-.09.99-.1,1.54-.03,4.34-1.05,7.86-1.95,10.28-2.59,4.33-1.13,6.13-1.66,9.23-2.22,4.68-.83,7.07-1.24,9.5-.59,3.14.85,5.47,2.77,7.14,4.17,1.71,1.42,2.95,2.83,3.77,3.86.75,1.29,2.98,5.21,3.95,8.62.24.87.47,1.91,0,2.96Z" fill="#d6744c" stroke-width="0"/>
    <path d="m656.65,358.05s-10.09,16.61-24.44,21.49c-4.49-2.58-7.86-6.51-9.29-11.2-.01-.02-.02-.04-.03-.07-3.53-11.58-6.81-22.35-10.12-33.15h16.31s8.18,2,8.18,2l10.06,3.37,3.4,4.65.02.04,5.93,12.88Z" fill="#bf4715" stroke-width="0"/>
    <path d="m718.02,380.71c1.18,3.19,2.37,6.38,3.56,9.58,1.49,0,2.98,0,4.47,0-.42-.35-.86-.74-1.29-1.14-3.1-2.91-5.25-5.92-6.74-8.43Z" fill="#bf4715" stroke-width="0"/>
    <path d="m619.84,363.92c2.91,5.51,5.23,8.21,5.23,8.21,4.08-2.08,8.54-4.68,13.14-7.96,9.21-6.57,15.97-13.69,20.73-19.64-1.25-2.35-2.51-4.75-3.76-7.21-1.33-2.62-2.66-5.3-3.98-8.04-2.18-4.53-3.98-8.46-5.39-11.65,0,0-18.53-41.76-27.54-43.69-.26-.06-5.07-1.04-5.07-1.04-10.94,47.81-.43,77.67,6.65,91.03Z" fill="#c6c721" stroke-width="0"/>
    <path d="m619.84,363.92c2.91,5.51,5.23,8.21,5.23,8.21,4.08-2.08,8.54-4.68,13.14-7.96,9.21-6.57,15.97-13.69,20.73-19.64-1.25-2.35-2.51-4.75-3.76-7.21-5.08,7-15.74,18.33-35.34,26.6Z" fill="#e9e77a" stroke-width="0"/>
    <path d="m494.86,458.19c10.8,27.19,22.58,38.32,37.2,39.65,14.63,1.31,116.66,5.97,124.96-17.22,0,0,.04-.03.13-.09.67-.44,3.83-2.79,6.03-7.74,3.44-7.7,4.51-21.73-9.93-44.78-24.82-39.65-88.38-85.76-138.2-77.38-14.26,2.4-22.9,10.02-27.71,20.3-.21.45-.42.91-.61,1.37-10.95,25.75.56,66.83,8.13,85.89Z" fill="#ffc5c4" stroke-width="0"/>
    <path d="m525.9,495.81c2.17.86,7.87,1.82,15.76,2.63,25.86,1.26,88.53,2.12,109.17-10.96,0,0,0,0,0,0,1.53-1.26,2.74-2.63,3.61-4.12,0,0,1.37-.72,2.57-2.74h0c.79-1.34,1.51-3.23,1.72-5.87.13-1.7.06-3.71-.34-6.07,0,0-3.14-15.21-39.4-16.5-25.68-.91-69.64-6.07-93.69-8.02-9.91-.81-16.43-1.08-16.9-.28-1.63,2.73,6.41,47.53,17.49,51.93Z" fill="#ffc5c4" stroke-width="0"/>
    <g>
      <g>
        <rect x="579.88" y="490.49" width="5.69" height="70.62" transform="translate(1165.46 1051.6) rotate(-180)" fill="#64b2f9" stroke-width="0"/>
        <rect x="577.04" y="553.2" width="11.37" height="48.41" transform="translate(1165.46 1154.82) rotate(-180)" fill="#64b2f9" stroke-width="0"/>
      </g>
      <g>
        <circle cx="634.22" cy="629.29" r="7.46" fill="#64b2f9" stroke-width="0"/>
        <circle cx="634.22" cy="629.29" r="4.27" transform="translate(-92.4 109.43) rotate(-9.19)" fill="#64b2f9" opacity=".33" stroke-width="0"/>
        <rect x="633.69" y="615.96" width=".71" height="7.82" fill="#64b2f9" stroke-width="0"/>
      </g>
      <g>
        <circle cx="530.72" cy="629.29" r="7.46" fill="#64b2f9" stroke-width="0"/>
        <circle cx="530.72" cy="629.29" r="4.27" transform="translate(-289.53 559.59) rotate(-45)" fill="#64b2f9" opacity=".33" stroke-width="0"/>
        <rect x="530.19" y="615.96" width=".71" height="7.82" fill="#64b2f9" stroke-width="0"/>
      </g>
      <g>
        <circle cx="503.12" cy="628.96" r="7.46" fill="#64b2f9" stroke-width="0"/>
        <circle cx="503.12" cy="628.96" r="4.27" fill="#64b2f9" opacity=".33" stroke-width="0"/>
        <rect x="502.59" y="615.63" width=".71" height="7.82" fill="#64b2f9" stroke-width="0"/>
      </g>
      <path d="m499.13,613.86c0-.98.65-1.85,1.6-2.12,27.8-7.82,55.53-10.85,80.16-11.41v-.07c.53,0,1.07.02,1.6.03.53,0,1.07-.03,1.6-.03v.07c24.62.56,52.36,3.58,80.16,11.41.95.27,1.6,1.13,1.6,2.12h0c0,1.36-1.22,2.39-2.56,2.16-23.11-3.94-50.31-6.95-80.79-7.33-30.48.38-57.68,3.39-80.79,7.33-1.34.23-2.56-.8-2.56-2.16h0Z" fill="#64b2f9" stroke-width="0"/>
      <g>
        <path d="m596.59,595.55l41.52,20.23c.99.48.65,1.97-.45,1.97h-8.31s-48.34-16.33-48.34-16.33l5.75-4.71c2.77-2.27,6.61-2.72,9.83-1.15Z" fill="#64b2f9" stroke-width="0"/>
        <path d="m568.38,595.55l-41.52,20.23c-.99.48-.65,1.97.45,1.97h8.31s48.34-16.33,48.34-16.33l-5.75-4.71c-2.77-2.27-6.61-2.72-9.83-1.15Z" fill="#64b2f9" stroke-width="0"/>
      </g>
      <g>
        <circle cx="661.82" cy="628.96" r="7.46" fill="#64b2f9" stroke-width="0"/>
        <circle cx="661.82" cy="628.96" r="4.27" fill="#64b2f9" opacity=".33" stroke-width="0"/>
        <rect x="661.28" y="615.63" width=".71" height="7.82" fill="#64b2f9" stroke-width="0"/>
      </g>
    </g>
    <path d="m494.86,458.2c10.79,27.19,22.58,38.32,37.2,39.64,1.88.17,5.21.39,9.6.61,25.86,1.26,88.53,2.12,109.17-10.96,0,0,0,0,0,0,3.09-1.96,5.24-4.23,6.18-6.86h0c.22-.15,3.76-2.44,6.15-7.82-1.32.61-2.8,1.28-4.43,1.96-3.52,1.46-7.75,3-12.6,4.34-13.41,3.7-29.02,5.2-46.82,2.62-19.93-2.89-36.14-9.24-49.4-17.32,0,0-11.1-6.5-24.61-20.24-10.71-10.89-22.93-26.34-32.31-46.7-4.98-10.82-6.52-19.2-5.66-26.52-11.98,25.64-.19,67.86,7.52,87.26Z" fill="#fe6642" stroke-width="0"/>
    <path d="m486.73,372.31c.21,4.2.8,10.62,2.69,18.16,8.05,32.19,31.22,51.3,46.28,63.72,21.43,17.68,37.49,22.35,42.14,23.59,6.47,1.72,12.01,2.46,15.86,2.8-2.73-1.64-6.77-4.12-11.58-7.28-16.31-10.73-35.74-25.5-52.37-43.14-15.19-16.11-48.28-69.21,1.01-70.5,60.57-1.59,107.66,59.93,113.27,67.67,6.86,9.47,10.75,18.09,12.64,27.26,2.21,10.74,1.19,19.9.13,25.54,0,0,.12.15.34.4.67-.44,3.83-2.79,6.03-7.74,3.44-7.7,4.51-21.73-9.93-44.78-24.82-39.65-88.38-85.76-138.2-77.38-11.69,1.97-18.99,8.5-18.99,8.5-5.12,4.48-7.86,9.67-9.33,13.17Z" fill="#fe6642" stroke-width="0"/>
    <g>
      <path d="m598.48,558.01c-3.6,15.21-7.2,30.41-10.8,45.62-.49,5.63,2.63,10.93,7.63,13.1,5.5,2.39,12.16.51,15.77-4.61,6.15-16.6,12.3-33.21,18.45-49.81-10.35-1.43-20.7-2.87-31.06-4.3Z" fill="#d6744c" stroke-width="0"/>
      <path d="m599.86,558.39c-2.14,9.06-4.29,18.12-6.43,27.18-1.05,4.45-2.11,8.91-3.16,13.36-.5,2.09-1.28,4.27-1.19,6.44.07,1.6.48,3.22,1.2,4.65,3.02,6.02,10.48,8.05,16.19,4.54,1.42-.87,2.94-2.13,3.57-3.71.85-2.12,1.59-4.3,2.39-6.45,1.62-4.37,3.24-8.75,4.86-13.12,3.62-9.78,7.25-19.57,10.87-29.35l1,1.75c-10.35-1.43-20.7-2.87-31.06-4.3-1.81-.25-1.04-3,.76-2.75,10.35,1.43,20.7,2.87,31.06,4.3.72.1,1.24,1.1,1,1.75-3.49,9.41-6.97,18.83-10.46,28.24-1.73,4.67-3.46,9.34-5.19,14.01-.88,2.37-1.73,4.75-2.64,7.12-.66,1.73-2.17,3.12-3.63,4.22-5.72,4.31-14.15,3.74-19-1.65-2.44-2.72-3.81-6.29-3.79-9.95.02-2.33.88-4.71,1.41-6.96.56-2.38,1.13-4.76,1.69-7.14,2.6-10.98,5.2-21.96,7.8-32.94.42-1.78,3.17-1.03,2.75.76Z" fill="#d6744c" stroke-width="0"/>
    </g>
    <path d="m666.1,619.33c-.3,1.71-.84,3.91-1.85,6.08t0,.02c-1.48,1.93-3.21,3.46-3.38,3.6-2.68,2.33-5.5,3.51-8.48,4.3-3.11.07-7.61-.33-14.4-1.57-5.9-1.08-9.73-2.17-12.55-3.12-5.49-1.85-7.19-3.18-12.99-2.94-2.97.13-5.35.59-7.57,1.08-4.16.9-7.77,1.86-13.54.77-4.21-.8-7.53-2.31-9.69-3.47,0,0,0,0,0,0,.03-.05.04-.11.07-.17.15-.36.31-.75.46-1.16h0s0-.03,0-.03c0-.03.03-.05.03-.09.77-2.41,1.49-5.17,2.03-8.25.57-3.27.81-6.31.88-9.04.03-1.48,0-2.87-.05-4.16,5.57.72,8.72,2.66,10.58,4.36,1.16,1.06,2.63,2.78,5.29,3.5.78.21,2.63.71,4.4-.02,2.33-.96,3.01-3.4,4.38-6.18.2-.41.43-.86.69-1.31v-.03c1.14-2.06,2.84-4.57,5.44-7.23.89,1,1.96,2.13,3.21,3.33.48.46.98.93,1.51,1.4.67.61,1.39,1.23,2.15,1.86.06.05.13.11.2.17,1.11.91,2.2,1.73,3.25,2.49,1.43,1.02,2.78,1.89,3.99,2.62.81.48,1.55.91,2.21,1.28.08.03.15.08.22.12.74.39,1.38.72,1.88.97.33.17.59.29.8.39.83.39,1.6.73,2.35,1.04.88.36,1.71.67,2.56.96.83.28,1.66.54,2.55.8,2.7.8,5.9,1.63,10.96,3.26.03.02.06.03.1.03,2.26.73,4.34,1.43,6.2,2.09,2.49.88,4.56,1.65,6.14,2.26Z" fill="#1a7ed8" stroke-width="0"/>
    <path d="m666.1,619.33c-.3,1.71-.84,3.91-1.85,6.08t0,.02c-1.48,1.93-3.21,3.46-3.38,3.6-2.68,2.33-5.5,3.51-8.48,4.3-3.11.07-7.61-.33-14.4-1.57-5.9-1.08-9.73-2.17-12.55-3.12.11-.15.22-.29.33-.44,7.11-8.92,20.13-.87,22.74-6.16,1.76-3.56,3.93-5.93,5.16-7.1.03.02.06.03.1.03,2.26.73,4.34,1.43,6.2,2.09,2.49.88,4.56,1.65,6.14,2.26Z" fill="#fed301" stroke-width="0"/>
    <path d="m604.86,626.79c-4.16.9-7.77,1.86-13.54.77-4.21-.8-7.53-2.31-9.69-3.47,0,0,0,0,0,0,.03-.05.04-.11.07-.17.15-.36.31-.75.46-1.16h0s0-.03,0-.03c0-.03.03-.05.03-.09.77-2.41,1.49-5.17,2.03-8.25.57-3.27.81-6.31.88-9.04,4.94,1.53,15.38,6.45,19.76,21.45Z" fill="#fed301" stroke-width="0"/>
    <g>
      <path d="m664.2,625.42s0,0,0,.02c-1.52,1.93-3.29,3.46-3.46,3.6-2.75,2.33-5.64,3.51-8.68,4.3-1.57.41-3.17.73-4.82,1.03-3.01.56-5.35.62-6.42.67-12.3.62-18.51.88-21.52-1.44-1.87-1.44-2.14-2.5-3.92-3.01-2.54-.74-4.25,1.64-8.7,3.06-1.98.63-3.75.74-7.21.91-6.84.34-13.58-.16-18.93-.8-.48-.99-2.39-5.15-.93-9.67.02-.06.04-.11.06-.18.08-.24.17-.48.27-.71.06-.15.13-.3.21-.45,0,0,0-.02,0-.03,0-.03.03-.05.04-.09.62-1.26,1.4-2.25,2.1-2.97,2.2.17,5.3.44,9.02.84,10.51,1.16,15.75,1.74,21.65,3.43,6.84,1.97,7.31,3.23,15.34,5.22,3.65.9,6.76,1.43,9.92,1.72,4.75.43,8.88.72,13.52-.93,5.45-1.94,10.57-6.26,9.88-8.84-.43-1.59-3.08-2.59-2.72-3.51.05-.13.21-.31.93-.53,1.91-.61,5.31.3,6.29,2.26.89,1.78-.36,4.14-1.9,6.08Z" fill="#ff6844" stroke-width="0"/>
      <path d="m618.55,634.55c-.77-.59-1.29-1.13-1.71-1.56-.64-.65-.99-1.02-1.81-1.25-1-.29-1.84.13-3.5,1.03-1.16.63-2.6,1.41-4.51,2.02-2.09.67-3.92.78-7.51.96-5.83.29-12.26.02-19.13-.81l-.64-.08-.28-.58c-.79-1.64-2.48-5.94-1.01-10.51.03-.1.05-.18.09-.27.08-.25.18-.5.28-.75.06-.14.12-.28.19-.42,0-.02.02-.04.03-.06l.06-.15c.59-1.21,1.37-2.31,2.32-3.27l.39-.39.55.04c1.98.15,5.15.42,9.06.85h.1c10.5,1.17,15.78,1.76,21.75,3.47,3.11.9,4.93,1.65,6.7,2.38,2.17.9,4.23,1.75,8.6,2.83,3.59.88,6.59,1.41,9.75,1.69,4.93.45,8.75.65,13.01-.87,5.51-1.96,9.53-5.95,9.13-7.41-.12-.44-.76-.97-1.28-1.41-.8-.67-1.9-1.59-1.4-2.85.28-.7,1-1.02,1.67-1.23,2.45-.78,6.44.33,7.71,2.86.94,1.87.34,4.23-1.78,7.03v.09s-.3.3-.3.3c-1.53,1.94-3.32,3.51-3.59,3.72-2.55,2.16-5.37,3.56-9.15,4.54-1.68.44-3.41.77-4.9,1.05-2.8.52-5.03.62-6.24.68l-.34.02c-4.7.24-8.58.43-11.77.43-5.09,0-8.44-.5-10.54-2.12Zm44.71-9.87c1.65-2.09,2.27-3.8,1.77-4.81-.61-1.21-2.94-1.97-4.44-1.76.04.03.07.06.11.09.77.65,1.73,1.45,2.04,2.61.94,3.49-4.85,8.21-10.63,10.27-4.71,1.68-8.78,1.47-14.02,1-3.23-.29-6.44-.85-10.1-1.75-4.55-1.13-6.78-2.05-8.94-2.94-1.7-.7-3.47-1.43-6.45-2.29-5.78-1.66-10.98-2.23-21.35-3.38h-.1c-3.51-.4-6.43-.65-8.41-.81-.45.51-.98,1.22-1.43,2.11l-.14.36-.05.05c-.04.08-.08.16-.11.24-.09.21-.17.43-.24.64l-.06.16c-1.08,3.34-.1,6.55.6,8.2,6.49.75,12.56.99,18.07.72,3.48-.17,5.09-.27,6.91-.85,1.7-.55,2.98-1.24,4.1-1.85,1.78-.96,3.31-1.8,5.29-1.22,1.41.41,2.11,1.12,2.84,1.87.41.42.83.85,1.47,1.34,2.73,2.1,9.51,1.76,20.74,1.2l.35-.02c1.15-.05,3.28-.15,5.91-.64,1.45-.27,3.13-.59,4.74-1.01,3.42-.89,5.95-2.15,8.24-4.08.25-.2,1.71-1.5,3.02-3.1l.26-.33Z" fill="#ff6844" stroke-width="0"/>
    </g>
    <path d="m616.53,604.35c0,.73-.59,1.32-1.31,1.33-.73,0-1.32-.59-1.33-1.31,0-.73.59-1.32,1.31-1.33.73,0,1.32.59,1.33,1.31Z" fill="#fed301" stroke-width="0"/>
    <path d="m642.7,611.69c-1.71,3.34-3.9,3.35-3.9,3.35-26.46-14.86-28.4-13.52-28.4-13.52v-.03c.32-1.27.87-2.98,1.93-4.83,1.16-2.03,2.49-3.48,3.5-4.41,2.07,2.89,4.97,6.34,8.84,9.65,0,0,4.79,4.09,9.79,6.61.4.2.8.39.8.39.83.39,1.6.73,2.35,1.04.88.36,1.71.67,2.56.96.83.28,1.66.54,2.55.8Z" fill="#fed301" stroke-width="0"/>
    <path d="m616.09,604.35c0,.49-.39.88-.88.88-.49,0-.88-.39-.88-.88,0-.49.39-.88.88-.88.49,0,.88.39.88.88Z" fill="#060506" stroke-width="0"/>
    <path d="m625.36,610.48c0,.73-.59,1.32-1.31,1.33-.73,0-1.32-.59-1.33-1.31,0-.73.59-1.32,1.31-1.33.73,0,1.32.59,1.33,1.31Z" fill="#fed301" stroke-width="0"/>
    <path d="m624.92,610.48c0,.49-.39.88-.88.88-.49,0-.88-.39-.88-.88,0-.49.39-.88.88-.88.49,0,.88.39.88.88Z" fill="#060506" stroke-width="0"/>
    <path d="m634.17,613.96c0,.73-.59,1.32-1.31,1.33-.73,0-1.32-.59-1.33-1.31,0-.73.59-1.32,1.31-1.33.73,0,1.32.59,1.33,1.31Z" fill="#fed301" stroke-width="0"/>
    <path d="m633.73,613.96c0,.49-.39.88-.88.88-.49,0-.88-.39-.88-.88,0-.49.39-.88.88-.88.49,0,.88.39.88.88Z" fill="#060506" stroke-width="0"/>
    <path d="m617.31,604.41c.58-.21,1.2-.47,1.83-.77,1.39-.67,2.93-1.6,4.46-2.7.2-.14.24-.42.1-.61-.14-.2-.41-.24-.61-.1-1.48,1.06-2.98,1.97-4.32,2.62-.75.36-1.47.65-2.14.87-.26.08-.52.16-.79.23,1.27-2.29,4.02-6.81,4.05-6.87.13-.21.06-.48-.15-.61-.21-.13-.48-.06-.6.15-.15.24-3.66,6.01-4.53,7.77-.07.15-.06.33.04.46.1.13.27.2.43.17.61-.12,1.22-.27,1.81-.46.14-.04.28-.09.42-.14Z" fill="#ff6844" stroke-width="0"/>
    <path d="m624.15,610.78l.27-.11c.64-.25,1.25-.56,1.83-.92,1.46-.91,2.69-2.15,3.64-3.67.13-.21.07-.48-.14-.61-.21-.13-.48-.07-.61.14-.89,1.41-2.02,2.55-3.37,3.4-.44.28-.91.52-1.39.73-1.06-1.59-.34-6.48.04-8.32.05-.24-.1-.47-.34-.52-.24-.05-.47.1-.52.34-.16.76-1.51,7.48.38,9.35l.2.2Z" fill="#ff6844" stroke-width="0"/>
    <path d="m633.37,614.42c1.75-.62,3.42-4.46,3.61-4.91.09-.22,0-.48-.23-.58-.22-.1-.48,0-.58.23-.68,1.61-2.15,4.27-3.18,4.45-.12.02-.28.03-.48-.18-1.32-1.31-1.08-5.3-.87-6.72.03-.24-.13-.46-.37-.5-.24-.03-.46.13-.5.37-.03.23-.78,5.59,1.13,7.47.37.36.81.51,1.27.41.07-.01.14-.03.21-.06Z" fill="#ff6844" stroke-width="0"/>
    <g>
      <path d="m718.94,561.98c3.3,15.27,6.61,30.54,9.91,45.82,1.99,5.29,7.08,8.73,12.53,8.54,6-.21,11.19-4.78,12.24-10.95-1.6-17.63-3.21-35.27-4.81-52.9-9.96,3.17-19.92,6.33-29.88,9.5Z" fill="#d6744c" stroke-width="0"/>
      <path d="m720.31,561.6c1.99,9.18,3.97,18.36,5.96,27.54.98,4.55,1.97,9.1,2.95,13.65.45,2.07.68,4.28,1.72,6.15.78,1.38,1.82,2.62,3.08,3.59,5.27,4.06,12.93,2.65,16.49-2.95.8-1.27,1.64-2.93,1.67-4.45.04-2.32-.43-4.75-.64-7.06-.42-4.64-.84-9.29-1.27-13.93-.96-10.55-1.92-21.1-2.88-31.65l1.8,1.37c-9.96,3.17-19.92,6.33-29.88,9.5-1.75.56-2.5-2.19-.76-2.75,9.96-3.17,19.92-6.33,29.88-9.5.95-.3,1.72.5,1.8,1.37.92,10.08,1.83,20.15,2.75,30.23.45,4.96.9,9.92,1.35,14.88.23,2.5.65,5.05.69,7.56.03,1.69-.78,3.56-1.57,5.03-3.4,6.33-11.22,9.29-17.89,6.5-3.23-1.35-5.96-3.88-7.48-7.05-1.01-2.09-1.28-4.51-1.77-6.77-.53-2.47-1.07-4.94-1.6-7.4-2.39-11.03-4.77-22.06-7.16-33.09-.39-1.79,2.36-2.55,2.75-.76Z" fill="#d6744c" stroke-width="0"/>
    </g>
    <path d="m804.75,619.61c-.32,1.7-.89,3.9-1.93,6.05t0,.02c-1.51,1.91-3.26,3.42-3.43,3.56-2.72,2.29-5.55,3.43-8.53,4.19-3.11.03-7.61-.44-14.37-1.77-5.89-1.16-9.7-2.3-12.51-3.29-5.46-1.93-7.14-3.28-12.95-3.12-2.97.09-5.36.52-7.59.97-4.17.84-7.8,1.75-13.55.58-4.2-.86-7.49-2.41-9.64-3.61,0,0,0,0,0,0,.03-.05.05-.11.07-.17.15-.36.32-.75.48-1.16h0s0-.03,0-.03c0-.03.03-.05.04-.09.81-2.39,1.56-5.15,2.14-8.22.61-3.26.9-6.29,1-9.03.05-1.48.05-2.87,0-4.16,5.56.79,8.69,2.78,10.52,4.5,1.14,1.08,2.6,2.82,5.25,3.57.78.22,2.62.75,4.4.04,2.34-.93,3.06-3.36,4.46-6.12.21-.41.44-.85.71-1.3v-.03c1.17-2.04,2.91-4.53,5.54-7.15.88,1.01,1.93,2.16,3.16,3.38.47.46.97.94,1.49,1.42.66.62,1.37,1.25,2.12,1.89.06.05.13.12.2.17,1.1.93,2.17,1.76,3.21,2.53,1.42,1.03,2.75,1.93,3.95,2.68.8.49,1.54.93,2.2,1.31.08.04.15.08.22.13.74.4,1.37.74,1.87,1,.32.17.59.3.8.4.82.4,1.59.75,2.33,1.07.88.37,1.7.69,2.54.99.82.29,1.65.56,2.54.83,2.69.84,5.88,1.71,10.92,3.41.03.02.06.03.1.04,2.25.76,4.32,1.49,6.17,2.17,2.47.91,4.53,1.72,6.11,2.35Z" fill="#1a7ed8" stroke-width="0"/>
    <path d="m804.75,619.61c-.32,1.7-.89,3.9-1.93,6.05t0,.02c-1.51,1.91-3.26,3.42-3.43,3.56-2.72,2.29-5.55,3.43-8.53,4.19-3.11.03-7.61-.44-14.37-1.77-5.89-1.16-9.7-2.3-12.51-3.29.11-.15.22-.29.34-.44,7.23-8.82,20.14-.59,22.83-5.85,1.81-3.54,4.01-5.88,5.25-7.03.03.02.06.03.1.04,2.25.76,4.32,1.49,6.17,2.17,2.47.91,4.53,1.72,6.11,2.35Z" fill="#fed301" stroke-width="0"/>
    <path d="m743.42,626.22c-4.17.84-7.8,1.75-13.55.58-4.2-.86-7.49-2.41-9.64-3.61,0,0,0,0,0,0,.03-.05.05-.11.07-.17.15-.36.32-.75.48-1.16h0s0-.03,0-.03c0-.03.03-.05.04-.09.81-2.39,1.56-5.15,2.14-8.22.61-3.26.9-6.29,1-9.03,4.91,1.6,15.29,6.66,19.46,21.72Z" fill="#fed301" stroke-width="0"/>
    <g>
      <path d="m802.23,625.64s0,0,0,.02c-1.54,1.91-3.33,3.42-3.51,3.56-2.78,2.29-5.69,3.43-8.74,4.18-1.57.39-3.18.68-4.83.96-3.02.52-5.36.55-6.43.58-12.31.45-18.52.63-21.5-1.74-1.85-1.47-2.1-2.53-3.87-3.07-2.53-.77-4.27,1.58-8.75,2.94-1.99.61-3.76.68-7.22.81-6.84.25-13.58-.34-18.92-1.07-.47-1-2.32-5.18-.8-9.68.02-.06.04-.11.06-.18.08-.24.18-.47.28-.71.06-.15.14-.3.21-.45,0,0,0-.02,0-.03,0-.03.03-.05.04-.09.63-1.25,1.43-2.23,2.14-2.94,2.2.2,5.3.51,9,.97,10.49,1.31,15.73,1.96,21.6,3.73,6.81,2.06,7.26,3.33,15.27,5.43,3.64.95,6.74,1.53,9.9,1.86,4.74.5,8.87.84,13.53-.75,5.48-1.87,10.66-6.12,10-8.7-.41-1.59-3.05-2.63-2.67-3.55.05-.13.22-.3.93-.52,1.92-.58,5.31.38,6.26,2.35.87,1.8-.42,4.13-1.98,6.05Z" fill="#ff6844" stroke-width="0"/>
      <path d="m756.46,634.14c-.76-.6-1.28-1.15-1.69-1.58-.63-.66-.98-1.03-1.79-1.28-.99-.3-1.84.1-3.51.98-1.17.61-2.62,1.37-4.54,1.96-2.11.64-3.93.73-7.52.86-5.83.21-12.26-.15-19.12-1.08l-.64-.09-.27-.59c-.77-1.65-2.4-5.98-.86-10.53.03-.09.06-.18.1-.27.09-.25.19-.49.29-.74.04-.09.08-.17.12-.26v-.27s.22-.19.22-.19c.6-1.16,1.38-2.21,2.31-3.14l.39-.39.55.05c1.98.18,5.15.49,9.05.97h.11c10.48,1.32,15.74,1.98,21.69,3.78,3.1.94,4.91,1.72,6.67,2.47,2.16.93,4.2,1.8,8.56,2.95,3.57.93,6.57,1.5,9.72,1.83,4.93.51,8.75.77,13.02-.69,5.53-1.88,9.61-5.82,9.23-7.29-.11-.44-.75-.98-1.25-1.42-.79-.68-1.88-1.62-1.36-2.87.29-.7,1.01-1,1.69-1.2,2.46-.75,6.44.41,7.67,2.97.91,1.88.28,4.23-1.87,6.99v.12s-.33.29-.33.29c-1.57,1.93-3.36,3.46-3.62,3.65-2.58,2.12-5.42,3.48-9.21,4.42-1.52.38-3.07.67-4.92.98-2.8.48-5.04.55-6.24.59h-.34c-4.11.16-7.59.29-10.54.29-5.79,0-9.5-.49-11.74-2.27Zm44.85-9.25c1.68-2.06,2.33-3.76,1.83-4.79-.59-1.22-2.91-2.01-4.42-1.82.04.03.07.06.11.09.76.66,1.71,1.48,2,2.64.89,3.5-4.96,8.14-10.77,10.12-4.74,1.61-8.8,1.35-14.04.8-3.23-.34-6.43-.94-10.08-1.89-4.53-1.19-6.75-2.14-8.9-3.06-1.7-.73-3.45-1.48-6.42-2.38-5.75-1.74-10.95-2.39-21.29-3.68h-.11c-3.5-.45-6.42-.74-8.4-.93-.57.64-1.08,1.35-1.47,2.1l-.15.37-.05.04c-.04.07-.07.15-.1.22-.09.21-.17.42-.25.64l-.06.16c-1.13,3.33-.19,6.54.49,8.21,6.48.84,12.55,1.17,18.06.97,3.48-.13,5.09-.2,6.92-.76,1.71-.52,3-1.2,4.13-1.79,1.79-.94,3.34-1.75,5.31-1.15,1.41.43,2.09,1.15,2.82,1.91.4.42.82.86,1.45,1.36,2.7,2.14,9.48,1.89,20.72,1.48h.36c1.15-.05,3.28-.12,5.92-.57,1.8-.31,3.29-.59,4.75-.95,3.43-.85,5.98-2.06,8.3-3.97.02-.01,1.59-1.3,3.06-3.05l.27-.33Z" fill="#ff6844" stroke-width="0"/>
    </g>
    <path d="m755.39,603.95c0,.73-.6,1.31-1.33,1.31-.73,0-1.31-.6-1.31-1.33,0-.73.6-1.31,1.33-1.31s1.31.6,1.31,1.33Z" fill="#fed301" stroke-width="0"/>
    <path d="m781.46,611.65c-1.76,3.32-3.95,3.3-3.95,3.3-26.26-15.22-28.21-13.91-28.21-13.91v-.03c.33-1.27.91-2.97,1.99-4.8,1.19-2.02,2.54-3.44,3.56-4.37,2.03,2.91,4.88,6.4,8.71,9.77,0,0,4.73,4.16,9.7,6.74.4.21.8.4.8.4.82.4,1.59.75,2.33,1.07.88.37,1.7.69,2.54.99.82.29,1.65.56,2.54.83Z" fill="#fed301" stroke-width="0"/>
    <path d="m754.95,603.94c0,.49-.4.88-.89.87-.49,0-.88-.4-.87-.89,0-.49.4-.88.89-.87.49,0,.88.4.87.89Z" fill="#060506" stroke-width="0"/>
    <path d="m764.13,610.19c0,.73-.6,1.31-1.33,1.31-.73,0-1.31-.6-1.31-1.33,0-.73.6-1.31,1.33-1.31.73,0,1.31.6,1.31,1.33Z" fill="#fed301" stroke-width="0"/>
    <path d="m763.69,610.19c0,.49-.4.88-.89.87-.49,0-.88-.4-.87-.89,0-.49.4-.88.89-.87.49,0,.88.4.87.89Z" fill="#060506" stroke-width="0"/>
    <path d="m772.9,613.8c0,.73-.6,1.31-1.33,1.31-.73,0-1.31-.6-1.31-1.33,0-.73.6-1.31,1.33-1.31.73,0,1.31.6,1.31,1.33Z" fill="#fed301" stroke-width="0"/>
    <path d="m772.46,613.79c0,.49-.4.88-.89.87s-.88-.4-.87-.89c0-.49.4-.88.89-.87.49,0,.88.4.87.89Z" fill="#060506" stroke-width="0"/>
    <path d="m756.17,604.01c.59-.2,1.21-.45,1.84-.74,1.4-.65,2.96-1.56,4.49-2.64.2-.14.25-.41.11-.61-.14-.2-.41-.25-.61-.11-1.5,1.04-3,1.93-4.36,2.56-.75.35-1.48.63-2.15.84-.26.08-.52.15-.79.22,1.3-2.28,4.11-6.76,4.14-6.81.13-.21.07-.48-.14-.61-.2-.13-.48-.07-.61.14-.15.24-3.74,5.96-4.64,7.7-.08.15-.06.33.04.46.1.13.27.2.43.17.61-.11,1.22-.26,1.81-.43.14-.04.28-.09.42-.14Z" fill="#ff6844" stroke-width="0"/>
    <path d="m762.92,610.48l.27-.1c.64-.24,1.26-.55,1.84-.9,1.47-.89,2.72-2.11,3.7-3.62.13-.2.07-.48-.13-.61-.2-.13-.48-.08-.61.13-.91,1.4-2.05,2.52-3.41,3.35-.44.27-.91.51-1.4.71-1.04-1.61-.25-6.48.16-8.32.05-.24-.1-.47-.33-.53-.24-.06-.47.1-.53.33-.17.76-1.61,7.46.25,9.35l.2.21Z" fill="#ff6844" stroke-width="0"/>
    <path d="m772.09,614.24c1.75-.59,3.48-4.41,3.68-4.86.1-.22,0-.48-.23-.58-.22-.1-.48,0-.58.22-.71,1.61-2.21,4.24-3.24,4.41-.12.02-.28.02-.48-.18-1.3-1.33-1.01-5.31-.78-6.74.04-.24-.13-.47-.37-.5-.24-.04-.47.13-.5.37-.04.23-.85,5.58,1.02,7.49.36.37.8.52,1.27.43.07-.01.14-.03.21-.06Z" fill="#ff6844" stroke-width="0"/>
    <path d="m529.7,444.76c3.57,2.44,23.98,15.88,51.04,10.35,9.19-1.88,16.8-5.47,22.9-9.49,6.37-4.18,11.11-8.83,14.28-12.46,2.26-2.59,3.74-4.66,4.45-5.7-.56-6.89-1.12-13.8-1.68-20.7-.22-2.82-.46-5.63-.68-8.45-.23-2.84-.46-5.68-.69-8.52-23.76-5.09-47.53-10.18-71.28-15.27-1.47,2.81-2.97,5.93-4.48,9.33-2.81,6.38-5.58,13.79-7.91,22.14-.29,1.04-.57,2.09-.85,3.16-1.06,4.1-1.9,8.07-2.59,11.86-.43,2.35-.78,4.64-1.08,6.86-.86,6.23-1.26,11.91-1.43,16.91Z" fill="#1988ff" stroke-width="0"/>
    <path d="m534.05,462.27c5.45,7.77,14.76,8.04,53.97,12.22,11.68,1.24,21.03,2.37,26.48,3.05-10.18,32.25-20.37,64.49-30.55,96.74,5.84,1.75,12.76,3.33,20.6,4.22,14.44,1.64,26.82.34,35.92-1.41,5.73-25.37,9.88-45.56,12.72-59.84.92-4.6,1.8-9.2,2.68-13.76,2.96-15.49,5.71-30.74,8.25-45.74.76-4.52-1.75-8.94-6.01-10.64-6.98-2.78-14.05-5.54-21.21-8.27-24.66-9.4-48.8-17.85-72.3-25.46-1.04-.44-18.14-7.4-27.49,1.02-3.95,3.55-5.07,8.55-5.67,15.34-.17,1.87-.31,3.89-.44,6.05-.8,12.65-1.28,20.3,3.05,26.48Z" fill="#1988ff" stroke-width="0"/>
    <path d="m538.32,397.08c11.25,4.38,27.04,9.12,46.35,10.7,14,1.14,26.25.33,36.02-1.03-.22-2.82-.46-5.63-.68-8.45-.23-2.84-.46-5.68-.69-8.52-23.76-5.09-47.53-10.18-71.28-15.27-.75,1.45-1.49,2.93-2.23,4.44-3.02,6.25-5.47,12.34-7.48,18.15Z" fill="#a1b719" stroke-width="0"/>
    <path d="m494.86,458.2c10.79,27.18,22.58,38.32,37.2,39.64,6.62.59,31.14,1.87,56.78.95l-1.71-22.22-.02-.26c-4.26-2.75-8.48-5.53-12.59-8.5-6.25-4.45-12.34-9.13-18.28-14-5.92-4.88-11.69-9.93-17.2-15.27-5.48-5.37-10.92-10.76-15.36-16.98-4.51-6.16-8.53-12.69-11.83-19.55-1.64-3.43-3.09-6.97-4.19-10.58-1.1-3.6-1.87-7.33-1.93-11.05-.05-3.37.54-6.74,2.08-9.64-.48-.48-.96-.97-1.46-1.45-3.34-3.28-7.21-6.66-11.22-9.31-3.3,3.11-5.86,6.82-7.79,10.96-.21.46-.42.92-.62,1.37-10.95,25.75.57,66.83,8.14,85.9Z" fill="#fe6642" stroke-width="0"/>
    <path d="m526.32,451.25c-7.21-6.14-32.64-27.82-35.32-62.5-.88-11.42.96-20.97,2.73-27.36.45-.48.92-.96,1.4-1.41,4.01,2.65,7.88,6.03,11.22,9.31.5.48.98.97,1.46,1.45-1.54,2.9-2.13,6.27-2.08,9.64.06,3.72.84,7.44,1.93,11.05,1.1,3.62,2.55,7.15,4.19,10.58,3.3,6.86,7.32,13.39,11.83,19.55,4.44,6.21,9.88,11.61,15.36,16.98,5.51,5.35,11.28,10.4,17.2,15.27,5.94,4.87,12.03,9.55,18.28,14,4.1,2.97,8.33,5.75,12.59,8.5l.02.26c-11.02-1.06-37.14-5.14-60.81-25.32Z" fill="#fe6642" stroke-width="0"/>
    <path d="m639.79,329.94c-.28,1.31-.62,2.79-1.02,4.62-.58,2.82-1.28,6.42-1.97,11.42-.21,1.42-.4,2.95-.6,4.62,0,.04-.01.09-.02.13-.64,5.4-2,13.84-4.67,30.03-.19,1.14-.38,2.31-.58,3.52-.14.88-.3,1.8-.54,2.77-.15.61-.34,1.24-.57,1.88-.42,1.17-1.02,2.35-1.89,3.54-.73,1-1.56,1.84-2.49,2.57-2.59,2.03-5.95,3.12-9.88,3.99-2.62.58-5.52,1.05-8.62,1.64-6.43,1.21-13.4,1.77-25.31.83-2.57-.21-5.36-.48-8.43-.83-4.06-.46-8.65-1.07-13.7-1.87-1.57-.26-3.18-.52-4.85-.81-6.25-1.11-13.11-2.49-20.46-4.31-1.2-1-2.91-2.63-4.51-4.95-.16-.23-.32-.47-.46-.71-7.5-11.82-2.13-26.69.64-39.6.07-.31.13-.61.19-.92.45-2.26.78-4.45,1.03-6.58,3.02-26.29-7.78-42.84-.64-55.12,2.75-4.77,9.3-7.12,22.39-11.82,1.56-.56,3.1-1.06,4.63-1.51.47-.15.94-.29,1.41-.42,17.03-4.84,31.7-3.61,46.32-1.33.68.11,1.37.22,2.05.33,2.25.38,4.53.76,6.79,1.15.13.03.25.05.38.07,1.57.28,3.16.6,4.75,1.22,1.17.45,2.35,1.07,3.52,1.92,4.45,3.27,6.6,9.92,10.5,23.11,4.89,16.53,5.95,13.93,7,20.79.7,4.59.39,6.95-.39,10.61Z" fill="#c6c721" stroke-width="0"/>
    <path d="m529.18,387.69c7.11.06,11.52-1.98,14.05-3.58,14.66-9.27,14.43-34.22,14.25-54.14-.09-9.88-1.02-17.92-1.78-23.09l-24.66,33.87c-.24,2.12-.58,4.31-1.02,6.56-.06.31-.12.61-.19.92-2.76,12.86-8.06,27.68-.65,39.45Z" fill="#a1b719" stroke-width="0"/>
    <path d="m531.56,369.02s-3.94,11.42-11.07,12.01c-7.13.59-28.13-11.37-22.09-28.26,6.04-16.9,33.16,16.25,33.16,16.25Z" fill="#a1b719" stroke-width="0"/>
    <path d="m550.55,274.81s-21.15,4.02-30.06,15.91c-8.91,11.88-22.98,70.92-22.98,70.92,1.29,1.88,10.78,15.43,20.55,13.64,7.64-1.4,11.47-11.46,14.32-19.8,5.37-15.72,12.85-41.88,18.18-80.67Z" fill="#d6744c" stroke-width="0"/>
    <path d="m498.4,352.54c2.94-.19,8.18.4,14.16,2.8,4.81,1.92,9.67,5.15,12.53,10.6,1.41,2.68,2.34,5.89,2.53,9.75,1.5-2.47,3.01-5.06,4.52-7.78,4.07-7.31,8.12-15.52,11.86-24.63.53-1.3,1.06-2.62,1.58-3.95.08-.2.16-.4.24-.61,4.33-11.22,7.49-22.03,9.78-32.11,3.07-13.47,4.59-25.67,5.3-35.95-24.57,1.7-35.12,11.87-39.13,16.63-3.11,3.68-5.59,8.07-14.35,35.59-2.24,7.03-4.19,13.39-5.83,18.87-1.24,4.13-2.3,7.74-3.18,10.79Z" fill="#c6c721" stroke-width="0"/>
    <path d="m519.16,340.81c.02.88.09,1.76.2,2.63-.03-.2-.05-.41-.08-.61.1.75.24,1.49.4,2.23.14.6.08,1.24-.23,1.78-.28.48-.83.93-1.38,1.06-.59.13-1.25.11-1.78-.23-.49-.32-.92-.79-1.06-1.38-.41-1.79-.65-3.63-.69-5.47-.01-.58.27-1.22.67-1.63s1.06-.7,1.63-.67c1.27.06,2.28,1.01,2.3,2.3h0Z" fill="#b0b1b7" stroke-width="0"/>
    <path d="m523.31,354.11c-.2.3-.36.61-.5.93.08-.18.15-.37.23-.55-.15.35-.26.71-.33,1.08-.07.3-.21.56-.41.78-.16.25-.38.45-.65.59-.26.17-.55.26-.86.27-.31.07-.61.05-.92-.04l-.55-.23c-.35-.2-.62-.48-.83-.83l-.23-.55c-.11-.41-.11-.82,0-1.22.08-.36.19-.72.33-1.06.22-.52.43-1.03.74-1.5.14-.27.34-.48.59-.65.22-.2.48-.34.78-.41.31-.1.61-.11.92-.04.31.01.59.1.86.27.16.12.31.24.47.36.29.29.48.63.59,1.02l.08.61c0,.42-.11.8-.31,1.16h0Z" fill="#b0b1b7" stroke-width="0"/>
    <path d="m514.6,334.28c-.53.8-1.15,1.57-1.88,2.21-.72.64-1.52,1.22-2.38,1.66-.55.28-1.16.4-1.78.23-.53-.15-1.11-.56-1.38-1.06-.28-.53-.42-1.18-.23-1.78.18-.55.52-1.11,1.06-1.38.52-.26,1.01-.57,1.46-.92-.16.12-.31.24-.47.36.59-.46,1.12-.99,1.58-1.58-.12.16-.24.31-.36.47.14-.18.27-.36.39-.55.33-.5.79-.9,1.38-1.06.31-.1.61-.11.92-.04.31.01.59.11.86.27.49.32.92.79,1.06,1.38.13.59.11,1.26-.23,1.78h0Z" fill="#b0b1b7" stroke-width="0"/>
    <path d="m586.72,436.61c4.45-12.99,17.97-20.88,31.57-18.33.73.14,1.46.29,2.19.44.4.08.79.15,1.19.23.01,0,.02,0,.03.01,5.48,1.08,10.95,2.16,16.43,3.25.34.07.67.13,1.01.2,23.69,4.67,47.36,9.37,71.04,14.05,3.65.72,6.66,3.29,7.94,6.78,5.65,15.33,13.72,35.26,21.65,55.19,7.63,19.2,15.13,38.38,20.21,53.41h0v.02c2.96,8.74,5.1,16.09,5.97,21.2-1.9.33-3.86.65-5.87.95h-.09s-.02.02-.02.02c-3.27.48-6.7.91-10.26,1.28h-.08s-.13.02-.13.02c-3.23.33-6.57.6-10.02.8-4.11.23-8.06.35-11.88.37h-.33s-.5,0-.5,0c-2.41,0-4.75-.02-7.03-.09h-.17s-.1,0-.1,0c-2.22-.06-4.38-.16-6.47-.28l-2.05-6.03-1.65-4.49-.79-2.69.08-.02c-9.39-28.18-18.78-56.35-28.18-84.53-7.94-.8-15.9-1.61-23.84-2.41-18.87-1.91-37.74-3.82-56.61-5.73-6.71-3.62-11.43-9.67-13.51-16.56-1.65-5.44-1.66-11.38.27-17.05Z" fill="#1988ff" stroke-width="0"/>
    <polygon points="643.68 561.23 640.19 576.89 633.1 578.04 621.59 578.7 616.2 578.7 607.6 578.64 597.64 577.07 590.54 575.63 585.57 574.64 583.67 574.08 586.8 564.17 588.62 558.39 643.68 561.23" fill="#4a8eef" stroke-width="0"/>
    <path d="m621.62,395.64c.93-.72,1.75-1.57,2.48-2.57.86-1.18,1.45-2.37,1.87-3.53.24-.64.42-1.27.57-1.88.23-.96.39-1.88.53-2.76.2-1.21.39-2.38.57-3.51,2.64-16.13,3.99-24.54,4.63-29.92,0-.04.01-.09.02-.13.2-1.66.39-3.18.59-4.61.69-4.99,1.38-8.57,1.97-11.37.39-1.82.73-3.3,1.01-4.61.77-3.64,1.07-6.01.37-10.57-1.03-6.83-2.09-4.23-6.93-20.7-3.86-13.16-5.99-19.77-10.4-23.03-1.16-.86-2.33-1.47-3.49-1.91-1.57-.62-3.14-.94-4.7-1.22-.12-.02-.25-.04-.37-.07-18.16-3.14-35.67-6.16-56.99.57,22.63-7.94,40.88-4.8,59.84-1.52.12.02.25.04.37.07,1.56.28,3.13.61,4.7,1.22,1.16.45,2.34,1.06,3.49,1.91,4.41,3.26,6.54,9.88,10.4,23.03,4.84,16.47,5.89,13.87,6.93,20.7.7,4.56.4,6.93-.37,10.57-.28,1.31-.62,2.79-1.01,4.61-.59,2.8-1.28,6.39-1.97,11.37-.2,1.42-.39,2.95-.59,4.61,0,.04-.01.09-.02.13-.64,5.38-1.99,13.79-4.63,29.92-.18,1.13-.37,2.3-.57,3.51-.14.87-.3,1.8-.53,2.76-.15.62-.33,1.25-.57,1.88-.42,1.16-1.01,2.35-1.87,3.53-.72,1-1.55,1.84-2.48,2.57-1.94,1.53-4.32,2.53-7.05,3.29,1.56-.62,2.97-1.37,4.2-2.34Z" fill="#fdfa89" stroke-width="0"/>
    <path d="m498.4,352.77c2.94-.19,8.18.4,14.16,2.77,7.16,2.83,14.47,8.56,15.05,20.15,1.5-2.44,3.01-5.01,4.52-7.7-.44-3.15-1.51-7.29-4.11-11.42-8.15-12.93-24.12-14.32-26.44-14.48-1.24,4.08-2.3,7.66-3.18,10.69Z" fill="#e9e77a" stroke-width="0"/>
    <path d="m490.52,341.53c2.21,11.56,4.59,22.72,7.09,33.46.57,2.02,1.31,3.89,2.19,5.57,3.07,5.92,7.73,9.58,12.12,9.46,5.11-.13,8.69-5.37,10.88-10.03,1.46-3.1,2.3-5.93,2.58-6.86,2.97-10.01,1-19-5.51-37.83-3.91-11.29-9.36-25.84-16.73-42.6l-19.55,7.1c1.89,13.41,4.18,27.33,6.93,41.73Z" fill="#d6744c" stroke-width="0"/>
    <path d="m504.53,295.74c.16-2.47.19-5.95-.45-10.05-.49-3.13-1.47-7.2-3.55-11.65-2.38-5.1-4.07-8.75-7.49-9.63-1.97-.51-3.57.16-6.69,1.5-4.35,1.87-12.39,5.33-13.45,11.69-.24,1.46-.1,2.91,1.61,7.24,1.64,4.17,4.32,9.98,8.74,16.57,1.27.64,5.51,2.59,10.88,1.45,6.45-1.36,9.76-6.15,10.41-7.14Z" fill="#d6744c" stroke-width="0"/>
    <path d="m496.54,268.69c-1.16-3.25-2.29-6.35-3.38-9.3-3.99-10.81-5.78-15.09-8.16-14.99-.1,0-.71.03-1.2.44-1.51,1.23-.18,4.39,1.37,9.41,1.39,4.46,2.3,9.07,3.56,13.57,2.6.29,5.2.59,7.81.88Z" fill="#d6744c" stroke-width="0"/>
    <path d="m487.8,265.13s5.75,11.69,3.42,12.92c-2.33,1.24-4.97.84-4.97.84,0,0-.67,5.01-6.17,3.6,0,0-2.21,4.21-5.39.6-3.18-3.61-5.14-12.43.36-11.02,0,0,.02-6.81,5.4-4,0,0,1.28-8.48,7.35-2.93Z" fill="#d6744c" stroke-width="0"/>
    <path d="m502.6,287.8c.49-.92,1.1-2.33,1.42-4.13.7-3.94-.48-7.07-1.01-8.4-.84-2.13-1.36-3.46-2.74-4.53-2.14-1.66-5.35-2.14-9.36-.69-6.62,2.4-6.41,2.97-4.78,5.58,1.63,2.61,8.45.78,8.45.78,0,0-6.62,2.4-3.55,8.98,3.07,6.58,11.57,2.41,11.57,2.41Z" fill="#d6744c" stroke-width="0"/>
    <g>
      <path d="m640.8,576.49c.28.41.13-.09.17-.52l-.17.52Z" fill="#e0efff" stroke-width="0"/>
      <path d="m640.97,575.97l.12-.37c-.08.09-.11.22-.12.37Z" fill="#e0efff" stroke-width="0"/>
      <path d="m641.88,572.48c.12.86-.44,1.76-.11,2.35.41-.77.54-2.06.11-2.35Z" fill="#e0efff" stroke-width="0"/>
      <polygon points="641.38 573.65 641.59 573.79 641.36 573.01 641.38 573.65" fill="#e0efff" stroke-width="0"/>
      <polygon points="641.07 574.12 641.17 574.03 641.15 572.87 641.07 574.12" fill="#e0efff" stroke-width="0"/>
      <path d="m642.56,569.76l-.09.83c-.46.7-.33-.58-.63-.11-.19,1.02.59.47.25,1.73.31-.05.38-2.04.81-1.74.35-1.04-.26-.1-.33-.7Z" fill="#e0efff" stroke-width="0"/>
      <path d="m649.3,520.26s.04-.07.07-.11c-.06.04-.1.08-.07.11Z" fill="#e0efff" stroke-width="0"/>
      <path d="m651.5,506.77c.08-.18.15-.36.2-.53-.06.05-.11.11-.17.19l-.03.34Z" fill="#e0efff" stroke-width="0"/>
      <path d="m648.59,528.83c-.09.18-.16.35-.22.51.08-.09.16-.24.22-.51Z" fill="#e0efff" stroke-width="0"/>
      <path d="m657.83,446.57s.09-.04.12-.09c0,0-.01-.01-.02-.02l-.19.05.09.06Z" fill="#e0efff" stroke-width="0"/>
      <path d="m653.61,491.6c.03-.21.06-.42.07-.61-.07.35-.09.52-.07.61Z" fill="#e0efff" stroke-width="0"/>
      <path d="m647.71,533.68c.01-.07.03-.14.04-.2-.03.06-.06.15-.09.24l.05-.03s0,0,0,0Z" fill="#e0efff" stroke-width="0"/>
      <path d="m650.05,511.04c.07-.18.12-.34.15-.48-.07.16-.11.32-.15.48Z" fill="#e0efff" stroke-width="0"/>
      <path d="m645.43,557.41c.09-.22.09-.42.07-.6-.1.13-.15.32-.07.6Z" fill="#e0efff" stroke-width="0"/>
      <path d="m646.29,552.59v.03c.06-.02.05-.03,0-.03Z" fill="#e0efff" stroke-width="0"/>
      <path d="m646.91,549.53v.06s.06-.05,0-.06Z" fill="#e0efff" stroke-width="0"/>
      <path d="m645.5,556.81c.26-.36.87-.37.32-1.01l-.11.09c.21-.28.04-.78.08-1.14-.07.02-.13.06-.18.1-.04.18-.1.41-.21.77-.22.41.04.75.1,1.2Z" fill="#e0efff" stroke-width="0"/>
      <path d="m649.41,520.33c-.13.02-.13.36,0,0h0Z" fill="#e0efff" stroke-width="0"/>
      <path d="m649.11,524.56c.03-.13.06-.27.1-.4-.05.13-.1.25-.1.4Z" fill="#e0efff" stroke-width="0"/>
      <path d="m646,540.13s.03-.05.04-.07c-.06-.04-.06.03-.04.07Z" fill="#e0efff" stroke-width="0"/>
      <path d="m649.28,523.79l-.08.37c.04-.11.08-.23.08-.37Z" fill="#e0efff" stroke-width="0"/>
      <path d="m647.24,535.51s.02-.04.03-.06c-.01.01-.02.03-.03.06Z" fill="#e0efff" stroke-width="0"/>
      <path d="m597.29,421.94c.32.06.44.28.7.44.79-.18-1.31-.49-.25-.52-.28-.1-.53-.13-.75-.14l.26.53c.61.05-.33-.27.04-.31Z" fill="#e0efff" stroke-width="0"/>
      <path d="m654.54,444.14l.11.09c-.01-.21.09-.23-.35-.54-.53.09-.05.75-.9.74.15.03.35.13.54.25-.19-.36.2-.48.61-.54Z" fill="#e0efff" stroke-width="0"/>
      <path d="m653.93,444.68s0,.02.01.03c.02.05.04.1.06.14.1.05.2.11.27.17-.05-.1-.18-.23-.34-.34Z" fill="#e0efff" stroke-width="0"/>
      <path d="m607.19,425.73c.12.06.22.11.32.16-.14-.13-.23-.17-.32-.16Z" fill="#e0efff" stroke-width="0"/>
      <path d="m658.56,493.53c.01.16.03.32.05.44.02-.24,0-.36-.05-.44Z" fill="#e0efff" stroke-width="0"/>
      <path d="m661.27,447.74c.09.08.2.16.31.23.07.03.14.06.22.09l-.54-.32Z" fill="#e0efff" stroke-width="0"/>
      <path d="m636.58,441.84c.41-.35-.21-.03-.62-.47l-.55.07c.4.22.82.29,1.17.4Z" fill="#e0efff" stroke-width="0"/>
      <path d="m596.97,421.67s0,.03-.02.04c.01,0,.02,0,.04,0l-.02-.04Z" fill="#e0efff" stroke-width="0"/>
      <path d="m622.61,437.13c-.07-.05-.14-.09-.21-.14.04.04.1.09.21.14Z" fill="#e0efff" stroke-width="0"/>
      <path d="m656.57,446.08l1.72.84-.45-.34c-.34.1-.9-.64-1.26-.5Z" fill="#e0efff" stroke-width="0"/>
      <path d="m644.04,444.86l.05.33c1.96.1,3.63,1.7,5.32,1.48,1.7,1.8,1.72-.25,3.28,1.39v-.16c1.54.73,3.09,1.5,4.63,2.31.78.39,1.53.82,2.29,1.23l1.14.62c.18.1.32.19.43.26.04.03.04.04.06.06.03.04.06.08.06.13,0,.02,0,.05,0,.07,0,.03,0,.02,0,.15l.02.4-.03.5c0,.32-.06.7-.1,1.06-.18,1.48-.48,3.06-.75,4.6l-.19-.06c-.37,1.23-.73,2.45-1.1,3.67-.37,1.26-.75,2.45-1.1,3.91l-.13.58-.09.48-.18.95-.35,1.9-.69,3.81c-.91,5.07-1.8,10.14-2.84,15.22,0,.98.54.49.61,1.35-.08.35-.21,1.16-.45,1.12,0-.71-.29-.37-.34-.62-.19,1.15-.75,2.58-.65,3.66l.47-.8c.06.42-.15,1.03-.23,1.39-.13-.18-.57.28-.59-.05.37,2.3-.65,1.62-.69,3.5.59.49.7,2.86.89,4.45l-.32.75c.2-1.04-.49-.07-.21-1.36-.39,1.05-.3,2.1-.6,3.11.2-.17.41-.08.41.35-.21.61-.55.6-.72,1.32l-.07-.75c-.34.43-.09.9-.13,1.35-.3.09-.56,1.15-.83.91.19,1.04-.08,1.34-.04,2.43.49-1.03.31.35.56.27l.12-1.24c-.51,1.68.06-.57-.44-.53.37-.77.57,1.26.75-.11-.06,1.66-.34,1.97-.26,3.69.1-1.02.27.25.52-.26-.22,1.27-.22.28-.6.62-.12.69-.43.9-.2,1.6-.35,1.09-.32-.23-.62.3-.25-.47.99-3.04-.11-2.93.1-.59-.16-1.37.02-2.21-.27.71-.81,1.69-.75,2.65l.57.16c-.12.69.25.91.11,1.4-.12-.3-.45.13-.51.7.11-.14.13-.37.23-.29-.15,1.03.22,1.25.1,2.49.34-.98.56-1.15.99-2.05.36.33-.07.68-.12,1.24-.04-.09-.03-.21-.14-.06l.09.63c-.41,1.22-.56-.27-.95.73-.48.65,0,1.02-.29,1.53.04-.03.09-.06.12-.09-.03.12-.06.21-.08.27.01,0,.02,0,.03,0-.07.68-.23,1.39.04,1.63-.15.04-.07.59-.02.83.05.4.25,1.35-.35,1.82,0-.02,0-.03,0-.04-.22.82-.49,1.44-.62,1.23l-.37,1.32-.37-.22c-.12,1.24.13,1.16.38,2.08-.4.83-.5,2.4-.46,3-.03.09-.06.24-.09.49l.25-.48c-.2.95.03.87-.08,1.5.06-.12.09-.14-.04.2-.03.1-.06.22-.1.36-.04-.04,0-.18.04-.32l-.15.09c-.57.68.02,1.21-.28,2,0-.08,0-.22.02-.3-.19.44-.88.99-.57,1.24-.06.1-.03.27.03.45l-.12.33c.04-.13.09-.24.12-.32.07.23.18.46.09.47l-.29,1.16c-.1.21-.11.52-.1.78l-.2.17c-.06.43-.15.42-.19.36-.85,1.37-.14,2.34-.94,3.85.22.36.47-.28.62-.3.16.29.18,1.24.25,1.73-.51.64-1.26,2.76-1.74,2.31-.29,1.31.42-.35.48.35l-.05.15c.15-.44.4-.76.66-.98.31-.04.18,1.14.03,1.48l-.38-.33c-.08,1.24.6,1.11.88,1.95-.35.94-.63.31-1.04.44l-.09,1.04-.32-.06c-.04.68.23.89-.07,1.78-.17-.72-.55,1.32-.78.33-.2.49.38.75-.09.93.27.42.25-.42.41-.66.52-.12.02,1.16.03,1.79-.26,0-.22-.46-.52.22.16.18.22.67-.09,1.03.32.06-.09.83-.19,1.23.15-.45.5-1.06.72-.71.06.38.07.7-.13,1.5l.25-.53c.33.8-.56,1.11-.59,2.1-.11-.44-.07-.7-.23-1.1.06.48.13,1.39.14,2.13l-.62.73c.21.14-.19.91.12.97-.4.97-.23-.89-.44-1.03-.45,1.23.34,1.12-.38,2.25l-.22-.46c-.1.4-.08,1.25-.24,1.27.11.02.1-.19.15-.45.59.37.09,1.96.77,1.93l.15-.55c-.04.88.29,1.58-.06,2.2-.31.47-.38-.44-.49-.77-.19.8.59.79.35,1.75.2-.49.42-.35.53-.01.15-.55.49-1.69.18-1.54l-.1.19c-.16-.08-.16-.4-.22-.57.14-.76.36-.3.52-.43.34-1.25-.63-.23-.39-1.39l.16-.13c-.06-.59.08-1.46-.3-1.69.52-.43.08-1.35.44-1.86.95.07-.44,1.97-.05,2.72.31-.57.38.43.54.73l-.04-2c.16-.13.72-.61.45-1.02l-.05.15c.04-.78-.38-.65-.13-1.29.1-.09.21.14.27.21.2-.59-.12-.55-.12-.97.2-.59.32.38.52-.11-.23-.77.3-1.1.39-1.72-.58.16-.26-2.57-.97-1.34l-.08-1.54c.36-.41.55,1.15,1.07.83l-.24,1.17c.69-.07.03-2.53.91-3.17.15-.62.03-.48.57-1.61l-.62.09c.25-.59.61-.73.72-.74.03-.37.11-.69.19-1.02.07.1.12.24.11.47.41-.4.32-.56.17-.75-.1-.28,0-.65.07-1.04l.15.39c0-.24-.01-.54-.11-.59.03-.16.04-.31.03-.47-.12.08-.51.27-.77.79.5-1.38.58-2.52,1.3-3.65.16.08.28.63.33.48.2-.59.03-1.31-.24-1.3,0-.14.02-.25.04-.34.17-.09.35-.2.43-.49.07-.06.13-.16.19-.36-.43-.29.03-1.42-.14-1.71-.1.27-.16.6-.21.95-.22-.55-.49-1.05-.17-1.39.12.97.67-.88.54.52.77-.85-.33-.58.07-1.57l.36-.62c.32.16-.03,1.1.12.97l.04-.47c.17.51-.33,2.2-.15,3.34l.59-2.1c.1-2.77,1.2-6.04.89-8.46v.1s-.09-.08-.22-.13l.1-.09-.17-.5c.41-.45.66-1.4,1.06-2.18q-.31.47-.57.48c-.32-.17-.45-.27-.18-1.01.24.04.15.51.44-.02-.17.27-.29-.02-.26-.36.24-.4.4-1.11.65-1.07.03.21-.09.36-.15.48.03.21.37-.77.45-.14l.08-.79c.29-.42.26.36.42.2.08-1.32-.35-2.09-.29-3.29.12.08.65.19.5.15.33-.87-.22-2.04-.07-3.07.13.18,0,.55.01.88.79-3.09,1.29-5.65,2.35-8.49l-.41-.87.51-.7c.93-3.02,1.02-5.46,1.41-8.43.14-.92.49-.48.72-.88.44-2-.09-2.6.15-4.54.12.3.51.83.69.01-.13-.18-.36-.33-.17-.83l.12.3c.34-.43.19-.93.48-1.9.32-1.74.24-3.47-.1-5.02.35-1.53.56.27.74,0-.41,1.05-.04.77.1,1.04-.05-.6-.01-1.31.44-1.54.13-.8.21-1.16.1-2,.06.42-.22.72-.33.32.26-.63.42-2.32.9-2.14.62-3.8,1.52-8.02,2.26-12.08-.12-.73-.2.5-.3.09-.14-1.06.32-.75.21-1.6l.21.38c.26-1.18,0-2.53-.03-3.72.27.25.43-.89.43.09.05-.57,1.55-.99,1.35-1.48l-1.39.39c-.12-.05.11-.83,0-.76.34-.43.75-1.03.81-1.29.18-.03.21.1.18.35-.03.25-.11.58-.15.81.26.09.42-.29.56-.59.14-.32.26-.45.44-.14.08-.8-.3.06-.39-.46l.3-.73-.33.56c0-.68-.34-1.03.21-1.88l-.24-1.12c.44.02.28-.7.52-1.18l.17.39c.18-.68.32-.93.59-1.32.26.49-.26.6.04.86l.33-.72c-.24-.06-.29-.59-.58-.09-.25-.82-.5-1.29-.02-3.06.61-.7.14.95.63.72.64-1.83-.51-2.54-.24-3.62.41-1.4.04-1.37.15-2.86.24.5.39-1.03.6-1.4.11.22.22.46.31.67-.07-.5-.02-1.04.21-.89-.1.03-.17-.09-.24-.34-.05-.24-.23-.66-.35-1.09-.05-.22-.15-.44-.28-.65-.12-.21-.23-.43-.36-.63-.3-.38-.66-.68-.97-.88,0,.13-.02.27-.04.4-.43-.32-1.06-.6-1.49-.76-.45-.17-.87-.34-1.22-.57-1.13-.45-1.01-.06-1.99-.16-.33-.49-.13-.78.18-1.03.22.29.75.45,1.18.78.75.22,1.45.29,2.17.45.19.05.38.1.6.19.25.11.5.23.73.39.46.31.91.71,1.15,1.27.28.14.38.13.35,0-.03-.13-.16-.4-.43-.64-.5-.53-1.44-1.01-1.83-1.38.05-.03.11,0,.18.02-.08-.05-.13-.08-.19-.14.14.05.39.17.65.3.25.13.5.28.73.42.47.28.85.57,1.1.57-.55-.65-.95-.69-1.3-.8-.18-.05-.36-.11-.58-.24-.11-.06-.25-.15-.38-.24-.11-.08-.23-.18-.36-.3-.92-.23-1.21-1.06-1.66-1.36-.64.02-.94.56-2.13-.15l.74-.14c-1.42-.69-.95.27-2.25-.37.44.27-.63.19.24.61-.53.02-1.49-.4-2.16-.83-.21-.02-.1.12-.2.24.66.63,1.37.3,1.83,1l.75-.18c.66.5.56.88.03.85.21.08.42.1.53.25-.19.71-.76-.64-1.28-.21l.53.19c.02.53-1.37-.19-2.01-.53-.66-.54-1.32-.92-1.23-1.25l1.07.32c-.41-.48-1.36-.43-1.94-.71-.02-.06-.06-.12-.12-.17.02.04.02.08,0,.11-.12-.07-.21-.16-.28-.28-.51-.24-1.36-.37-1.8-.68l-.06.31.13-.13c.47.21,1.05.66.6.72-1.16-.26-1.14-.89-1.3-1.25.43-.32,1.05.45,1.66.54-.15-.56-1.08-.51-2.08-1.26.64-.28,1.29.56,1.72.23-.87-.46-1.24-.24-2.14-.74.21-.17,1.15.19,1.2-.11l-.56-.39c1.51.6-.02-.69,1.2-.31-.47-.43-.93.05-1.6-.56.14.29.62.92-.21.8l-.8-.48c-.27-.37,1.09-.14.61-.55l-.96-.2c-.03.15.38.4.03.48-.46-.36-1.06.19-1.75.17-.48-.2-.85-.38-.96-.61-1.38-.07-2.93-.66-4.21-.68.88,0,.15-.5-.23-.88.91.27,1.08-.17,1.13-.48-.56-.16-1.08.17-.86.42-.84-.51-.74.08-1.42-.51-.46-.34.42-.34.3-.58-.97-.38-.46.44-1.49-.05.08-.04.18-.02.13-.13-.54-.3-1.24-.31-1.44-.13-.41-.8-1.75-.55-1.43-1.07-1.44-.34.1.38-.25.48-.66.05-1.64-.52-1.94-.73.35.11.72.06,1.02.26l-.16-.49c-1.64-.88-1.41.51-2.96-.41.93.09.39-.2.91-.33-.29,0-1.57-.55-.88.02-.62-.25-1.03-.47-1.44-.69-.61-.04-1.25-.14-1.66,0-.86-.34-1.42-.84-1.78-1.16-1.94-.35-3.48-1.41-5.52-1.78l.13.07c-1.48-.59.48.75-1.07.2.38-.41-.82-.65-1.23-1.08-1.83-.91-3.42-.82-5.06-1.78.05-.1.21-.17.55-.06-1.29-.64-2.41-.94-3.61-1.4l.07-.04c-1.8-1.09-3.73-1.27-5.79-1.89.18,0,.29-.17.44-.18-.97-.48-2.57-1.14-3.44-.96-1.03-.91-.85-.15-2.23-1.17-.06-.12.18-.02.29,0-.7-.43-1.26-.58-2.01-.92-1.81-.31-2.45.15-4.36-.75.14-.69,1.27.28,1.5-.22-.43-.03-.82-.02-1.31-.37.42-.14.13-.13.44-.29-.35-.32-1.92.07-1.89.01-.07.12.05.24.45.36-.61.23-1.95-.67-2.96-.86.31.12,1.24.61.76.78-1.23-.6-1.89-.13-2.88-.2-1.07-.72,1.07-.23,1.01-.77-.14-.24-.48-.78.08-.77-1.03-.48-1.93-.37-2.92-.62l.07-.12c-1.34-.43-2.96-.38-3.97-1.04l.53.36c-.25,0-.9-.28-1.36-.15.12-.2-.67-.71-.26-.75-.84.47-3.16-.68-4.05-.27-.29-.3.09-.48.26-.59.81.36,1.05.6,1.58.49-.7-.24-1.14-.6-.98-.72-.85.17-2.57-.26-3.07.04-.43-.4-.87-.69-.56-.98-2.21-.55.65,1.48-1.75.6-.97-.74,1.24-.08-.23-.75l.3.05c-.76-1.31-1,.38-2.23-.11.02-.56.99-.04.27-.71-1.18-.29-1.94.27-3.02-.3l.25-.15c-.74-.22-2.11-.84-2.84-1.06,0-.11.1-.06.25-.04-1.27-.67-.65.05-1.62-.69l-.4.13c.49.37,1.46,1,2.26.97-.8.03.86,1.03.36,1.33l.2-.12c1.55,1.39,3.85,2.33,6.05,3.45,1.64.02,2.39,1.1,4.08,1.32.46-.5.33-.01,1.71.36-.73-.18-.25.41.17.65.32-.06.65,0,.99.07.2.3,1.71,1.38,2.47,1.21.74.48-.26.12-.48.17.22.42.75,0,.94.31,0,0-.04.06-.13.06,1.25.43,1.94.85,3.21,1.4.32-.53,1.35.25,2,.25-.25.12.65.48.98.72l.85-.17c.82-.11.86.6,1.82.73l-.18-.18c.71.06,2.29,1.03,2.82,1.57,6.4,1.06,9.04,4,15.46,6,.47-.02-.2-.4.22-.54.67.17.8.24,1.39.45-.46-.34-.45-.12-.32-.26l-.95-.16c-.03-.06.08-.04.02-.15-.32-.06-.71-.07-1.09-.24.61.05.92-.31,1.61.12-.08.04-.18.02-.4-.02.61.26.72.07,1.15.35.54.3.45.12.45.33l1.7.88c1.07-.18,2,.69,2.28.85-.33.31-1.23-.31-1.81-.1l.55.51.15-.29.89.41-.07.04c.15-.08.31-.16.51.03.02.06.09.17-.02.15l.72.07c-.5.18.54.3.32.63,2.09.94,2.91.47,4.63,1.62-.25-.28.8-.37,1.36-.1.3.2.36.32.1.38l.83.07c.76.9,1.82.85,3.15,1.52l-.13.14c.58-.01,1.19.03,1.95.35l-.25.27c.87.55.96-.43,1.93.14.11-.35-.49-.75-.48-1.11.13.44,1.23.87,1.06.53,1.09.22.72.26.78.37h.68c.73.27.08.54-.26.64.81-.13,1.46.39,2.22.71l-.37.05.99.42c.76-.03,1.69.27,2.5.72l-.75.24c.52.45.36-.05.55-.07,1.02.12,1.12.5,1.52.94,1.69.07,2.72,1.85,4.26,1.65Zm2.26,94.94l.1-.13c.02.35.06.55-.1.13Zm1.78-8.72c-.01,1.09-.17.71-.32.77.32-1.01.28-1.62.61-2.5-.12.13-.25.13-.34.17.09-.36.26-.71.53-.79.39.54-.84,2.76-.48,2.36Zm-1.38,20.12s-.06-.09-.08-.14h0s.08.14.08.14Zm.56-5.29c.12-.05.2-.17.26-.32-.14.07-.27.15-.26.32Zm2.54-10.26c.24-.2.29-.76.32-1.17-.06.18-.18.5-.32,1.17Zm12.11-65.47c.02.33.1.96.35.44-.12-.29.27-.74.05-1,.02-.03.02-.03.03-.05-.22.28-.4.52-.43.61Zm-8.53-24.41c.13-.16.43-.26.35-.46.02.02.05.03.08.05-.05-.09-.08-.17-.01-.19-.22-.14-.45-.29-.63-.3-.33.56-.87.44.22.9Z" fill="#e0efff" stroke-width="0"/>
      <path d="m664.3,448.12c-.18-.11-.3-.19-.43-.26.12.07.25.15.43.26Z" fill="#e0efff" stroke-width="0"/>
      <path d="m653.22,444.89s.22.2.52.42c-.04-.11-.18-.23-.52-.42Z" fill="#e0efff" stroke-width="0"/>
      <path d="m641.37,567.75v-.32s-.31.57-.31.57c.02,1.06.28,1.16.55,1.47-.12-.97.13-1.5.26-2.68l-.51.96Z" fill="#e0efff" stroke-width="0"/>
      <path d="m643.58,567.64c.1-.09.36-.3.41-.45l-.16-.19-.25.64Z" fill="#e0efff" stroke-width="0"/>
      <path d="m646.77,555.76l-.35.93c.11.34.62-.73.35-.93Z" fill="#e0efff" stroke-width="0"/>
      <path d="m642.63,559.42l.12.55c.25-.42.35-1.04.14-1.18.01.63-.16.13-.25.64Z" fill="#e0efff" stroke-width="0"/>
      <path d="m647.3,553.17c-.32-.37.35-.93.03-1.2.06.27-.4,1.08-.03,1.2Z" fill="#e0efff" stroke-width="0"/>
      <path d="m643.56,553.17c-.42.24-.2.81-.4,1.4.1-.51.61-1.15.4-1.4Z" fill="#e0efff" stroke-width="0"/>
      <path d="m647.2,547.79c.26.1.17.5.02.95-.06-.17-.16-.29-.17-.51.07.8.02.85.03,1.48.31-.57.6-1.47.92-1.31-.17-.5-.44-1.13-.8-.62Z" fill="#e0efff" stroke-width="0"/>
      <path d="m643.79,551.69c-.2.49-.51.75-.6,1.36.21-.07.52-.22.61-.94l.27.31c.36-.62-.47.18-.28-.73Z" fill="#e0efff" stroke-width="0"/>
      <path d="m648.46,545.13l-.2.28c.12.76-.18,1.65.15,2.13.14-.86.17-1.96.06-2.41Z" fill="#e0efff" stroke-width="0"/>
      <path d="m644.85,549.31l-.42-.18c-.2.7.16-.02.22.25-.1.19-.2.49-.14.65.09-.82.37.02.35-.72Z" fill="#e0efff" stroke-width="0"/>
      <path d="m644.81,546.88l-.02-.95-.62.62c-.03,1.1.27.1.64.33Z" fill="#e0efff" stroke-width="0"/>
      <path d="m645.31,545.82l.1-.09-.4-1.49c.12.87.07.91.29,1.58Z" fill="#e0efff" stroke-width="0"/>
      <path d="m651.32,529.78c-.16-.19-.55.57-.27.26.13.18.58-.84.27-.26Z" fill="#e0efff" stroke-width="0"/>
      <path d="m647.15,532.38c.22-.36.19-1.69.16-2.27-.03.68-.44,2.32-.16,2.27Z" fill="#e0efff" stroke-width="0"/>
      <path d="m647.31,529.87s0,.14,0,.24c0-.1,0-.18,0-.24Z" fill="#e0efff" stroke-width="0"/>
      <path d="m650.75,506.19c0-.06,0-.12-.02-.18,0,.06.01.12.02.18Z" fill="#e0efff" stroke-width="0"/>
      <path d="m650.76,506.78c-.14.37-.16,1.14.02,1.31.02-.61.06-1.15-.02-1.89-.03.27-.23.56,0,.58Z" fill="#e0efff" stroke-width="0"/>
      <path d="m651.87,501.4c.07.3-.07.68.14.61.11-.14.03-.78-.14-.61Z" fill="#e0efff" stroke-width="0"/>
      <path d="m664.35,466.36c.24-.47.25-.79-.06-.73-.15.56.09.31.06.73Z" fill="#e0efff" stroke-width="0"/>
      <polygon points="664.41 464.97 664.57 464.94 664.87 464.66 664.41 464.97" fill="#e0efff" stroke-width="0"/>
      <path d="m665.79,461.52s.06.14.06.25c.02-.21.03-.4-.06-.25Z" fill="#e0efff" stroke-width="0"/>
      <path d="m665.84,461.87s0-.07.01-.11c0,.03,0,.07-.01.11Z" fill="#e0efff" stroke-width="0"/>
      <path d="m665.69,462.09l.13.08c0-.06,0-.18.02-.29-.02.1-.06.2-.15.21Z" fill="#e0efff" stroke-width="0"/>
      <path d="m666.12,460.43l-.59.59c.02.78.42-.77.68.06l-.09-.65Z" fill="#e0efff" stroke-width="0"/>
      <path d="m666.57,457.93c.29-.66-.21-1.81.36-2.13-.03-2.14-.86.39-.85-2.03-.19,1.14-.03,1.4.2,1.7.22.29.41.53.11,1.48.47-.87.14.67.18.99Z" fill="#e0efff" stroke-width="0"/>
      <path d="m665.67,458.09c.23.17.43-.7.31-1-.08.25-.51.61-.31,1Z" fill="#e0efff" stroke-width="0"/>
      <path d="m666.92,453.85l.23-.69-.17-.2c0,.33-.04.59-.06.89Z" fill="#e0efff" stroke-width="0"/>
      <path d="m666.69,450.67l.53.94c-.2-.33-.54-1.84-.53-.94Z" fill="#e0efff" stroke-width="0"/>
      <path d="m663.5,446.74c-.44-.33-1.19.05-.09.44l-.23-.15c.11-.06-.33-.55.32-.29Z" fill="#e0efff" stroke-width="0"/>
      <path d="m656.59,444.59c.33.16.76.26.75.1l-.98-.28.23.18Z" fill="#e0efff" stroke-width="0"/>
      <path d="m656.04,446.16c.14.51.86.35,1.4.76-.65-.39-.54-.42-1.4-.76Z" fill="#e0efff" stroke-width="0"/>
      <path d="m655.78,443.58c.32-.04.66.23.88.36-.02-.27-.68-.49-.88-.36Z" fill="#e0efff" stroke-width="0"/>
      <path d="m654.25,443.06c-.24-.28.16-.18-.02-.39-.58-.45-1.27-.72-1.73-.66.1.24.15.78-.2.85,1.09.3,1.92-.18,2.19.58l1.15-.28c-.78-.47-.83.17-1.39-.11Z" fill="#e0efff" stroke-width="0"/>
      <path d="m655.78,445.24l-.45-.46c.01.26-.42.12-.74.06-.07.55.86.3,1.19.41Z" fill="#e0efff" stroke-width="0"/>
      <polygon points="648.37 440.98 647.14 440.63 647.51 440.81 648.37 440.98" fill="#e0efff" stroke-width="0"/>
      <polygon points="647.67 440.53 647.69 440.37 646.68 440.28 647.67 440.53" fill="#e0efff" stroke-width="0"/>
      <polygon points="646.49 439.87 646.62 439.95 647.37 440.1 646.49 439.87" fill="#e0efff" stroke-width="0"/>
      <path d="m644.04,438.84l.14.29c.32.06.84.52.89.21-.3,0-.91-.27-1.03-.5Z" fill="#e0efff" stroke-width="0"/>
      <path d="m633.93,441.21c.26-.06.18-.23.09-.4l-.47.24c.11.02.32.05.37.16Z" fill="#e0efff" stroke-width="0"/>
      <path d="m632.7,440.13l-1.02.1c1,.41,1.25.14,2.15.39-.33-.26-.96-.15-1.39-.43l.26-.06Z" fill="#e0efff" stroke-width="0"/>
      <path d="m615.05,433.66c.17-.23-.04-.27.68-.2-.96-.16-1.71-.5-2.75-.83.11.23-.76.23-.33.31l1.2.26-.24.12c.73.49.63-.1,1.44.35Z" fill="#e0efff" stroke-width="0"/>
      <path d="m570.01,414.14c.15-.09.06-.25-.04-.42-.74-.11.19.44.04.42Z" fill="#e0efff" stroke-width="0"/>
    </g>
    <g>
      <path d="m611.99,429.69c.26.24.09.07.07.03l-.07-.03Z" fill="#e0efff" stroke-width="0"/>
      <path d="m612.06,429.72l.05.02s-.06-.03-.05-.02Z" fill="#e0efff" stroke-width="0"/>
      <path d="m612.36,429.75c.18.21-.14,0,.17.3.22.14.18.02-.17-.3Z" fill="#e0efff" stroke-width="0"/>
      <polygon points="612.11 429.61 612.28 429.77 612.03 429.5 612.11 429.61" fill="#e0efff" stroke-width="0"/>
      <polygon points="611.93 429.49 612 429.54 611.86 429.35 611.93 429.49" fill="#e0efff" stroke-width="0"/>
      <path d="m612.58,429.76l.02.07c-.27-.18-.31-.3-.49-.42-.03.04.49.45.37.43.23.19.06-.08.41.24.15.06-.21-.18-.32-.32Z" fill="#e0efff" stroke-width="0"/>
      <path d="m612.21,426.28s.02.02.04.02c-.04-.03-.07-.05-.04-.02Z" fill="#e0efff" stroke-width="0"/>
      <path d="m612.39,425.57s.07.04.09.04c-.04-.03-.07-.06-.1-.08v.03Z" fill="#e0efff" stroke-width="0"/>
      <path d="m612.61,427.17s-.08-.04-.11-.06c.05.04.1.07.11.06Z" fill="#e0efff" stroke-width="0"/>
      <path d="m616.63,425.13s.06.05.1.09c0,0,0,0,0,0l-.09-.09h-.02Z" fill="#e0efff" stroke-width="0"/>
      <path d="m612.31,424.53s0-.03-.02-.05c-.02,0,0,.03.02.05Z" fill="#e0efff" stroke-width="0"/>
      <path d="m612.49,427.37s0,0,0,0c-.02,0-.03-.02-.04-.02l.04.03s0,0,0,0Z" fill="#e0efff" stroke-width="0"/>
      <path d="m611.76,425.31s.06.03.06.02c-.03-.02-.05-.02-.06-.02Z" fill="#e0efff" stroke-width="0"/>
      <path d="m613.37,429.64s.02,0-.01-.05c-.06-.04-.07-.04.01.05Z" fill="#e0efff" stroke-width="0"/>
      <path d="m613.49,429.43s0,0,0,0c.04.04.04.03,0,0Z" fill="#e0efff" stroke-width="0"/>
      <path d="m613.62,429.35s0,0,0,0c.03.03.04.03,0,0Z" fill="#e0efff" stroke-width="0"/>
      <path d="m613.36,429.59c.15.11.61.5.13.05l-.07-.05c.12.09-.06-.1-.06-.13-.05-.04-.09-.07-.13-.1-.01,0-.03,0-.08-.02-.12-.07.11.14.2.25Z" fill="#e0efff" stroke-width="0"/>
      <path d="m612.3,426.36c-.09-.08-.06-.02,0,0h0Z" fill="#e0efff" stroke-width="0"/>
      <path d="m612.54,426.84s.02,0,.03,0c-.02-.01-.04-.02-.03,0Z" fill="#e0efff" stroke-width="0"/>
      <path d="m611.91,427.3s.01,0,.02.01c-.05-.05-.04-.04-.02-.01Z" fill="#e0efff" stroke-width="0"/>
      <path d="m612.58,426.82s0,0-.02.01c.02.01.04.02.02-.01Z" fill="#e0efff" stroke-width="0"/>
      <path d="m612.33,427.36s.01,0,.02,0c0,0-.01,0-.02,0Z" fill="#e0efff" stroke-width="0"/>
      <path d="m620.27,424.14s-.1-.06-.15-.08c.31.31.05-.04.31.24,0-.01-.03-.06-.07-.11l-.32-.25c.1.13.12.08.23.2Z" fill="#e0efff" stroke-width="0"/>
      <path d="m617.4,425.55l-.03-.02c.14.12.19.16.28.21-.2-.2-.55-.46-.76-.69.02.03,0,.03-.03,0,.2.16.39.34.55.5Z" fill="#e0efff" stroke-width="0"/>
      <path d="m616.85,425.05s-.01,0-.02-.01c-.03-.02-.06-.04-.08-.06,0,0-.02,0-.04-.02.06.04.11.08.14.09Z" fill="#e0efff" stroke-width="0"/>
      <path d="m619.8,424.4s-.03,0-.04-.01c.07.05.07.04.04.01Z" fill="#e0efff" stroke-width="0"/>
      <path d="m616.23,427.99s.06.07.08.1c0-.02-.04-.06-.08-.1Z" fill="#e0efff" stroke-width="0"/>
      <path d="m616.86,425.55s-.05-.02-.06-.03c0,0,0,.02,0,.02h.05Z" fill="#e0efff" stroke-width="0"/>
      <path d="m614.66,422.06c.34.31-.02-.03.2.13l-.17-.18c-.07-.03-.03.03-.03.06Z" fill="#e0efff" stroke-width="0"/>
      <path d="m620.39,424.21s-.02-.02-.03-.03c0,0,0,0,0,0l.02.02Z" fill="#e0efff" stroke-width="0"/>
      <path d="m615.04,421.45s.04.02.06.03c-.02-.02-.04-.03-.06-.03Z" fill="#e0efff" stroke-width="0"/>
      <path d="m616.61,425.02l-.08.05.1.06c-.17-.16.18.09-.02-.11Z" fill="#e0efff" stroke-width="0"/>
      <path d="m614.2,422.17l-.22-.18c.4.46-.33-.02.27.58-.83-.57.63.64-.11.13l.11.09c-.34.14-.97.07-.81.62l-.15-.13c-.59.16-.59.8-1.03,1.07.11.16.46.42.6.6-.02,0-.03.05-.22-.11-.08-.11-.26-.24-.32-.31-.02.06-.28-.07-.08.16l.27.18c.09.1,0,.07-.02.07-.12-.11-.4-.32-.44-.38.53.59-.31-.16-.13.11.5.45.84.9,1.16,1.27l-.16-.09s-.37-.32-.31-.35c-.18-.09,0,.14-.11.11.13.1.3.25.34.31-.09-.04-.35-.26-.4-.25l-.14-.16c-.21-.15.03.09.05.13-.22-.18-.29-.17-.52-.38.26.29.08.16.24.36.26.15.27.25.45.4l-.05-.12c-.2-.06-.02-.05-.39-.36.19.11.56.56.55.46.13.22-.04.09.21.41-.04-.1.23.21.36.29-.03.06-.14-.1-.38-.28-.01.03-.23-.13.02.12-.15-.05-.27-.24-.43-.35-.24-.23.41.15-.4-.53,0-.03-.27-.32-.23-.34-.13-.06-.42-.25-.27-.06l.45.39s.29.3.23.29c-.12-.12-.33-.27-.31-.22.07.05.06.03.14.1,0,.07.3.34.35.46.15.06.29.17.51.31.31.28.02.06.05.12-.04-.04-.04-.05-.11-.1l.13.15c-.18-.07-.45-.4-.64-.49-.29-.2.12.16-.05.05.03.02.06.05.08.07,0,0-.02,0-.03,0,0,0,.01.01.02.02.02.06-.02.07.21.28-.11-.09.01.05.08.12.08.1.33.37-.06.06,0,0,0,0,0,0-.07,0-.21-.09-.33-.2l-.14-.03-.3-.27c.04.12.23.27.52.57-.21-.12-.11.06-.02.18-.02,0-.02,0-.01.02l.14.09s.12.16.1.18c.03.02.05.03,0,0,0,0-.02,0-.03,0-.03-.03-.02-.03,0-.02l-.11-.08c-.35-.25.15.2,0,.13,0-.01-.03-.04-.02-.04-.1-.05-.55-.4-.29-.17-.04-.03.01.03.07.09l-.06-.03s.04.02.06.03c.08.08.18.18.12.13h-.09c-.05-.03-.02,0,.01.06l-.13-.1s-.07-.03-.1-.07c-.49-.33.15.28-.28,0,.2.19.32.25.43.35.16.15.27.31.37.43-.32-.23-.64-.37-1.05-.75-.07.02.27.21.4.36h-.02c.06.02.22.13.39.26.23.19.26.29.18.25l-.32-.29c.07.14.57.56.87.86-.16-.08-.44-.35-.73-.59l.05.11-.24-.21c.04.08.27.28.14.23-.21-.22-.27-.15-.55-.45-.1-.05.37.36.04.09.25.24.14.1.23.16.38.32.14.2.22.3-.19-.17-.21-.21-.37-.3.14.13.24.25.05.11.24.21.02.07,0,.07.06.02.26.15.46.35.09.1.13.15.07.15l.13.08c.34.34-.3-.18-.21-.05-.13-.14-.13-.15-.29-.32.1.12.25.3.34.43l-.38-.28c.18.16-.05.02.2.23-.2-.1-.27-.28-.44-.44-.2-.09.37.39-.04.11l-.21-.21s.08.14-.04.05c.08.07.06.03.06.03.48.43.28.36.79.79h.05c.07.12.39.44.19.31-.18-.12-.33-.31-.45-.43-.06,0,.53.5.45.5.1.05.27.21.39.33.05,0,.18.05-.03-.13l-.06-.03c-.13-.11-.17-.17-.23-.23.02-.03.24.18.34.26.12.02-.5-.44-.45-.47l.1.08c-.11-.13-.1-.18-.41-.45.34.26-.09-.16.12-.01.72.61-.11.03.26.39.17.1.33.31.48.46l-.25-.34c.1.08.48.37.23.13h-.02c-.06-.11-.36-.35-.24-.29.07.05.18.16.22.2.08.03-.15-.16-.2-.23.08.03.28.26.38.31-.25-.26.1.02.1-.02-.41-.34-.48-.57-.87-.83l-.23-.29c.23.17.54.53.89.81l-.05.03c.51.43-.25-.38.34.08.04,0-.03-.06.26.11l-.46-.38c.12.07.37.27.46.34-.02-.04,0-.04.03-.04.06.06.12.12.14.15.26.2.18.11.05,0-.11-.11-.08-.11-.06-.12l.16.16s-.07-.09-.15-.17c0,0,0-.02-.03-.05-.08-.06-.35-.28-.49-.36.22.1.16-.02.57.25.13.11.27.27.3.28.08.03-.12-.19-.32-.35,0-.02,0-.02,0-.03.12.09.24.19.27.2.04.03.08.06.1.06-.35-.32-.13-.21-.29-.36-.05-.02-.05,0-.05.02-.22-.22-.48-.48-.28-.32.2.23.4.29.46.42.48.36-.31-.3-.12-.2l.2.13c.26.23.1.15.2.23l-.02-.05c.18.19,0,.14.26.43l.21.05c-.22-.37.24-.18-.26-.76,0,0,0,0,0,0-.02-.02-.07-.07-.17-.15l.07.05-.18-.19c.26.19.34.2.56.33q-.18-.12-.37-.29c-.26-.23-.37-.33-.24-.27.18.16.17.17.33.28-.1-.07-.22-.19-.23-.22.13.09.18.08.37.24.04.05-.02,0-.06-.02.04.05.19.11.33.27l-.03-.07c.17.12.23.22.34.3-.08-.16-.49-.55-.58-.7.1.09.51.44.39.34.15.07-.39-.46-.39-.53.12.11.06.08.11.15.26.02.35-.07.83.16l-.4-.39.31.22c.37.12.17-.2.14-.42,0-.06.31.24.45.32.11-.03-.35-.46-.39-.62.12.12.47.45.52.44-.12-.11-.31-.28-.21-.24l.12.12c.21.15.04-.03.15,0,.05-.07-.2-.39-.62-.85.09-.02.45.4.55.47-.19-.09.05.09.19.23-.1-.12-.15-.21.16.04,0-.05.03-.05-.15-.25.09.1-.08-.03-.21-.16.13.07.06-.09.44.24.05-.2.26-.29.37-.46-.17-.19-.09-.05-.22-.18-.22-.26.16.08-.02-.12l.2.19c.07-.02-.27-.39-.43-.6.23.21.22.13.33.29-.02-.05,1.05.83.85.63l-1-.82c-.1-.08-.01-.06-.08-.12.21.15.46.32.47.31.25.21.17.19.15.21.41.36.31.17.67.52-.04-.1-.22-.18-.35-.33l.12.04-.16-.1c-.1-.13-.41-.42-.15-.25l-.37-.39c.33.28.08.02.18.07l.2.19s.08,0,.21.09c.27.26-.09-.04.18.2l.12.06c-.19-.16-.31-.3-.44-.38-.32-.32-.6-.59-.51-.63.34.24.25.27.58.53.19.05-.75-.79-.68-.8.17.06-.12-.19-.1-.26.2.2.26.16.47.33l.21.21c-.05-.07.04-.02.2.13-.29-.25-.21-.3-.32-.46l-.25-.21c-.06-.1-.18-.27-.09-.25-.04-.11-.27-.29-.51-.56.24.18.5.41.77.65-.14-.1-.08-.01-.17-.06.17.24.65.74.49.69.58.54-.04-.1.2.06.04.03.05.04.05.05,0,0,0,0,.02,0,.06.08.12.2.43.47-.03-.09-.58-.54-.29-.36-.14-.18.35.21.41.23-.21-.21-.69-.63-.55-.6l.32.31c.06-.05-.47-.45-.41-.49-.06-.02-.32-.3-.35-.28-.17-.17-.17-.24-.04-.18-.05-.05-.11-.1-.23-.2-.26-.17.19.25-.17-.02l.34.34c-.16-.08-.45-.33-.58-.48,0,.02.05.07-.02.02-.55-.47.22.13-.23-.28l.02.05c-.36-.3-.27-.32-.22-.32.19.11.28.14.54.36l.08.14c.22.16-.08-.16-.05-.17.04.03.06.05.09.06-.02-.02-.05-.04-.07-.06.02,0,.05.03.12.08.03,0-.1-.18,0-.12l-.23-.2.13.11s-.19-.09-.35-.25c-.12-.18.33.19.54.36.34.31-.04.04.06.16.36.29.07-.01.34.14.37.35-.05.05.29.36.1.02-.17-.22-.04-.18.17.16.16.21.39.4l.13.07c-.03.08.48.4.54.53.18.11-.29-.3-.02-.12-.17-.14-.5-.37-.62-.53l.14.06c.2.15.38.39.55.5l-.1-.15c-.11-.1-.19-.13-.33-.28.14.09-.41-.41-.56-.58.03-.01.06,0,.2.1-.3-.34-.23-.39-.52-.71.2.23.39.34.58.47.02.08.38.39.61.58-.02-.05-.38-.39-.51-.48.18.09-.23-.24.04-.06.14.09.34.32.48.42.05-.02-.43-.39-.31-.35.05.04.06.06.13.11.09.04-.05-.13-.23-.28.49.38,0-.11.46.29-.08-.16-.25-.21-.4-.35-.18-.2.02-.09.1-.04,0,.02.11.14.03.09l.32.26c.28.13-.68-.66-.35-.49.14.17.23.22.44.43-.07-.08.06-.05-.21-.23.05,0,.12.03.19.06-.1-.13-.17-.22-.36-.41.06,0,.31.16.46.27-.17-.27.28,0,.1-.28h-.02c.11-.02-.44-.35-.38-.4.38.34.29.19.51.35.26.1-.17-.37.15-.22.08.07.17.16.17.18.17.05.13-.06.19-.08l.05.04c.38.2.06-.2.03-.36.04.05.19.18.23.22.12.04.23.02-.1-.31.42.28-.09-.13.33.13.07.06.06.06.07.08.15.08.13.03.2.04-.19-.28-.67-.72-.46-.67.53.45.09.16.51.52-.08-.1-.18-.2-.03-.11.19.19.13.11.31.29.15.1-.49-.54-.44-.49-.1-.09-.16-.13-.16-.1-.31-.3.04-.1-.06-.25-.02,0-.15-.05-.39-.28.15.05-.34-.41-.51-.62.28.16.41.41.79.72.14.11.45.34.58.49.11.03-.18-.27-.22-.38l.1.09c0-.09-.41-.53-.16-.4l-.14-.08c-.05-.06,0-.06-.2-.26.17.15.36.25.49.39-.53-.5-.24-.41-.74-.88.15.11.36.31.49.42-.08,0-.19-.09.01.11.02-.03.17.07.3.18-.32-.32-.4-.5-.73-.82.19.13.3.19.58.45-.11-.24-.92-.72-.83-.81.31.2.34.37.49.39l.04.05c.77.6-.5-.48-.44-.51.41.34.26.28.57.5-.06-.13-.64-.67-.48-.6l.16.15c0-.06.12-.04.11-.09.08.07.07.06.08.09.2.08-.19-.2.13,0l-.18-.18c-.16-.1-.39-.23-.18,0-.21-.23-.55-.4-.88-.71l.13.12c-.65-.44-.8-.41-1.1-.52.36.41-.25-.05-.02.26.46.42.08.09.13.23-.04-.08-.35-.31-.43-.35.11.11.15.17.18.21-.17-.13-.6-.39-.31-.09-.18-.1-.14-.14-.24-.23-.25-.2.17.19,0,.06,0,0-.05-.04-.07-.07-.02.06-.17-.01-.27-.01.46.4.13.2.28.36-.14-.14-.2-.12-.3-.18l.32.32c.27.28-.24-.14-.11.03l.09.06c.12.14-.22-.03-.49-.22.7,1.01-.82-.08-.78.37.13.14.24.19.44.38.03.07,0,.06,0,.09.14.09-.02-.04.11.07l-.1-.15s.05.04.11.1c-.03-.05-.11-.14-.08-.14.1.12.44.42.28.34-.04-.04-.06-.06-.08-.09-.05,0,.11.14,0,.08-.09-.04.01.04-.14-.08l-.24-.09c.38.39-.05.09-.09.07-.3-.27-.05-.13-.34-.4l-.24-.17.24.21-.1-.02-.05-.04c.09.09.18.17.09.11-.04-.03-.1-.08-.12-.1l.11.14c-.24-.23-.09-.04-.38-.3-.22-.04.3.44-.16.17.15.11.44.42.37.4-.08-.05-.15-.1-.26-.21l.12.16c-.49-.36-.22-.07-.43-.15l-.13-.11c.13.15.24.28.16.27l-.25-.23c-.21-.12.52.49.32.39.28.24.44.34.7.56-.29-.23-.37-.23-.16-.06.08.14-.03.02-.1-.03l.15.17s-.37-.3-.52-.45c.27.28.04.13-.03.12l-.11-.12h-.08c.19.21.18.26.04.19l-.34-.34c-.21-.14.12.12.17.18.15.19-.11-.02-.33-.17.33.39-.7-.4-.2.12Zm-2.1,5.26l.06.04c.05.07.1.12-.06-.04Zm.38-.23c.11.16-.05,0-.16-.08.13.05.03-.07.18,0-.08-.06-.18-.14-.24-.19.03,0,.12.06.31.21.35.33-.32-.1-.1.07Zm1.17,2.28s-.05-.05-.08-.07h0s.08.07.08.07Zm-.16-.47c.08.07.13.1.16.12-.1-.08-.18-.15-.16-.12Zm.78,0c.16.12.13.06.11.02-.02,0-.08-.04-.11-.02Zm1.92-2.56c.05.06.18.22.31.29-.12-.12.12.05-.07-.13,0,0,.01,0,.02.01-.13-.1-.25-.18-.26-.18Zm-.26-2.2c.15.13.3.28.42.37,0,0,0,0-.01,0,.05.04.1.08.13.11.04.02.08.04.04,0-.49-.42-.55-.51-.58-.47Z" fill="#e0efff" stroke-width="0"/>
      <path d="m617.62,426.37s0-.01,0-.02c0,0,0,0,0,.02Z" fill="#e0efff" stroke-width="0"/>
      <path d="m616.52,424.72s-.09-.06-.15-.09c.06.05.12.09.15.09Z" fill="#e0efff" stroke-width="0"/>
      <path d="m611.46,428.68l-.04-.05-.17-.1c.13.18.34.36.58.58-.2-.23-.07-.15-.1-.25l-.27-.17Z" fill="#e0efff" stroke-width="0"/>
      <path d="m613.1,430.07c.07.05.24.18.26.19l-.14-.13-.12-.06Z" fill="#e0efff" stroke-width="0"/>
      <path d="m614.2,430.24l-.16-.08c.12.12.38.28.16.08Z" fill="#e0efff" stroke-width="0"/>
      <path d="m611.49,428.18l.15.16c.14.1.15.06-.03-.1.08.11-.1-.08-.12-.06Z" fill="#e0efff" stroke-width="0"/>
      <path d="m614.31,430.17c-.28-.26.16.08-.11-.17.07.08-.18-.09.11.17Z" fill="#e0efff" stroke-width="0"/>
      <path d="m611.51,427.79c-.29-.23-.06,0-.14-.03.02-.02.33.21.14.03Z" fill="#e0efff" stroke-width="0"/>
      <path d="m613.65,429.26c.21.18.18.19.12.16-.06-.06-.15-.15-.18-.19.14.17.1.14.18.25.17.1.29.15.55.38-.18-.19-.45-.46-.67-.61Z" fill="#e0efff" stroke-width="0"/>
      <path d="m611.52,427.71c-.1-.05-.3-.21-.3-.17.15.12.37.3.36.24l.24.22c.2.13-.33-.27-.29-.29Z" fill="#e0efff" stroke-width="0"/>
      <path d="m614.3,429.65l-.12-.09c.17.19.05.14.34.43.01-.05-.09-.2-.22-.34Z" fill="#e0efff" stroke-width="0"/>
      <path d="m612.05,428.01l-.34-.3c-.07-.01.12.1.19.18-.06-.03-.1-.05-.04.01-.02-.07.28.24.19.11Z" fill="#e0efff" stroke-width="0"/>
      <path d="m611.75,427.6l-.12-.16-.4-.3c.1.15.21.19.51.46Z" fill="#e0efff" stroke-width="0"/>
      <path d="m612.02,427.75l.07.05-.46-.49c.19.21.15.19.39.43Z" fill="#e0efff" stroke-width="0"/>
      <path d="m614.76,429.06c-.14-.13-.35-.26-.17-.13.12.11.34.23.17.13Z" fill="#e0efff" stroke-width="0"/>
      <path d="m611.93,426.81c.12.08-.04-.15-.13-.25.05.09-.07.09.13.25Z" fill="#e0efff" stroke-width="0"/>
      <path d="m611.77,426.52s.02.03.03.04c0-.01-.02-.03-.03-.04Z" fill="#e0efff" stroke-width="0"/>
      <path d="m611.76,425s-.01-.02-.03-.04c.01.01.02.02.03.04Z" fill="#e0efff" stroke-width="0"/>
      <path d="m611.83,425.1c-.06-.03,0,.08.16.22-.06-.09-.08-.14-.23-.31,0,.02-.11-.06.07.09Z" fill="#e0efff" stroke-width="0"/>
      <path d="m612.08,424.96c.08.09.02.06.17.18.07.05-.06-.1-.17-.18Z" fill="#e0efff" stroke-width="0"/>
      <path d="m617.5,427.31c.09.05.04-.01-.17-.19-.02.02.12.12.17.19Z" fill="#e0efff" stroke-width="0"/>
      <polygon points="617.31 427.05 617.41 427.14 617.59 427.27 617.31 427.05" fill="#e0efff" stroke-width="0"/>
      <path d="m617.73,427.19s.07.07.09.09c-.02-.03-.05-.06-.09-.09Z" fill="#e0efff" stroke-width="0"/>
      <path d="m617.83,427.29s0,0-.01-.02c0,0,0,.01.01.02Z" fill="#e0efff" stroke-width="0"/>
      <path d="m617.75,427.24l.11.1s-.03-.03-.04-.05c0,.01-.01,0-.08-.05Z" fill="#e0efff" stroke-width="0"/>
      <path d="m617.8,427.18l-.35-.26c.14.16.19.11.52.44l-.17-.18Z" fill="#e0efff" stroke-width="0"/>
      <path d="m617.79,427.01c.13.07-.35-.41.04-.09-.14-.24-.65-.54-.73-.74-.26-.1.71.68.44.56.27.17.17.18.25.27Z" fill="#e0efff" stroke-width="0"/>
      <path d="m617.13,426.47c.19.17.23.15.11.03-.03,0-.31-.23-.11-.03Z" fill="#e0efff" stroke-width="0"/>
      <polygon points="617.73 426.73 617.9 426.84 617.78 426.73 617.73 426.73" fill="#e0efff" stroke-width="0"/>
      <path d="m617.88,426.72l.21.21c-.08-.08-.04-.1-.21-.21Z" fill="#e0efff" stroke-width="0"/>
      <path d="m618.25,426.85c.09.05-.41-.42-.33-.28h.03c.08.08.28.21.3.28Z" fill="#e0efff" stroke-width="0"/>
      <path d="m617.66,425.9s.03.08.14.17l-.07-.13-.07-.04Z" fill="#e0efff" stroke-width="0"/>
      <path d="m616.41,424.82c-.32-.26,0,.06-.13,0,.08.03.12.07.13,0Z" fill="#e0efff" stroke-width="0"/>
      <path d="m618.14,426.24c.12.12.02.06,0,.06.18.15.16.09,0-.06Z" fill="#e0efff" stroke-width="0"/>
      <path d="m618.08,426.09c.14.1.17.15.27.22.16.1.17.05,0-.11-.14-.11-.51-.41-.66-.56.08.14.64.66.17.29l.52.51c.12.04-.36-.35-.31-.35Z" fill="#e0efff" stroke-width="0"/>
      <path d="m616.98,425.28l.2.14c-.18-.15-.2-.19-.25-.25-.4-.34.03.08.04.12Z" fill="#e0efff" stroke-width="0"/>
      <polygon points="618.04 425.66 617.98 425.53 617.95 425.53 618.04 425.66" fill="#e0efff" stroke-width="0"/>
      <polygon points="618.19 425.74 618.31 425.84 618.13 425.62 618.19 425.74" fill="#e0efff" stroke-width="0"/>
      <polygon points="618.37 425.81 618.34 425.8 618.42 425.91 618.37 425.81" fill="#e0efff" stroke-width="0"/>
      <path d="m618.53,425.78l-.17-.14s-.17-.09.05.1c-.07-.08-.02-.08.12.03Z" fill="#e0efff" stroke-width="0"/>
      <path d="m614.53,421.77c.1.1.21.18.31.27l-.27-.26s.03.05-.04,0Z" fill="#e0efff" stroke-width="0"/>
      <path d="m615.04,422.12l-.3-.32c-.08,0,.17.22.19.3.12.07-.1-.15,0-.09l.1.1Z" fill="#e0efff" stroke-width="0"/>
      <path d="m615.88,421.65c.21.18.18.15.3.29-.1-.15-.03-.14-.03-.2-.14-.11-.34-.34-.3-.27l.09.15-.14-.13c-.19-.11.22.22.07.16Z" fill="#e0efff" stroke-width="0"/>
      <path d="m619.64,421.8c.1.09.2.17.29.24-.09-.12-.27-.22-.29-.24Z" fill="#e0efff" stroke-width="0"/>
    </g>
    <path d="m606.28,270.91c-11.84-1.35-23.81-2.07-36.47-1.21-.01,0-.02,0-.04.01-8.08.54-16.44,1.74-25.22,3.84.17.96.4,2.04.69,3.2,2.45,9.88,9.56,25.96,29.74,29.36,28.06,4.7,37.47-9.54,42.16-33.25l-10.86-1.95Z" fill="#fdfa89" stroke-width="0"/>
    <path d="m605.28,270.06c-3.32,16.65-9.77,26.45-27.65,22.91-12.95-2.57-17.62-14.08-19.29-21.48.46-.15.93-.29,1.39-.42,16.79-4.88,31.2-3.49,45.56-1Z" fill="#d6744c" stroke-width="0"/>
    <g>
      <path d="m514.33,263.15s1.98,1.85,6.7.71c.65-1.55,1.32-3.53,1.72-5.88.64-3.72.37-6.9,0-9.09.38,1.89.7,4.26.7,6.99,0,1.93-.16,4.31-.7,6.99,1.08-.2,2.43-.58,3.88-1.3.71-.35,1.33-.73,1.86-1.1l1.13-19.53.96,19.65s13.14,2.86,15.96-9.58l6.63-54.22,2.01-6.48s2.84-28.95-23.27-25.56c-26.1,3.4-6.74,68.22-17.58,98.4Z" fill="#251a58" stroke-width="0"/>
      <path d="m514.33,263.15c5.05-16.98,2.47-36.83,2.14-54.34-.06-12.54-2.38-36.91,10.25-43.97,2.95-1.63,6.31-1.84,9.59-1.9,6.54-.18,13.41,3.05,16.71,8.91,3.31,5.78,4.3,12.39,3.75,18.95l-2,6.48s.06-.29.06-.29c-1.65,13.51-5.08,40.7-6.8,54.2-1.73,8.54-9.55,12.34-17.73,10.7l-1.01-.2-.04-1.04-.73-19.66h2.2s-1.36,19.53-1.36,19.53c0,0-.03.48-.03.48-2,1.22-4.09,2.29-6.44,2.62,0,0-1.14.2-1.14.2,1.19-4.83,1.42-9.9.51-14.83l.98-.18c.78,5.16.08,10.52-2.08,15.21-2.25.46-4.91.62-6.82-.86h0Zm0,0c1.42,1.02,3.29,1.09,4.97.88.57-.08,1.13-.2,1.68-.35l-.12.11c1.84-4.71,2.35-9.9,1.4-14.82l.98-.18c1.03,4.64,1.13,9.51.27,14.23l-.9-.91c.97-.2,1.92-.51,2.82-.91.92-.37,1.72-.97,2.57-1.45l-.37.67.89-19.55h2.2s1.2,19.65,1.2,19.65l-1.05-1.24c1.48.25,3.19.28,4.74.08,5.29-.55,8.46-4.13,9.44-8.53,1.62-13.67,4.78-40.88,6.52-54.54,0,0,2.03-6.47,2.03-6.47.3-5.27-.82-14.92-5.91-19.54-4.08-4.01-10.22-4.74-15.74-3.99-10.94,1.66-12.14,15.18-13.05,24.34-1.22,18.07.78,36.51-.87,54.67-.56,6.06-1.51,12.17-3.7,17.86h0Z" fill="#251a58" stroke-width="0"/>
    </g>
    <path d="m572.45,277.32c4.83,4.64,11.44,6.06,16.57,3.65,3.77-1.77,5.58-5.09,6.25-6.49-.03-.27-.06-.54-.09-.81-.71-5.84-1.42-11.68-2.12-17.52-.24-1.97-.47-3.94-.71-5.9-6.26-.57-12.53-1.15-18.78-1.72-.36,9.6-.73,19.2-1.1,28.79Z" fill="#d6744c" stroke-width="0"/>
    <path d="m573.6,255.54s10.15,14.6,21.57,18.14c-.71-5.84-1.42-11.68-2.12-17.52-5.63-1.62-12.36-2.13-19.45-.61Z" fill="#bf4715" stroke-width="0"/>
    <g>
      <path d="m610.42,179.36s3.25,2.55,1.17,17.9c-.58,4.28-.62,7.67-.35,10.62.32,3.52.78,5.94,1.14,7.84.28,1.3.64,3.23.87,5.59,1.15,12.24-2.79,21.99-5.28,26.91-3.3,6.51-6.04,11.94-11.72,13.61-3.53,1.04-6.78.2-11.51-1.01-5.97-1.53-10.74-4.04-13.41-5.82-14.79-9.81-18.24-31.95-19.39-39.36-1.02-6.54-1.83-16.72.42-29.23,3.9-1.82,8.28-3.54,13.14-4.97,18.04-5.29,34.19-4.03,44.93-2.07Z" fill="#d6744c" stroke-width="0"/>
      <path d="m569.44,208.1c.72.23,1.52-.09,1.86-.79,4.75-9.74,14.21-6.61,14.59-6.46.77.25,1.68-.14,1.96-.94.28-.8-.14-1.67-.94-1.96-.13-.07-12.4-4.22-18.37,8.02-.37.76-.06,1.68.71,2.06.07.03.13.06.2.08Z" fill="#251a58" stroke-width="0"/>
      <path d="m594.5,210.28c-.59,2.85.15,5.84,2.07,8.4,1.38,1.84,3.26,3.27,4.96,3.83.4.13.78.21,1.13.24,1.65.14,3.08-.43,3.23-.5.29-.12,1.73-.8,2.89-2.26,1.65-2.07,2.25-6.89,1.37-10.72-.68-2.92-2.1-4.95-4.1-5.9-.22-.1-.45-.19-.68-.27-1.77-.58-3.9-.37-5.82.59-2.63,1.31-4.46,3.72-5.05,6.59Z" fill="#fff" stroke-width="0"/>
      <path d="m572.25,211.25c-.67,2.7-.04,5.55,1.76,8,1.47,1.99,3.6,3.57,5.59,4.22.54.18,1.08.29,1.59.31,1.79.11,3.34-.48,3.52-.54.19-.07,1.87-.76,3.24-2.28,1.91-2.13,2.69-6.86,1.8-10.78-.7-3-2.32-5.16-4.58-6.08-.15-.06-.29-.12-.44-.16-2.13-.69-4.75-.4-7.12.8-2.72,1.39-4.68,3.77-5.36,6.52Z" fill="#fff" stroke-width="0"/>
      <path d="m585.93,216.34c.5,3.21-.73,6.06-2.73,6.36-2,.31-4.03-2.04-4.52-5.24-.5-3.21.73-6.06,2.73-6.36,2-.31,4.03,2.04,4.52,5.24Z" fill="#251a58" stroke-width="0"/>
      <path d="m606.44,215.55c.5,3.21-.73,6.06-2.73,6.36-2,.31-4.03-2.04-4.52-5.24-.5-3.21.73-6.06,2.73-6.36,2-.31,4.03,2.04,4.52,5.24Z" fill="#251a58" stroke-width="0"/>
      <path d="m561.6,217.66s-10.35-4.53-14.95-.06c-1.18,1.14-1.59,2.55-1.79,3.23-1.31,4.29.65,9.33,3.87,12.07,1.5,1.28,2.7,1.57,11.04,3.9,1.69.27,2.69-.09,3.31-.51,3.03-2.07,2.47-9.51-1.48-18.62Z" fill="#d6744c" stroke-width="0"/>
      <path d="m558.16,230.26c.6.2,1.1.17,1.19.17.71-.05,1.26-.66,1.21-1.38-.05-.71-.65-1.24-1.35-1.21-.04,0-.36-.01-.54-.24-.12-.15-.47-.79.02-2.63.09-.36.03-.74-.17-1.05-.1-.15-2.42-3.59-5.67-4.1-1.51-.24-3,.2-4.32,1.25-.56.45-.65,1.27-.2,1.82.45.56,1.27.65,1.82.2.75-.6,1.5-.84,2.29-.71,1.48.23,2.89,1.66,3.6,2.54-.39,1.89-.17,3.35.65,4.34.45.55,1,.85,1.48,1Z" fill="#bf4715" stroke-width="0"/>
      <path d="m592.17,207.66c.85,4.96,4.1,12.47,9.24,17.24.38.37,1.31,1.23,1.26,1.65,0,0-.2,1.12-4.47,2.26-.82.22-1.31,1.05-1.08,1.88.14.52.53.91,1.01,1.06.27.09.57.1.87.02,2.71-.72,6.36-2,6.72-4.82.26-2-1.32-3.46-2.17-4.26-4.66-4.33-7.58-11.09-8.34-15.55-.26-1.54-.73-4.28.34-6.19.12-.22.26-.43.43-.63.12-.15.25-.28.41-.4,2.17-1.9,6.71-1.87,11.34.13.78.34,1.69-.02,2.02-.8.3-.68.05-1.47-.54-1.87-.08-.05-.17-.1-.26-.15-4.03-1.75-7.92-2.21-10.97-1.46-1.51.37-2.8,1.05-3.83,2.01-.18.17-.36.35-.52.54-2.55,2.98-1.82,7.27-1.47,9.32Z" fill="#bf4715" stroke-width="0"/>
      <path d="m600.04,238.23s-.18-1.52-1.45-2.51c-1.51-1.17-3.63-.74-4.43-.61-2.28.37-5.91.25-11.67-2.14.63,1.17,2.27,3.79,5.5,5.43,5.68,2.87,11.35.18,12.05-.17Z" fill="#bf4715" stroke-width="0"/>
      <path d="m597.89,239.88c0,.61-.12,1.72-.86,2.7-1.48,1.96-4.25,1.82-4.95,1.79-3.31-.16-6.38-3.01-8.09-7.11,1.27.95,4.11,2.78,8.13,3.16,2.43.22,4.45-.16,5.77-.54Z" fill="#bf4715" stroke-width="0"/>
      <path d="m588.6,167.81s21.32,3.12,23.72,12.43c2.4,9.31-3.32,15.42-3.32,15.42,0,0,.11-7.31-3.19-12.42,0,0,1.79,12.12-11.42,12.2,0,0-4.01,5-11.21-2.41,0,0-6.92,11.71-22.83,3.89,0,0,2.48,22.53-4.52,21.02-7.01-1.51-6.1-5.71-8-10.52-1.9-4.81-14.87-60.38,40.78-39.61Z" fill="#251a58" stroke-width="0"/>
      <path d="m595.57,197.8c-.17.75.23,1.41.32,1.56.13.23.29.41.48.57,2.17-1.9,6.71-1.87,11.34.13.78.34,1.69-.02,2.02-.8.3-.68.05-1.47-.54-1.87-.08-.05-.17-.1-.26-.15-4.03-1.75-7.92-2.21-10.97-1.46-.78.31-2.16.87-2.41,2.01Z" fill="#251a58" stroke-width="0"/>
    </g>
    <path d="m759.15,375.15c1.24,1.45,2.43,2.93,3.59,4.44.02.03.08.11.2.26.13.17.26.34.39.52.27.35.53.71.8,1.06.52.7,1.03,1.41,1.52,2.13.89,1.29,1.76,2.62,2.48,4.01.17.32.32.65.47.98-.05-.11,0-.02.08.22.05.13.09.26.13.39s.07.27.11.41c.1.41-.01-.09.01.05.01.09-.02.2,0,.29-.07-.28.08-.31-.03-.03-.28.76.31,1.64,1.05,1.85.84.23,1.57-.28,1.85-1.05.43-1.19-.13-2.57-.61-3.65-.63-1.44-1.48-2.79-2.35-4.1-1.88-2.83-3.98-5.53-6.13-8.16-.48-.59-.96-1.17-1.45-1.75-.53-.62-1.58-.54-2.12,0-.61.61-.53,1.5,0,2.12h0Z" fill="#bf4715" stroke-width="0"/>
    <path d="m753.05,375.88c1.24,1.45,2.43,2.93,3.59,4.44.02.03.08.11.2.26.13.17.26.34.39.52.27.35.53.71.8,1.06.52.7,1.03,1.41,1.52,2.13.89,1.29,1.76,2.62,2.48,4.01.17.32.32.65.47.98-.05-.11,0-.02.08.22.05.13.09.26.13.39s.07.27.11.41c.1.41-.01-.09.01.05.01.09-.02.2,0,.29-.07-.28.08-.31-.03-.03-.28.76.31,1.64,1.05,1.85.84.23,1.57-.28,1.85-1.05.43-1.19-.13-2.57-.61-3.65-.63-1.44-1.48-2.79-2.35-4.1-1.88-2.83-3.98-5.53-6.13-8.16-.48-.59-.96-1.17-1.45-1.75-.53-.62-1.58-.54-2.12,0-.61.61-.53,1.5,0,2.12h0Z" fill="#bf4715" stroke-width="0"/>
    <path d="m475.52,273.43c.95,2.69,1.57,5.62,3.21,8.01.79,1.14,1.82,2.19,3.19,2.57s2.61-.08,3.63-.96c.9-.78,1.51-1.85,2.23-2.79.48-.62.12-1.71-.54-2.05-.8-.42-1.54-.13-2.05.54-.34.44-.65.9-.98,1.34-.18.25.17-.2-.05.06-.1.12-.2.24-.3.35-.08.08-.15.16-.24.24-.06.06-.44.36-.11.12-.1.07-.21.13-.31.2-.3.2.2-.03-.06.04-.06.02-.13.04-.2.05-.16.03-.13.03.09,0-.01.03-.3,0-.32,0,.41.03-.07-.05-.18-.08.29.09-.06-.04-.12-.07-.05-.03-.49-.34-.24-.14-.12-.1-.24-.21-.35-.32s-.22-.23-.32-.35c-.11-.13-.12-.14-.02-.02-.06-.07-.11-.15-.16-.23-.18-.27-.35-.55-.51-.83-.31-.55-.59-1.16-.78-1.65-.62-1.58-1.05-3.22-1.61-4.81-.26-.74-1.04-1.31-1.85-1.05-.73.24-1.33,1.05-1.05,1.85h0Z" fill="#bf4715" stroke-width="0"/>
    <path d="m471.05,276.73c.95,2.69,1.57,5.62,3.21,8.01.79,1.14,1.82,2.19,3.19,2.57s2.61-.08,3.63-.96c.9-.78,1.51-1.85,2.23-2.79.48-.62.12-1.71-.54-2.05-.8-.42-1.54-.13-2.05.54-.34.44-.65.9-.98,1.34-.18.25.17-.2-.05.06-.1.12-.2.24-.3.35-.08.08-.15.16-.24.24-.06.06-.44.36-.11.12-.1.07-.21.13-.31.2-.3.2.2-.03-.06.04-.06.02-.13.04-.2.05-.16.03-.13.03.09,0-.01.03-.3,0-.32,0,.41.03-.07-.05-.18-.08.29.09-.06-.04-.12-.07-.05-.03-.49-.34-.24-.14-.12-.1-.24-.21-.35-.32s-.22-.23-.32-.35c-.11-.13-.12-.14-.02-.02-.06-.07-.11-.15-.16-.23-.18-.27-.35-.55-.51-.83-.31-.55-.59-1.16-.78-1.65-.62-1.58-1.05-3.22-1.61-4.81-.26-.74-1.04-1.31-1.85-1.05-.73.24-1.33,1.05-1.05,1.85h0Z" fill="#bf4715" stroke-width="0"/>
    <path d="m480.46,269.81c.95,2.69,1.57,5.62,3.21,8.01.79,1.14,1.82,2.19,3.19,2.57s2.61-.08,3.63-.96c.9-.78,1.51-1.85,2.23-2.79.48-.62.12-1.71-.54-2.05-.8-.42-1.54-.13-2.05.54-.34.44-.65.9-.98,1.34-.18.25.17-.2-.05.06-.1.12-.2.24-.3.35-.08.08-.15.16-.24.24-.06.06-.44.36-.11.12-.1.07-.21.13-.31.2-.3.2.2-.03-.06.04-.06.02-.13.04-.2.05-.16.03-.13.03.09,0-.01.03-.3,0-.32,0,.41.03-.07-.05-.18-.08.29.09-.06-.04-.12-.07-.05-.03-.49-.34-.24-.14-.12-.1-.24-.21-.35-.32s-.22-.23-.32-.35c-.11-.13-.12-.14-.02-.02-.06-.07-.11-.15-.16-.23-.18-.27-.35-.55-.51-.83-.31-.55-.59-1.16-.78-1.65-.62-1.58-1.05-3.22-1.61-4.81-.26-.74-1.04-1.31-1.85-1.05-.73.24-1.33,1.05-1.05,1.85h0Z" fill="#bf4715" stroke-width="0"/>
    <path d="m489.42,272.94c-.38.51-.23.28-.1.14.13-.13.25-.25.39-.37.34-.3-.25.16.02-.02.13-.09.27-.18.4-.27s.28-.16.42-.24c.09-.05.18-.09.27-.13.32-.16-.12.04-.02,0,.43-.15.84-.3,1.29-.41.28-.07.56-.12.85-.16-.26.04-.1.01.06,0s.33-.03.49-.04c.69-.04,1.39-.02,2.08.05s1.43.21,2.27.42c.79.19,1.63-.25,1.85-1.05s-.26-1.65-1.05-1.85c-3.68-.9-8.17-1.04-11.17,1.67-.25.22-.45.47-.64.73-.48.65-.11,1.67.54,2.05.76.45,1.57.12,2.05-.54h0Z" fill="#bf4715" stroke-width="0"/>
    <path d="m495.05,277.25c-1.37.38-2.67,1.13-3.75,2.04-2.11,1.77-2.86,4.51-2.16,7.15.64,2.42,2.22,4.52,3.85,6.37.54.61,1.57.55,2.12,0,.6-.6.54-1.51,0-2.12-.69-.79-1.34-1.6-1.89-2.49-.46-.74-.8-1.39-1.02-2.04-.11-.34-.2-.68-.27-1.03-.01-.06-.02-.12-.03-.18-.04-.22.02.26,0,.04-.01-.17-.03-.34-.03-.51,0-.13,0-.25,0-.38.01-.19.05-.36,0-.07.05-.28.11-.54.19-.82.05-.17.12-.3,0-.04.05-.11.1-.22.16-.33.11-.21.25-.41.38-.61.13-.22-.21.23,0-.01.08-.09.15-.18.23-.26.16-.17.32-.32.49-.47.07-.06.15-.12.22-.19.15-.13-.28.19.02-.01.17-.12.34-.24.52-.34.3-.19.62-.35.94-.5.08-.04.16-.07.24-.11.2-.1-.42.16-.09.04.11-.04.23-.09.34-.13.11-.04.21-.07.32-.1,1.86-.52,1.07-3.41-.8-2.89h0Z" fill="#bf4715" stroke-width="0"/>
    <path d="m483.85,301.51c3.4.2,6.8.38,10.2.59-2.73.34-6.1,1.02-9.76,2.52l-.44-3.1Z" fill="#bf4715" stroke-width="0"/>
  </g>
  <g id="computer">
    <path d="m755.52,352.72l13.02,36.26h-26.03c-2.48-12.09-4.96-24.17-7.44-36.26,6.82,0,13.64,0,20.45,0Z" fill="#fff" stroke-width="0"/>
    <path d="m679.96,372.71h131.4c2.54,0,4.72-1.81,5.17-4.31l13.2-72.23c.59-3.23-1.89-6.2-5.17-6.2h-131.4c-2.54,0-4.72,1.81-5.17,4.31l-13.2,72.23c-.59,3.23,1.89,6.2,5.17,6.2Z" fill="#fff" stroke-width="0"/>
    <path d="m748.54,333.2c0-3.33,2.71-6.04,6.04-6.04.24,0,.48.01.71.04,1.42-2.3,3.94-3.76,6.73-3.76,4.36,0,7.9,3.55,7.9,7.9s-3.55,7.9-7.9,7.9c-1.42,0-2.79-.38-4-1.09-1,.7-2.19,1.09-3.44,1.09-3.33,0-6.04-2.71-6.04-6.04Zm10.62,1.19c.78.73,1.8,1.14,2.86,1.14,2.31,0,4.18-1.88,4.18-4.18s-1.88-4.18-4.18-4.18c-1.79,0-3.38,1.14-3.96,2.84l-.66,1.94-1.87-.85c-.31-.14-.63-.21-.95-.21-1.28,0-2.32,1.04-2.32,2.32s1.04,2.32,2.32,2.32c.71,0,1.38-.33,1.83-.92l1.25-1.63,1.49,1.41Z" fill="#ffd400" stroke-width="0"/>
    <path d="m726.69,394.56h59.5c0-3.59-2.91-6.51-6.51-6.51h-46.49c-3.59,0-6.51,2.91-6.51,6.51h0Z" fill="#fff" stroke-width="0"/>
  </g>
  <g id="table">
    <path d="m876.01,646.2s.07,0,.11,0c.98-.08,1.73-1.21,1.68-2.53l-9.97-227.49-.53-12.19c-.06-1.32-.91-2.34-1.88-2.25-.98.08-1.73,1.21-1.68,2.53l.53,12.19,9.97,227.49c.06,1.27.84,2.25,1.78,2.25Z" fill="#64b2f9" stroke-width="0"/>
    <path d="m376.17,646.2c.96,0,1.76-1,1.81-2.28l8.79-239.68c.05-1.32-.72-2.44-1.72-2.51-1.01-.08-1.85.95-1.9,2.28l-8.79,239.67c-.05,1.32.72,2.44,1.72,2.51.03,0,.06,0,.09,0Z" fill="#64b2f9" stroke-width="0"/>
    <path d="m849.52,646.2c.98,0,1.78-1.07,1.78-2.39l.05-239.68c0-1.32-.8-2.39-1.78-2.39s-1.78,1.07-1.78,2.39v12.19s-.05,227.49-.05,227.49c0,1.32.8,2.39,1.78,2.39Z" fill="#64b2f9" stroke-width="0"/>
    <path d="m405.4,646.2h.04c1-.03,1.79-1.13,1.77-2.45l-4.13-227.49-.22-12.18c-.02-1.32-.86-2.32-1.85-2.34-1,.03-1.79,1.13-1.77,2.45l.22,12.19,4.13,227.49c.02,1.3.83,2.34,1.81,2.34Z" fill="#64b2f9" stroke-width="0"/>
    <path d="m849.58,512.74h20c1.09,0,1.97-1.18,1.97-2.64s-.88-2.64-1.97-2.64h-20c-1.09,0-1.97,1.18-1.97,2.64s.88,2.64,1.97,2.64Z" fill="#64b2f9" stroke-width="0"/>
    <path d="m381.17,512.82h21.54c1.14,0,2.06-1.22,2.06-2.71s-.92-2.71-2.06-2.71h-21.54c-1.14,0-2.06,1.22-2.06,2.71s.92,2.71,2.06,2.71Z" fill="#64b2f9" stroke-width="0"/>
    <g>
      <rect x="368.65" y="390.6" width="499.66" height="12.19" transform="translate(1236.96 793.38) rotate(-180)" fill="#fcf6e0" stroke-width="0"/>
      <path d="m366.25,402.78v-12.19c0-1.32,1.07-2.39,2.39-2.39h499.66c1.32,0,2.39,1.07,2.39,2.39v12.19c0,1.32-1.07,2.39-2.39,2.39h-499.66c-1.32,0-2.39-1.07-2.39-2.39Zm499.66-9.79h-494.88s0,7.4,0,7.4h494.88s0-7.4,0-7.4Z" fill="#fcf6e0" stroke-width="0"/>
    </g>
  </g>
  <g id="flower_2" data-name="flower 2">
    <path d="m849.68,349.35c.63-4.42,1.26-8.83,1.89-13.25-1.49,1.22-3.24,2.87-4.97,5.04-1.69,2.11-2.89,4.14-3.74,5.82-1.13-1.32-2.93-3.76-4.01-7.31-1.09-3.59-.93-6.66-.72-8.38-1.11.92-4.07,3.64-5.28,8.29-1.44,5.51.57,9.98,1.15,11.16-1.59-.2-3.75-.65-6.14-1.7-3.04-1.35-5.17-3.13-6.47-4.4-.45,2.96,1,5.96,3.12,8.08,2.12,2.12,4.84,3.51,7.52,4.85l1.35.05c5.05.04,10.1.08,15.15.13,2.59.02,3.91-.33,5.38-1.01,4.88-2.25,6.7-7.85,7.35-10.42-2.02.16-4.46.54-7.16,1.36-1.67.51-3.15,1.11-4.43,1.7Z" fill="#a1b719" stroke-width="0"/>
    <polygon points="837.61 357.19 846.47 357.19 859.09 357.19 853.29 388.55 846.47 388.55 837.61 388.55 830.8 388.55 825 357.19 837.61 357.19" fill="#fe6642" stroke-width="0"/>
  </g>
  <g id="password">
    <path d="m667.37,148.91v92.14c13.38.28,26.75.56,40.13.84-1.82,9.12-3.65,18.24-5.47,27.36,10-9.4,19.99-18.8,29.99-28.2h97.7v-92.14h-162.34Z" fill="#ffc5c4" stroke-width="0"/>
    <g>
      <g>
        <path d="m759.92,180.87c-7.38,6.75-14.77,13.5-22.15,20.24-1.07.97-2.13,1.95-3.2,2.92-1.43,1.31.7,3.42,2.12,2.12,7.38-6.75,14.77-13.5,22.15-20.24,1.07-.97,2.13-1.95,3.2-2.92,1.43-1.31-.7-3.42-2.12-2.12h0Z" fill="#fff" stroke-width="0"/>
        <path d="m746.8,181.71c.22,6.67.44,13.34.66,20.01.03.96.06,1.92.09,2.88.06,1.93,3.06,1.93,3,0-.22-6.67-.44-13.34-.66-20.01-.03-.96-.06-1.92-.09-2.88-.06-1.93-3.06-1.93-3,0h0Z" fill="#fff" stroke-width="0"/>
        <path d="m761.04,191.79c-7.2.12-14.4.25-21.6.37l-3.11.05c-1.93.03-1.93,3.03,0,3,7.2-.12,14.4-.25,21.6-.37l3.11-.05c1.93-.03,1.93-3.03,0-3h0Z" fill="#fff" stroke-width="0"/>
        <path d="m762.51,203.07c-7.44-6.12-14.88-12.24-22.32-18.35-1.06-.87-2.13-1.75-3.19-2.62-1.48-1.22-3.61.89-2.12,2.12,7.44,6.12,14.88,12.24,22.32,18.35,1.06.87,2.13,1.75,3.19,2.62,1.48,1.22,3.61-.89,2.12-2.12h0Z" fill="#fff" stroke-width="0"/>
      </g>
      <g>
        <path d="m713.08,180.87c-7.38,6.75-14.77,13.5-22.15,20.24-1.07.97-2.13,1.95-3.2,2.92-1.43,1.31.7,3.42,2.12,2.12,7.38-6.75,14.77-13.5,22.15-20.24,1.07-.97,2.13-1.95,3.2-2.92,1.43-1.31-.7-3.42-2.12-2.12h0Z" fill="#fff" stroke-width="0"/>
        <path d="m699.96,181.71c.22,6.67.44,13.34.66,20.01.03.96.06,1.92.09,2.88.06,1.93,3.06,1.93,3,0-.22-6.67-.44-13.34-.66-20.01-.03-.96-.06-1.92-.09-2.88-.06-1.93-3.06-1.93-3,0h0Z" fill="#fff" stroke-width="0"/>
        <path d="m714.2,191.79c-7.2.12-14.4.25-21.6.37l-3.11.05c-1.93.03-1.93,3.03,0,3,7.2-.12,14.4-.25,21.6-.37l3.11-.05c1.93-.03,1.93-3.03,0-3h0Z" fill="#fff" stroke-width="0"/>
        <path d="m715.67,203.07c-7.44-6.12-14.88-12.24-22.32-18.35-1.06-.87-2.13-1.75-3.19-2.62-1.48-1.22-3.61.89-2.12,2.12,7.44,6.12,14.88,12.24,22.32,18.35,1.06.87,2.13,1.75,3.19,2.62,1.48,1.22,3.61-.89,2.12-2.12h0Z" fill="#fff" stroke-width="0"/>
      </g>
      <g>
        <path d="m806.76,180.87c-7.38,6.75-14.77,13.5-22.15,20.24-1.07.97-2.13,1.95-3.2,2.92-1.43,1.31.7,3.42,2.12,2.12,7.38-6.75,14.77-13.5,22.15-20.24,1.07-.97,2.13-1.95,3.2-2.92,1.43-1.31-.7-3.42-2.12-2.12h0Z" fill="#fff" stroke-width="0"/>
        <path d="m793.64,181.71c.22,6.67.44,13.34.66,20.01.03.96.06,1.92.09,2.88.06,1.93,3.06,1.93,3,0-.22-6.67-.44-13.34-.66-20.01-.03-.96-.06-1.92-.09-2.88-.06-1.93-3.06-1.93-3,0h0Z" fill="#fff" stroke-width="0"/>
        <path d="m807.88,191.79c-7.2.12-14.4.25-21.6.37l-3.11.05c-1.93.03-1.93,3.03,0,3,7.2-.12,14.4-.25,21.6-.37l3.11-.05c1.93-.03,1.93-3.03,0-3h0Z" fill="#fff" stroke-width="0"/>
        <path d="m809.35,203.07c-7.44-6.12-14.88-12.24-22.32-18.35-1.06-.87-2.13-1.75-3.19-2.62-1.48-1.22-3.61.89-2.12,2.12,7.44,6.12,14.88,12.24,22.32,18.35,1.06.87,2.13,1.75,3.19,2.62,1.48,1.22,3.61-.89,2.12-2.12h0Z" fill="#fff" stroke-width="0"/>
      </g>
    </g>
  </g>
  <g id="avatar">
    <circle cx="380.56" cy="244.39" r="60.43" fill="#ffc5c4" stroke-width="0"/>
    <g>
      <path d="m395.94,276.04h-30.74c-4.15,0-7.41-3.55-7.06-7.69.09-1.03.18-2.07.26-3.1,1.12-13.16,10.7-23.19,22.16-23.19,5.69,0,10.92,2.48,14.88,6.59,3.96,4.12,6.65,9.86,7.25,16.4.1,1.09.2,2.17.3,3.26.38,4.15-2.89,7.74-7.06,7.74Z" fill="#fff" stroke-width="0"/>
      <circle cx="380.7" cy="224.6" r="13.83" fill="#fff" stroke-width="0"/>
    </g>
  </g>
  <g id="flower">
    <path d="m442.35,508.13c-11.4-17.36-21.47,10.68-22.18,20.83.43-3.53-4.72-5.47-7.76-3.63-6.77,5.78-6.53,16.74-9.76,24.68-5.83,14.67-13.63,28.78-25.45,39.5,12.49.23,23.45-9.57,35.94-9.56,3.14,0,6.46.61,9.29-.75,2.83-1.35,4.26-5.89,1.59-7.54,5.8-5.97,17.12-9.9,16.57-19.72-.41-4.46-5.74-8.31-9.54-5.92,8.48-10.01,15.06-24.76,11.28-37.89Z" fill="#a1b719" stroke-width="0"/>
    <path d="m436.3,506.08c-10,31.47-28.19,64.66-56.51,82.8-1.84.51-1.07,3.44.79,2.88,27.67-15.67,49.7-54.96,58.6-84.88.54-1.85-2.34-2.64-2.88-.79h0Z" fill="#a1b719" stroke-width="0"/>
    <path d="m371.12,587.8c-4.39-3.5,4.82-14.51,0-25.71,1.45-5.12-38.35-23.19-40.44-37.58-2.88-8.71,6.14-5.67,3.45-15.12-2.02-11.77,2.29-24.44,11.07-32.53,3.6-3.98,11.56-6.48,14.43-.59,5.22-7.3,10.81-14.92,18.98-18.64,12.23-4.72,27.45-4.56,38.96,1.84,9.33,5.39,16.38,18.31,10.23,28.19-9.72,10.85-31.61-2.74-44.09,10.72,8.46-3.66,17.81,3.59,8.09,10.31-6.99,4.72-13.94,7.45-17.45,14.38,43.43-8.26,31.07,68.88-3.24,64.74Z" fill="#c5c620" stroke-width="0"/>
    <path d="m376.34,587.91c-1.08,0-1.85-1.23-1.28-2.19,8.31-14.87,10.63-27.41,6.88-37.25-6.15-16.11-25.55-18.99-27.96-37.5-.49-41.48,49.38-44.83,75.48-38.77,1.83.47,1.14,3.33-.72,2.85-9.16-2.32-18.36-2.98-27.34-1.96-14.37.25-47.5,10.4-44.49,37.51,2.53,17.43,22.09,20.56,27.78,36.82,3.77,10.02,2.16,27.06-8.35,40.48Z" fill="#a1b719" stroke-width="0"/>
    <path d="m395.92,585.77h-41.8l11.28,61.05h43.8l11.28-61.05h-24.55Z" fill="#fcf6e0" stroke-width="0"/>
  </g>
</svg>