<svg width="10" height="17" viewBox="0 0 10 17" fill="none" xmlns="http://www.w3.org/2000/svg">
<path d="M1.60005 4.28333C0.933388 4 0.650055 3.175 1.05006 2.575C1.85839 1.375 3.20839 0.5 4.99172 0.5C6.95005 0.5 8.29172 1.39167 8.97505 2.50833C9.55839 3.46667 9.90005 5.25833 9.00005 6.59167C8.00005 8.06667 7.04172 8.51667 6.52505 9.46667C6.40005 9.69167 6.32505 9.875 6.27505 10.25C6.20005 10.8583 5.70005 11.3333 5.08339 11.3333C4.35839 11.3333 3.76672 10.7083 3.85005 9.98333C3.90005 9.55833 4.00005 9.11667 4.23339 8.7C4.87505 7.54167 6.10839 6.85833 6.82505 5.83333C7.58339 4.75833 7.15839 2.75 5.00839 2.75C4.03339 2.75 3.40005 3.25833 3.00839 3.86667C2.71672 4.34167 2.10839 4.49167 1.60005 4.28333ZM6.66672 14.6667C6.66672 15.5833 5.91672 16.3333 5.00005 16.3333C4.08339 16.3333 3.33339 15.5833 3.33339 14.6667C3.33339 13.75 4.08339 13 5.00005 13C5.91672 13 6.66672 13.75 6.66672 14.6667Z" fill="black"/>
</svg>
