<?xml version="1.0" encoding="UTF-8"?>
<svg id="Layer_2" data-name="Layer 2" xmlns="http://www.w3.org/2000/svg" viewBox="0 0 873.99 1960.37">
  <path d="m572.03,234.6c27.68,14.67,147.15,154.83,214.06,228.74,24.56,27.13.31,96.29-6.3,109.38-26.15,51.81-117.84,68.63-117.84,68.63,33.61-48.43-5.26-144.46-44.83-156.92l-43.9-78.8-66.59,4.72c-20.88-74.6,17.97-135.12,65.41-175.75Z" fill="#bc0057" stroke-width="0"/>
  <path d="m198.73,1799.03c-25.47,42.32-38.55,92.63-86.29,130.31-53.4,42.14-126.75,50.29-110.02-32.74,0,0,53.34-110.29,90.65-178.62,12.14-22.23,15.53-123.75,45.79-197.75,64.37-140.38,41.83-191.78,126.42-75.64-6.31,53.9-.01,334.58,0,404.45,0,29.39-42.49,19.18-42.49,19.18l-24.06-69.18" stroke-width="0"/>
  <path d="m573.99,436.67c-.64,0-1.24-.41-1.44-1.06-16.05-51.72-8.62-114.72-8.54-115.34.1-.83.83-1.43,1.68-1.32.83.1,1.42.85,1.32,1.68-.07.62-7.43,63,8.43,114.08.25.8-.2,1.64-.99,1.89-.15.05-.3.07-.45.07Z" stroke-width="0"/>
  <path d="m629,491.01c-.47,0-.94-.22-1.23-.63-.49-.68-.33-1.62.35-2.11l58.79-41.91c.68-.49,1.62-.33,2.11.35.49.68.33,1.62-.35,2.11l-58.79,41.91c-.27.19-.57.28-.87.28Z" stroke-width="0"/>
  <rect x="158.15" y="1640.71" width="137.02" height="2.01" transform="translate(-1423.59 1794.29) rotate(-87.42)" fill="#fff" stroke-width="0"/>
  <path d="m787.97,1687.93c-.28,49.39,14.17,99.32-7.63,156.1-24.38,63.51-83.28,107.97-111.31,28.05,0,0-10.48-122.06-13.31-199.87-.92-25.31-49.85-114.32-61.64-193.4-16.36-153.56-61.99-186.24,70.05-129.6,22.11,49.56,170.88,287.65,206.58,347.72,15.02,25.27-26.73,38.19-26.73,38.19l-56.02-47.19Z" stroke-width="0"/>
  <path d="m243.17,651.77c12.42,27.43,84.96,57.94,198.11,57.94,80.57,0,154.57-34.26,164.56-50.08,0,0-33.94-118.45-229.73-78.8-34.05,6.89-132.95,70.93-132.95,70.93Z" stroke-width="0"/>
  <path d="m779.8,1461.89c-42.82,57.65-121.87,122.69-216.11,111.39l-145.76-468.87-26.67-394.7-61.83,362.61-3.21,513.29c-34.69,69.59-270.3,48.6-274.93-30.86l101.63-486.53,106.29-426.53c2.49-10.12-36.17-88.01,136.92-88.01s91.71-45.19,147.87,63.6c12.19,21.34,17.46,233.06,47.73,437.47l188.07,407.13Z" fill="#844023" stroke-width="0"/>
  <polygon points="100.7 1607.08 98.72 1606.74 190.76 1067.97 302.21 606.96 304.17 607.43 192.73 1068.37 100.7 1607.08" fill="#fff" stroke-width="0"/>
  <polygon points="188.4 1625.68 186.39 1625.48 240.2 1073.44 344.22 593.33 346.18 593.75 242.19 1073.75 188.4 1625.68" fill="#fff" stroke-width="0"/>
  <polygon points="631.04 1568.87 453.69 1074.38 453.68 1074.24 418.2 572.79 420.2 572.64 455.68 1073.96 632.94 1568.19 631.04 1568.87" fill="#fff" stroke-width="0"/>
  <polygon points="697.04 1534.18 502.98 1074.41 502.97 1074.25 466.36 593.62 468.37 593.46 504.96 1073.93 698.9 1533.4 697.04 1534.18" fill="#fff" stroke-width="0"/>
  <polygon points="748.03 1498.08 549.73 1062.97 549.72 1062.8 499.85 593.65 501.85 593.43 551.7 1062.43 749.86 1497.24 748.03 1498.08" fill="#fff" stroke-width="0"/>
  <polygon points="280.46 1617.5 278.45 1617.46 290.06 1075.81 384.63 572.53 386.61 572.9 292.06 1076.01 280.46 1617.5" fill="#fff" stroke-width="0"/>
  <path d="m420.25,101.3c-10.46-2.6-68.12-72.04-77.18-66.2-12.04,7.75-40.34,16.24-39.34,62.32-41.21,32.02-31.53,91.5-23.43,105.44,10.67,18.35,5.06,37.38,10.87,28.99-5.99,10.4,152.39-12.58,161.74-5.06,9.34,7.52,19.85,5.7,30.76.72,10.91-4.98,45.1,8.97,48.56-2.52,3.75-12.45-5.74-52.76-24.28-70.4,15.79-50.54-10.12-64.59-10.12-64.59,0,0-30.65,22.97-77.58,11.29Z" stroke-width="0"/>
  <path d="m318.06,184.2c-4.1,0-8.2-.77-12.13-2.32-8.23-3.24-14.71-9.49-18.24-17.6-3.53-8.11-3.69-17.11-.45-25.34h0c3.24-8.23,9.49-14.71,17.6-18.24,8.11-3.53,17.11-3.69,25.34-.45,8.23,3.24,14.71,9.49,18.24,17.59,3.53,8.11,3.69,17.11.45,25.34-3.24,8.23-9.49,14.71-17.6,18.24-4.24,1.84-8.72,2.77-13.21,2.77Zm-.02-64.24c-4.22,0-8.42.87-12.41,2.6-7.62,3.31-13.48,9.4-16.53,17.13h0c-3.04,7.73-2.89,16.18.43,23.8,3.32,7.62,9.4,13.48,17.13,16.53,7.73,3.04,16.18,2.89,23.8-.43,7.62-3.32,13.48-9.4,16.53-17.13,3.04-7.73,2.89-16.18-.43-23.8-3.32-7.62-9.4-13.48-17.13-16.53-3.69-1.45-7.55-2.17-11.39-2.17Z" fill="#fff" stroke-width="0"/>
  <circle cx="330.52" cy="114.8" r="19.64" transform="translate(82.35 361.44) rotate(-63.98)" fill="#f78f80" stroke-width="0"/>
  <path d="m676.71,530.87c28.31,102.28-14.76,110.47-14.76,110.47,0,0-47.45,6.86-61.5-65.28-8.52-43.76,31.54-83.14,31.54-83.14,0,0,29.43-17.3,44.72,37.95Z" stroke-width="0"/>
  <path d="m544,617.29c-113.73-54.45-196.66-57.3-277.7-10.09,24.33-121.96,49.11-253.78-23.13-367.42l114.31-58.72,65.77-1.9,126.44,47.03c-50,118.2-33.75,273.78-5.69,391.1Z" fill="#fff" stroke-width="0"/>
  <path d="m44.34,496.43c-1.63,20.73,33.37,116.02,55.37,120.86,65.7,14.45,183.17-135.5,183.17-135.5,0,0,35.32-233.87-3.43-260.65l-34.07,17.79c-103.53-12.54-197.26,209.35-201.04,257.51Z" fill="#bc0057" stroke-width="0"/>
  <path d="m326.67,196.88l30.81-15.83-78.03,40.08c38.6,109.42-11.95,308.67-36.29,430.63,59.46-38.55,102.72-37.3,102.72-37.3,39.37-250.13-19.22-417.59-19.22-417.59Z" fill="#bc0057" stroke-width="0"/>
  <path d="m441.28,607.2c58.04,2.42,134.24,25.89,164.56,52.44-28.06-117.32-83.81-306.84-33.81-425.04l-99.91-37.59c-25.44,31.05-54.09,250.58-30.84,410.2Z" fill="#bc0057" stroke-width="0"/>
  <path d="m462.25,361.62c-.43,0-.85-.18-1.15-.53-.54-.64-.46-1.59.17-2.13l37.12-31.54-28.43-15.94c-.49-.27-.78-.79-.77-1.35.01-.56.33-1.06.83-1.32l39.7-20.19-33.59-76.92c-.33-.76.02-1.65.78-1.99.76-.33,1.66.02,1.99.78l34.16,78.22c.32.73.01,1.59-.7,1.95l-38.45,19.56,27.86,15.62c.43.24.72.68.76,1.17.05.49-.15.98-.53,1.3l-38.77,32.94c-.28.24-.63.36-.98.36Z" stroke-width="0"/>
  <path d="m405.46,538.2l136.41,44.96s25.01-63.02,43.91-110.65c7.93-19.99,37.81-101.44,37.81-101.44l-49.61,20.13-104.44-40.66-64.08,187.65Z" fill="#fff" stroke-width="0"/>
  <path d="m495.82,569.54c10.88,5.74,79.86,34.25,115.64,32.48,10.73-.53,22.51-3.21,33.35-5.4,28.52-5.74,20.1-101.33-13.88-107.76l-35.14-43.56-10.01,27.2s-46.68-28.03-51.25-30.32c-31.69-15.83-75.04,108.19-38.71,127.35Z" fill="#f78f80" stroke-width="0"/>
  <path d="m647.76,595.89c17.27-4.41,38.09-16.94,38.09-16.94-1.16-25.22-5.61-62.41-31.14-87.47l-23.78-2.61s42.61,27.52,16.83,107.02Z" fill="#fff" stroke-width="0"/>
  <path d="m363.69,197.53h0c32.98,12.97,70.22-3.24,83.2-36.22l25.77-65.5c5.23-13.29-1.31-28.29-14.59-33.52l-71.31-28.05c-13.29-5.23-28.29,1.31-33.52,14.59l-25.77,65.5c-12.97,32.98,3.24,70.22,36.22,83.2Z" fill="#f78f80" stroke-width="0"/>
  <polygon points="395.87 280.38 427.8 178.56 363.94 178.56 395.87 280.38" fill="#f78f80" stroke-width="0"/>
  <path d="m395.43.01c-12.06.18-28.42,2.16-38.59,8.66-36.92,23.61-19.75,60.82-17.09,74.44,18.28-5.27,35.27-13.84,48.02-33.36-.23,18.71,32.69,63.93,58.14,60.58-6.7,11.64-3.01,24.85,9.39,29.6,12.54,4.81,24.04.42,32.54-9.98,7.26-8.89,10.21-21.7,9.99-39.95-.5-41.46-22.82-45.29-22.82-45.29,0,0-22.25-45.54-79.57-44.7Z" stroke-width="0"/>
  <path d="m359.07,117.79c-.95,2.42.24,5.16,2.66,6.12,2.42.95,5.16-.24,6.12-2.66s-.24-5.16-2.66-6.12-5.16.24-6.12,2.66Z" stroke-width="0"/>
  <path d="m400.67,132.94c-.95,2.42.24,5.16,2.66,6.12s5.16-.24,6.12-2.66c.95-2.42-.24-5.16-2.66-6.12s-5.16.24-6.12,2.66Z" stroke-width="0"/>
  <path d="m389.18,325.74c-.95,2.42.24,5.16,2.66,6.12s5.16-.24,6.12-2.66c.95-2.42-.24-5.16-2.66-6.12-2.42-.95-5.16.24-6.12,2.66Z" stroke-width="0"/>
  <path d="m386.86,395.38c-.95,2.42.24,5.16,2.66,6.12s5.16-.24,6.12-2.66-.24-5.16-2.66-6.12-5.16.24-6.12,2.66Z" stroke-width="0"/>
  <circle cx="391.25" cy="463.83" r="4.72" transform="translate(-195.38 619.02) rotate(-64.67)" stroke-width="0"/>
  <path d="m386.86,522.7c-.95,2.42.24,5.16,2.66,6.12s5.16-.24,6.12-2.66-.24-5.16-2.66-6.12c-2.42-.95-5.16.24-6.12,2.66Z" stroke-width="0"/>
  <circle cx="455.35" cy="158.69" r="19.64" transform="translate(64.65 441.32) rotate(-55.09)" fill="#f78f80" stroke-width="0"/>
  <path d="m182.77,496.81c-.06,0-.12,0-.18,0-.83-.1-1.42-.85-1.32-1.68l16.25-136.17c.1-.83.83-1.41,1.68-1.32.83.1,1.42.85,1.32,1.68l-16.25,136.17c-.09.77-.75,1.33-1.5,1.33Z" stroke-width="0"/>
  <path d="m274.24,506.64c-.1,0-.2,0-.3-.03-.82-.17-1.34-.97-1.18-1.78,6.97-34,14.52-136.52,14.59-137.55.06-.83.81-1.44,1.62-1.4.83.06,1.46.78,1.4,1.62-.07,1.03-7.64,103.74-14.64,137.93-.15.72-.77,1.21-1.48,1.21Z" stroke-width="0"/>
  <path d="m376.27,152.24c-2.34,0-4.75-.57-6.82-1.59-4.28-2.11-6.17-5.66-4.94-9.26,2.85-8.34,14.18-20.81,14.66-21.34.57-.62,1.52-.66,2.13-.1.62.56.66,1.52.1,2.13-.11.13-11.38,12.54-14.03,20.29-1.05,3.08,2.35,5.04,3.42,5.57,3.84,1.91,9.36,1.9,11.58-1.42.46-.69,1.4-.88,2.1-.42.69.46.88,1.4.42,2.1-1.88,2.82-5.18,4.04-8.61,4.04Z" stroke-width="0"/>
  <path d="m453.32,169.26c-.83,0-1.5-.66-1.51-1.49,0-.83.66-1.52,1.49-1.53,3.26-.04,5.85-2.22,6.94-5.85,1.08-3.58.44-8.37-2.86-10.6-.69-.47-.87-1.41-.4-2.1.46-.69,1.41-.87,2.1-.4,4.04,2.73,5.71,8.48,4.06,13.97-1.47,4.88-5.22,7.94-9.8,8h-.02Z" stroke-width="0"/>
  <path d="m381.55,177.66c-5.4,0-10.29-2.78-12.76-7.37-.4-.74-.12-1.65.61-2.04.74-.4,1.65-.12,2.04.61,2.6,4.83,7.6,6.11,11.47,5.71,4.25-.45,7.51-2.85,8.49-6.25.23-.8,1.07-1.26,1.87-1.03.8.23,1.26,1.07,1.03,1.87-1.33,4.61-5.58,7.83-11.08,8.42-.56.06-1.13.09-1.68.09Z" stroke-width="0"/>
  <path d="m388.12,203.99c-10.32,0-22.32-2.66-35.38-10.4-.72-.43-.95-1.35-.53-2.07.43-.72,1.35-.95,2.07-.53,33.73,20.01,59.95,4.58,67.18-.63.68-.49,1.62-.33,2.11.34.49.68.33,1.62-.34,2.11-4.8,3.45-17.52,11.18-35.11,11.18Z" stroke-width="0"/>
  <path d="m355.77,94.56l-9.18-11.45,11.33,9.33c1.66,1.42-.74,3.81-2.15,2.12h0Z" stroke-width="0"/>
  <path d="m379.58,95.75c-.32,0-.65-.1-.92-.31-.44-.34-10.87-8.2-20.92-.73-.67.5-1.61.36-2.11-.31-.5-.67-.36-1.61.31-2.11,11.89-8.85,24.44.67,24.57.76.66.51.78,1.46.27,2.12-.3.39-.74.59-1.2.59Z" stroke-width="0"/>
  <path d="m421.96,115.12l12.73-.32-12.3,3.31c-2.18.51-2.67-2.85-.43-2.99h0Z" stroke-width="0"/>
  <path d="m422.18,118.12c-.64,0-1.23-.41-1.44-1.04-3.87-11.9-16.92-11.52-17.48-11.51-.78.06-1.53-.62-1.57-1.45-.03-.83.61-1.53,1.44-1.57.15-.02,15.9-.52,20.48,13.59.26.79-.17,1.64-.97,1.9-.16.05-.31.07-.47.07Z" stroke-width="0"/>
  <path d="m392.41,295.63c-.12,0-.25-.01-.37-.05-.81-.2-1.3-1.02-1.09-1.83l10.97-43.54c.2-.81,1.04-1.3,1.83-1.1.81.2,1.3,1.02,1.1,1.83l-10.97,43.54c-.17.68-.79,1.14-1.46,1.14Z" stroke-width="0"/>
  <path d="m308.85,352.06c-.57,0-1.11-.32-1.37-.86l-11.29-23.77c-.34-.72-.07-1.58.63-1.97l27.86-15.62-38.45-19.56c-.71-.36-1.02-1.22-.7-1.95l34.16-78.23c.34-.76,1.23-1.11,1.99-.78.76.33,1.11,1.22.78,1.99l-33.59,76.92,39.7,20.19c.5.25.81.76.83,1.32.01.56-.29,1.07-.77,1.35l-29.1,16.31,10.69,22.49c.36.75.04,1.66-.72,2.01-.21.1-.43.15-.65.15Z" stroke-width="0"/>
  <path d="m281.89,556.99c-5.87,0-11.3-.6-15.98-1.84-.81-.21-1.29-1.04-1.07-1.85.21-.8,1.04-1.29,1.85-1.07,12.88,3.41,36.47,2.23,60.13-8.08.76-.33,1.66.02,1.99.78.33.76-.02,1.66-.78,1.99-14.94,6.51-31.84,10.07-46.14,10.07Z" stroke-width="0"/>
  <path d="m557.84,532.39c-.21,0-.43-.05-.64-.14-.47-.22-47.46-22.3-66.74-35.7-.69-.48-.86-1.42-.38-2.1.48-.68,1.42-.86,2.1-.38,19.08,13.25,65.83,35.23,66.3,35.45.75.35,1.08,1.25.73,2.01-.26.55-.8.87-1.37.87Z" stroke-width="0"/>
  <path d="m547.94,561.63c-.21,0-.43-.05-.64-.14-.46-.21-45.99-21.43-65.28-34.83-.69-.48-.86-1.42-.38-2.1.48-.69,1.42-.86,2.1-.38,19.08,13.25,64.37,34.36,64.83,34.58.75.35,1.08,1.25.73,2.01-.26.55-.8.87-1.37.87Z" stroke-width="0"/>
  <path d="m605.07,485.72l-27.53-16.35c-.72-.42-.95-1.35-.53-2.07.42-.72,1.35-.95,2.07-.53l27.53,16.35-1.54,2.6Z" stroke-width="0"/>
  <path d="m552.67,451.68c-.17,0-.34-.03-.51-.09-.78-.28-1.19-1.15-.91-1.93l21.31-58.96c.28-.79,1.15-1.19,1.93-.91.78.28,1.19,1.15.91,1.93l-21.31,58.96c-.22.62-.8,1-1.42,1Z" stroke-width="0"/>
  <path d="m547.7,413.35c-.17,0-.35-.03-.52-.09l-64.08-23.47c-.78-.29-1.19-1.15-.9-1.94.29-.78,1.15-1.19,1.94-.9l64.08,23.47c.78.29,1.19,1.15.9,1.94-.22.61-.8.99-1.42.99Z" stroke-width="0"/>
  <path d="m571.82,501.74c-.23,0-.47-.05-.69-.17-.46-.24-46.05-23.62-65.32-37-.69-.48-.86-1.42-.38-2.1.48-.69,1.42-.86,2.1-.38,19.1,13.27,64.52,36.56,64.97,36.8.74.38,1.04,1.29.66,2.03-.27.52-.8.82-1.35.82Z" stroke-width="0"/>
  <path d="m459.85,239.62c-6.37,0-12.61-1.85-18.06-5.42-7.4-4.84-12.47-12.28-14.28-20.94-1.81-8.66-.14-17.5,4.71-24.9,4.43-6.77,11.16-11.67,18.95-13.8l.53,1.94c-7.32,2-13.64,6.61-17.8,12.96-4.55,6.95-6.12,15.26-4.42,23.39,1.7,8.13,6.46,15.11,13.41,19.66,6.95,4.55,15.25,6.12,23.39,4.42,8.13-1.7,15.11-6.46,19.66-13.41,4.55-6.95,6.12-15.26,4.42-23.39-1.7-8.13-6.46-15.11-13.41-19.66-3.18-2.08-6.65-3.54-10.33-4.35l.43-1.97c3.91.86,7.61,2.42,11,4.64,7.4,4.84,12.47,12.28,14.28,20.94,1.81,8.66.14,17.5-4.71,24.9-4.84,7.4-12.28,12.47-20.94,14.28-2.27.48-4.57.71-6.84.71Z" fill="#fff" stroke-width="0"/>
  <path d="m390.54,703.02c-.28,0-.56-.08-.81-.23-.71-.45-.91-1.38-.47-2.08l36.45-57.46c.45-.7,1.38-.91,2.08-.47.71.45.91,1.38.47,2.08l-36.45,57.46c-.29.45-.78.7-1.28.7Z" stroke-width="0"/>
  <path d="m398.4,821.34c-.78,0-1.45-.61-1.5-1.4l-12.78-180.54c-.06-.83.57-1.55,1.4-1.61.82-.07,1.55.57,1.61,1.4l12.78,180.54c.06.83-.57,1.55-1.4,1.61-.04,0-.07,0-.11,0Z" stroke-width="0"/>
  <path d="m173.17,338.99c1.25,32.21,40.43,33.84,70.41-16.14,19.3-32.18,18.35-55.49,8.65-81.38l-11.22-4.57c-76.17,55.97-67.84,102.09-67.84,102.09Z" stroke-width="0"/>
  <g>
    <path d="m329.56,273.47c-9.16-8.22-40.24-19.76-67.22-30.98-38.56,7.56-96.47,76.94-65.09,91.45,0,0,23.76,2.82,25.36,7.78,10.25,31.85,47.39,29.55,50.38,29.38,16.68-.95,33.96-12.52,51.48-24.57,29.2-20.07,24.19-55.92,5.08-73.06Z" fill="#f78f80" stroke-width="0"/>
    <path d="m315.23,267.52c-10.48,2.78-14.54,10.62-11.76,21.11s76.18,53.4,85.75,58.52c16.2,8.67,27.39-4.19,11.52-18.25-8.12-7.2-75.03-64.15-85.51-61.38Z" fill="#f78f80" stroke-width="0"/>
    <path d="m336.99,333.08s-.06,0-.08,0c-.83-.05-1.47-.75-1.43-1.59,0-.15.76-14.68-.57-20.96-2.71-12.82-33.12-25.88-33.42-26.01-.77-.33-1.13-1.21-.8-1.98.32-.77,1.22-1.12,1.98-.8,1.31.56,32.16,13.82,35.2,28.17,1.41,6.67.66,21.13.63,21.74-.04.8-.71,1.43-1.51,1.43Z" stroke-width="0"/>
    <path d="m319.44,351.49s-.06,0-.08,0c-.83-.05-1.47-.76-1.43-1.59,0-.18.99-18.15-.34-24.43-2.73-12.94-30.93-29.52-31.21-29.69-.72-.42-.96-1.34-.54-2.06.42-.72,1.34-.97,2.06-.54,1.21.7,29.64,17.43,32.64,31.67,1.41,6.67.44,24.46.4,25.22-.05.81-.71,1.43-1.51,1.43Z" stroke-width="0"/>
    <path d="m296.23,363.56s-.08,0-.12,0c-.83-.06-1.45-.79-1.39-1.62.02-.21,1.59-21.21.27-27.47-2.72-12.89-26.92-25.37-27.17-25.5-.74-.38-1.04-1.29-.66-2.03.38-.74,1.28-1.04,2.03-.66,1.05.53,25.73,13.27,28.75,27.56,1.41,6.68-.14,27.44-.21,28.32-.06.79-.72,1.4-1.5,1.4Z" stroke-width="0"/>
    <path d="m273,372.61s-.09,0-.13,0c-.83-.07-1.45-.8-1.37-1.63.02-.23,1.93-22.69.61-28.94-2.7-12.78-21.05-20.18-21.24-20.25-.77-.31-1.16-1.18-.85-1.96.31-.78,1.18-1.16,1.96-.85.82.32,20.04,8.05,23.08,22.43,1.41,6.69-.47,28.89-.55,29.83-.07.79-.73,1.38-1.5,1.38Z" stroke-width="0"/>
    <path d="m247.74,353.46s-.07,0-.11,0c-.83-.06-1.45-.79-1.39-1.62l.62-8.34-5.28-3.22c-.71-.43-.94-1.36-.5-2.08.43-.71,1.36-.94,2.08-.5l6.07,3.7c.48.29.76.84.72,1.4l-.69,9.26c-.06.79-.72,1.4-1.5,1.4Z" stroke-width="0"/>
    <path d="m239,348.16c-.59,0-1.15-.35-1.39-.92-.32-.77.04-1.66.81-1.98l9.42-3.96c.76-.32,1.65.04,1.98.81.32.77-.04,1.66-.81,1.98l-9.42,3.96c-.19.08-.39.12-.59.12Z" stroke-width="0"/>
  </g>
  <path d="m262.35,242.49s-7.58-2.98-16.96-3.57c-32.1,9.77-76.66,60.18-72.21,100.07l24.09-5.04s8.37-71.6,65.09-91.45Z" fill="#fff" stroke-width="0"/>
  <path d="m540.61,432.46c-.17,0-.35-.03-.52-.09l-64.07-23.47c-.78-.29-1.19-1.15-.9-1.94.29-.78,1.15-1.19,1.94-.9l64.07,23.47c.78.29,1.19,1.15.9,1.94-.22.61-.8.99-1.42.99Z" stroke-width="0"/>
  <path d="m453.87,556.96c-.17,0-.34-.03-.51-.09l-49.82-17.75,48.67-142.51c.27-.79,1.13-1.21,1.92-.94.79.27,1.21,1.13.94,1.92l-47.7,139.69,47.01,16.75c.78.28,1.2,1.14.91,1.93-.22.62-.8,1-1.42,1Z" stroke-width="0"/>
</svg>